<svg width="24" height="24" viewBox="0 0 24 24" fill="none" xmlns="http://www.w3.org/2000/svg">
<path d="M16.95 22.7499C15.82 22.7499 14.63 22.4799 13.4 21.9599C12.2 21.4499 10.99 20.7499 9.81 19.8999C8.64 19.0399 7.51 18.0799 6.44 17.0299C5.38 15.9599 4.42 14.8299 3.57 13.6699C2.71 12.4699 2.02 11.2699 1.53 10.1099C1.01 8.86994 0.75 7.66994 0.75 6.53994C0.75 5.75994 0.89 5.01994 1.16 4.32994C1.44 3.61994 1.89 2.95994 2.5 2.38994C3.27 1.62994 4.15 1.24994 5.09 1.24994C5.48 1.24994 5.88 1.33994 6.22 1.49994C6.61 1.67994 6.94 1.94994 7.18 2.30994L9.5 5.57994C9.71 5.86994 9.87 6.14994 9.98 6.42994C10.11 6.72994 10.18 7.02994 10.18 7.31994C10.18 7.69994 10.07 8.06994 9.86 8.41994C9.71 8.68994 9.48 8.97994 9.19 9.26994L8.51 9.97994C8.52 10.0099 8.53 10.0299 8.54 10.0499C8.66 10.2599 8.9 10.6199 9.36 11.1599C9.85 11.7199 10.31 12.2299 10.77 12.6999C11.36 13.2799 11.85 13.7399 12.31 14.1199C12.88 14.5999 13.25 14.8399 13.47 14.9499L13.45 14.9999L14.18 14.2799C14.49 13.9699 14.79 13.7399 15.08 13.5899C15.63 13.2499 16.33 13.1899 17.03 13.4799C17.29 13.5899 17.57 13.7399 17.87 13.9499L21.19 16.3099C21.56 16.5599 21.83 16.8799 21.99 17.2599C22.14 17.6399 22.21 17.9899 22.21 18.3399C22.21 18.8199 22.1 19.2999 21.89 19.7499C21.68 20.1999 21.42 20.5899 21.09 20.9499C20.52 21.5799 19.9 22.0299 19.18 22.3199C18.49 22.5999 17.74 22.7499 16.95 22.7499ZM5.09 2.74994C4.54 2.74994 4.03 2.98994 3.54 3.46994C3.08 3.89994 2.76 4.36994 2.56 4.87994C2.35 5.39994 2.25 5.94994 2.25 6.53994C2.25 7.46994 2.47 8.47994 2.91 9.51994C3.36 10.5799 3.99 11.6799 4.79 12.7799C5.59 13.8799 6.5 14.9499 7.5 15.9599C8.5 16.9499 9.58 17.8699 10.69 18.6799C11.77 19.4699 12.88 20.1099 13.98 20.5699C15.69 21.2999 17.29 21.4699 18.61 20.9199C19.12 20.7099 19.57 20.3899 19.98 19.9299C20.21 19.6799 20.39 19.4099 20.54 19.0899C20.66 18.8399 20.72 18.5799 20.72 18.3199C20.72 18.1599 20.69 17.9999 20.61 17.8199C20.58 17.7599 20.52 17.6499 20.33 17.5199L17.01 15.1599C16.81 15.0199 16.63 14.9199 16.46 14.8499C16.24 14.7599 16.15 14.6699 15.81 14.8799C15.61 14.9799 15.43 15.1299 15.23 15.3299L14.47 16.0799C14.08 16.4599 13.48 16.5499 13.02 16.3799L12.75 16.2599C12.34 16.0399 11.86 15.6999 11.33 15.2499C10.85 14.8399 10.33 14.3599 9.7 13.7399C9.21 13.2399 8.72 12.7099 8.21 12.1199C7.74 11.5699 7.4 11.0999 7.19 10.7099L7.07 10.4099C7.01 10.1799 6.99 10.0499 6.99 9.90994C6.99 9.54994 7.12 9.22994 7.37 8.97994L8.12 8.19994C8.32 7.99994 8.47 7.80994 8.57 7.63994C8.65 7.50994 8.68 7.39994 8.68 7.29994C8.68 7.21994 8.65 7.09994 8.6 6.97994C8.53 6.81994 8.42 6.63994 8.28 6.44994L5.96 3.16994C5.86 3.02994 5.74 2.92994 5.59 2.85994C5.43 2.78994 5.26 2.74994 5.09 2.74994ZM13.45 15.0099L13.29 15.6899L13.56 14.9899C13.51 14.9799 13.47 14.9899 13.45 15.0099Z" fill="#173760"/>
<path d="M18 9.74994C17.59 9.74994 17.25 9.40994 17.25 8.99994C17.25 8.63994 16.89 7.88994 16.29 7.24994C15.7 6.61994 15.05 6.24994 14.5 6.24994C14.09 6.24994 13.75 5.90994 13.75 5.49994C13.75 5.08994 14.09 4.74994 14.5 4.74994C15.47 4.74994 16.49 5.26994 17.38 6.21994C18.21 7.10994 18.75 8.19994 18.75 8.99994C18.75 9.40994 18.41 9.74994 18 9.74994Z" fill="#173760"/>
<path d="M21.5 9.74994C21.09 9.74994 20.75 9.40994 20.75 8.99994C20.75 5.54994 17.95 2.74994 14.5 2.74994C14.09 2.74994 13.75 2.40994 13.75 1.99994C13.75 1.58994 14.09 1.24994 14.5 1.24994C18.77 1.24994 22.25 4.72994 22.25 8.99994C22.25 9.40994 21.91 9.74994 21.5 9.74994Z" fill="#173760"/>
</svg>
