<svg width="27" height="27" viewBox="0 0 27 27" fill="none" xmlns="http://www.w3.org/2000/svg">
<path d="M18.5625 23.9062H7.3125C3.20625 23.9062 0.84375 21.5437 0.84375 17.4374V9.56244C0.84375 5.45619 3.20625 3.09369 7.3125 3.09369H18.5625C22.6688 3.09369 25.0312 5.45619 25.0312 9.56244V17.4374C25.0312 21.5437 22.6688 23.9062 18.5625 23.9062ZM7.3125 4.78119C4.095 4.78119 2.53125 6.34494 2.53125 9.56244V17.4374C2.53125 20.6549 4.095 22.2187 7.3125 22.2187H18.5625C21.78 22.2187 23.3438 20.6549 23.3438 17.4374V9.56244C23.3438 6.34494 21.78 4.78119 18.5625 4.78119H7.3125Z" fill="#173760"/>
<path d="M12.9405 14.4765C11.9955 14.4765 11.0393 14.184 10.308 13.5877L6.78679 10.7752C6.42679 10.4827 6.3593 9.95396 6.6518 9.59396C6.9443 9.23396 7.47305 9.16646 7.83305 9.45896L11.3543 12.2715C12.2093 12.9577 13.6605 12.9577 14.5155 12.2715L18.0368 9.45896C18.3968 9.16646 18.9368 9.22271 19.218 9.59396C19.5105 9.95396 19.4543 10.494 19.0831 10.7752L15.5618 13.5877C14.8418 14.184 13.8855 14.4765 12.9405 14.4765Z" fill="#173760"/>
</svg>
