<svg width="32" height="27" viewBox="0 0 32 27" fill="none" xmlns="http://www.w3.org/2000/svg">
<path d="M0.152348 13.5015C0.152348 13.0091 0.348303 12.5369 0.697104 12.1887C1.04591 11.8405 1.51898 11.6449 2.01226 11.6449L24.7962 11.6449L16.811 3.67505C16.4616 3.32625 16.2653 2.85318 16.2653 2.3599C16.2653 1.86662 16.4616 1.39355 16.811 1.04475C17.1604 0.695952 17.6343 0.499996 18.1284 0.499996C18.6225 0.499996 19.0964 0.695952 19.4458 1.04475L30.6053 12.1848C30.7787 12.3573 30.9163 12.5623 31.0101 12.788C31.104 13.0137 31.1523 13.2556 31.1523 13.5C31.1523 13.7444 31.104 13.9863 31.0101 14.212C30.9163 14.4377 30.7787 14.6427 30.6053 14.8152L19.4458 25.9552C19.2728 26.128 19.0674 26.265 18.8414 26.3584C18.6153 26.4519 18.3731 26.5 18.1284 26.5C17.8837 26.5 17.6414 26.4519 17.4154 26.3584C17.1894 26.265 16.984 26.128 16.811 25.9552C16.6379 25.7825 16.5007 25.5775 16.4071 25.3518C16.3134 25.1262 16.2653 24.8843 16.2653 24.6401C16.2653 24.3958 16.3134 24.154 16.4071 23.9283C16.5007 23.7027 16.6379 23.4977 16.811 23.3249L24.7962 15.3582L2.01226 15.3582C1.51898 15.3582 1.04591 15.1626 0.697104 14.8144C0.348303 14.4662 0.152348 13.994 0.152348 13.5015Z" fill="#7A1129"/>
</svg>
