<svg width="23" height="22" viewBox="0 0 23 22" fill="none" xmlns="http://www.w3.org/2000/svg">
<path d="M16.95 21.75C15.82 21.75 14.63 21.48 13.4 20.96C12.2 20.45 10.99 19.75 9.81 18.9C8.64 18.04 7.51 17.08 6.44 16.03C5.38 14.96 4.42 13.83 3.57 12.67C2.71 11.47 2.02 10.27 1.53 9.11C1.01 7.87 0.75 6.67 0.75 5.54C0.75 4.76 0.89 4.02 1.16 3.33C1.44 2.62 1.89 1.96 2.5 1.39C3.27 0.63 4.15 0.25 5.09 0.25C5.48 0.25 5.88 0.34 6.22 0.5C6.61 0.68 6.94 0.95 7.18 1.31L9.5 4.58C9.71 4.87 9.87 5.15 9.98 5.43C10.11 5.73 10.18 6.03 10.18 6.32C10.18 6.7 10.07 7.07 9.86 7.42C9.71 7.69 9.48 7.98 9.19 8.27L8.51 8.98C8.52 9.01 8.53 9.03 8.54 9.05C8.66 9.26 8.9 9.62 9.36 10.16C9.85 10.72 10.31 11.23 10.77 11.7C11.36 12.28 11.85 12.74 12.31 13.12C12.88 13.6 13.25 13.84 13.47 13.95L13.45 14L14.18 13.28C14.49 12.97 14.79 12.74 15.08 12.59C15.63 12.25 16.33 12.19 17.03 12.48C17.29 12.59 17.57 12.74 17.87 12.95L21.19 15.31C21.56 15.56 21.83 15.88 21.99 16.26C22.14 16.64 22.21 16.99 22.21 17.34C22.21 17.82 22.1 18.3 21.89 18.75C21.68 19.2 21.42 19.59 21.09 19.95C20.52 20.58 19.9 21.03 19.18 21.32C18.49 21.6 17.74 21.75 16.95 21.75ZM5.09 1.75C4.54 1.75 4.03 1.99 3.54 2.47C3.08 2.9 2.76 3.37 2.56 3.88C2.35 4.4 2.25 4.95 2.25 5.54C2.25 6.47 2.47 7.48 2.91 8.52C3.36 9.58 3.99 10.68 4.79 11.78C5.59 12.88 6.5 13.95 7.5 14.96C8.5 15.95 9.58 16.87 10.69 17.68C11.77 18.47 12.88 19.11 13.98 19.57C15.69 20.3 17.29 20.47 18.61 19.92C19.12 19.71 19.57 19.39 19.98 18.93C20.21 18.68 20.39 18.41 20.54 18.09C20.66 17.84 20.72 17.58 20.72 17.32C20.72 17.16 20.69 17 20.61 16.82C20.58 16.76 20.52 16.65 20.33 16.52L17.01 14.16C16.81 14.02 16.63 13.92 16.46 13.85C16.24 13.76 16.15 13.67 15.81 13.88C15.61 13.98 15.43 14.13 15.23 14.33L14.47 15.08C14.08 15.46 13.48 15.55 13.02 15.38L12.75 15.26C12.34 15.04 11.86 14.7 11.33 14.25C10.85 13.84 10.33 13.36 9.7 12.74C9.21 12.24 8.72 11.71 8.21 11.12C7.74 10.57 7.4 10.1 7.19 9.71L7.07 9.41C7.01 9.18 6.99 9.05 6.99 8.91C6.99 8.55 7.12 8.23 7.37 7.98L8.12 7.2C8.32 7 8.47 6.81 8.57 6.64C8.65 6.51 8.68 6.4 8.68 6.3C8.68 6.22 8.65 6.1 8.6 5.98C8.53 5.82 8.42 5.64 8.28 5.45L5.96 2.17C5.86 2.03 5.74 1.93 5.59 1.86C5.43 1.79 5.26 1.75 5.09 1.75ZM13.45 14.01L13.29 14.69L13.56 13.99C13.51 13.98 13.47 13.99 13.45 14.01Z" fill="#173760"/>
<path d="M18 8.75C17.59 8.75 17.25 8.41 17.25 8C17.25 7.64 16.89 6.89 16.29 6.25C15.7 5.62 15.05 5.25 14.5 5.25C14.09 5.25 13.75 4.91 13.75 4.5C13.75 4.09 14.09 3.75 14.5 3.75C15.47 3.75 16.49 4.27 17.38 5.22C18.21 6.11 18.75 7.2 18.75 8C18.75 8.41 18.41 8.75 18 8.75Z" fill="#173760"/>
<path d="M21.5 8.75C21.09 8.75 20.75 8.41 20.75 8C20.75 4.55 17.95 1.75 14.5 1.75C14.09 1.75 13.75 1.41 13.75 1C13.75 0.59 14.09 0.25 14.5 0.25C18.77 0.25 22.25 3.73 22.25 8C22.25 8.41 21.91 8.75 21.5 8.75Z" fill="#173760"/>
</svg>
