<svg width="90" height="90" viewBox="0 0 90 90" fill="none" xmlns="http://www.w3.org/2000/svg">
<g clip-path="url(#clip0_675_1832)">
<path d="M89.1115 44.4097L74.7712 10.0868L60.9344 15.8681C61.108 14.2361 61.108 11.9271 60.2226 10.2604C58.2434 6.5625 53.6253 5.15625 49.9274 7.13542C46.2295 9.11458 44.8233 13.7326 46.8024 17.4306C47.4969 18.7326 48.5385 19.7917 49.8233 20.5035L35.0316 26.6667C34.7017 25.625 34.1983 24.6354 33.5559 23.75C33.7469 23.6458 33.9031 23.5243 34.0594 23.3681C34.424 23.0035 34.6497 22.5174 34.6497 21.9965L34.5802 16.2674H35.7608C36.0385 16.2674 36.299 16.1458 36.4899 15.9549C36.6983 15.7639 36.8024 15.4861 36.8024 15.2083L36.5941 0L34.5108 0.0347222L34.7017 14.184L6.87188 14.3924L6.6809 0L4.59757 0.0347222L4.78854 15.4687C4.8059 16.0417 5.25729 16.4757 5.83021 16.4931H7.04549C7.04549 16.5451 7.11493 22.2222 7.11493 22.2222C7.13229 22.8472 7.44479 23.4201 7.94826 23.7847L7.18438 25C6.88924 25.4687 6.48993 26.6319 6.48993 26.6319H6.47257L3.43438 37.9687L4.23299 40.434L3.10451 40.9375C2.06285 41.4062 1.22951 42.2569 0.830208 43.3333C0.430903 44.4097 0.465625 45.5903 0.934375 46.6319L16.3684 81.1111L30.8302 74.6354C31.351 74.4097 31.7156 73.9236 31.7677 73.3507C31.8198 72.7778 31.5594 72.2222 31.0906 71.9097C29.233 70.6076 27.9483 69.2014 27.5663 68.0555C26.5941 65.1736 28.1392 62.0312 31.0385 61.059C33.9205 60.0868 37.0628 61.6319 38.0351 64.5312C38.5038 65.9028 38.3997 67.4132 37.7573 68.7153C37.4795 69.2708 37.5837 69.9305 38.0177 70.3646C38.4344 70.816 39.0941 70.9549 39.6497 70.6944L51.6635 65.3125C52.2365 65.0694 52.7226 64.6528 53.0698 64.1319L54.8927 63.3854C55.101 65.1042 55.7434 66.7361 56.7677 68.1424C56.5767 68.2465 56.4205 68.3854 56.2642 68.5417C55.8823 68.9062 55.674 69.4097 55.674 69.9305L55.7608 75.6424H54.5802C54.3024 75.6424 54.042 75.7639 53.851 75.9549C53.6427 76.1458 53.5385 76.4236 53.5559 76.7014L53.7469 89.809H55.8302L55.6392 77.743L83.4691 77.5174L83.6601 89.8264H85.7434L85.5524 76.4757C85.5351 75.9028 85.0837 75.4514 84.5108 75.434H83.2955C83.2955 75.3993 83.3129 75.3472 83.3129 75.3125L83.2261 69.7222C83.2261 69.0972 82.9135 68.5069 82.3927 68.1597C82.792 67.5174 83.1045 67.0312 83.1566 66.9271C83.4517 66.4757 83.6774 65.9722 83.8163 65.434L83.851 65.3125H83.8684L86.9066 53.9583L85.7955 50.4514L86.8024 50.0347C88.9899 49.1319 90.0316 46.6493 89.1288 44.4618C89.1288 44.4444 89.1115 44.4271 89.1115 44.4097ZM16.3858 35L16.2122 35.2951C15.0316 37.3785 12.8962 38.2986 12.8788 38.2986L12.1149 38.6111C12.1149 38.6111 13.3128 45.8507 13.6427 47.9514C13.8337 49.2014 13.608 50.4861 12.983 51.5799C12.5316 52.2222 11.8024 52.6042 11.0212 52.6042C10.483 52.5868 10.2573 52.309 10.1705 52.1528L6.78507 41.5799L6.14271 39.5833L5.60451 37.9167L8.53854 26.9965C8.62535 26.684 8.76424 26.3889 8.93785 26.1111C8.93785 26.1111 9.47604 25.2431 10.0837 24.3056L31.1948 24.1319C32.0976 25.0868 32.7573 26.25 33.1219 27.5174L16.3858 35ZM32.1844 22.066H32.1497V22.0312L9.63229 22.2049C9.47604 22.2222 9.33715 22.1701 9.21563 22.0833V21.875L9.14618 16.6319C9.26771 16.5625 9.4066 16.5104 9.54549 16.5104L32.0976 16.3368C32.2538 16.3194 32.3927 16.3715 32.5142 16.4583L32.601 21.9444C32.4795 22.0139 32.3233 22.066 32.1844 22.066ZM50.8129 63.4028L40.1705 68.1771C41.1948 64.0972 38.7295 59.9653 34.6497 58.941C30.5698 57.9167 26.4378 60.3819 25.4135 64.4618C25.049 65.868 25.1184 67.3611 25.5698 68.7326C26.1601 70.4514 27.7399 71.9792 29.1809 73.0903L17.3927 78.368L2.80938 45.7812C2.56632 45.2431 2.54896 44.6354 2.77465 44.0799C2.98299 43.5243 3.39965 43.0903 3.93785 42.8472L4.85799 42.4306L8.26076 53.0382C8.7816 54.0278 9.78854 54.6701 10.917 54.6875C10.917 54.6875 13.6253 54.7396 14.7365 52.6736V52.6389C15.6045 51.1111 15.9344 49.3403 15.6566 47.6042C15.3962 45.9375 14.6844 41.5799 14.3892 39.8264C15.7781 39.0625 16.9587 37.9514 17.8267 36.6319L35.4483 28.7326C35.4483 28.7326 35.9344 28.4549 36.3163 28.5417C36.542 28.6285 36.7504 28.8889 36.8545 29.1146L42.3059 41.5799C42.5316 42.1528 43.1045 42.5 43.7122 42.4653C44.3198 42.4306 44.8406 42.0139 45.0316 41.441C45.5004 39.8611 46.6462 38.5937 48.174 37.9687C50.8823 36.7535 54.0767 37.9514 55.292 40.6597C56.4205 43.1597 55.5003 46.0938 53.1392 47.5C51.6288 48.3507 48.9899 48.1424 47.9309 48.0208C47.3753 47.9514 46.8198 48.1944 46.4726 48.6458C46.4726 48.6632 45.9691 49.2361 46.299 50.2257L51.4552 61.7187C51.6462 62.1528 51.5767 62.6736 51.2816 63.0382C51.1774 63.1944 51.0038 63.3333 50.8129 63.4028ZM81.1427 70.0174L81.2295 75.2604C81.108 75.3472 80.9691 75.3993 80.8129 75.3819L58.2608 75.5556C58.1045 75.5729 57.9656 75.5208 57.8441 75.434L57.7573 70.0347L81.1427 70.0174ZM81.8024 64.8958C81.7156 65.2083 81.5767 65.5035 81.4031 65.7812V65.816C81.4031 65.816 80.8823 66.6667 80.2747 67.6042L80.0663 67.934H59.3198L59.1462 67.7604C57.8094 66.3368 57.0108 64.4792 56.9066 62.5174L71.9413 56.25C71.6115 56.8403 71.299 57.4653 71.0038 58.0903L72.8962 58.9757C73.2781 58.1597 73.6948 57.3611 74.1288 56.5972C74.5629 55.8333 75.1531 55.1736 75.8302 54.6181C76.3337 54.2014 76.8719 53.8715 77.4622 53.5938L78.226 53.2812L78.1045 52.4653C78.0872 52.4479 78.0351 52.066 77.9309 51.4931C77.6184 49.6181 76.9587 45.5556 76.6983 43.9583C76.5073 42.7083 76.733 41.4236 77.358 40.3299C77.8094 39.6875 78.5385 39.2882 79.3198 39.2882C79.858 39.3056 80.0837 39.5833 80.1705 39.7569L83.2261 49.2708L83.8684 51.2674L84.7365 53.9931L81.8024 64.8958ZM87.2017 46.9097C86.976 47.4479 86.542 47.8819 86.0038 48.1076L85.1531 48.4722L82.0629 38.8542C81.542 37.8646 80.5351 37.2396 79.424 37.2049C76.7504 37.2743 75.5872 39.2361 75.5872 39.2361C74.7191 40.7639 74.3892 42.5347 74.667 44.2708C74.9274 45.9549 75.6392 50.2951 75.9344 52.0486C75.5351 52.2743 75.1531 52.5347 74.7885 52.8125L53.608 61.6667C53.5559 61.3889 48.7295 50.5208 48.7295 50.5208C50.4483 50.6424 52.4274 50.5556 53.9031 49.7743L54.5629 49.375C55.3615 48.8368 56.0559 48.1597 56.5941 47.3611L56.8198 47.0139C57.2191 46.3542 57.5142 45.6424 57.7052 44.8958C57.7226 44.8611 57.7226 44.8264 57.7226 44.7917H57.7399C57.9309 44.1146 58.0177 43.4201 58.0177 42.7083C58.0177 41.9444 57.8962 41.1632 57.6705 40.434C56.4205 36.4236 52.1497 34.2014 48.1392 35.4514C46.2122 36.059 44.5976 37.4132 43.6601 39.2187L42.4274 36.4583C42.0281 35.4688 39.3719 29.6354 38.7816 28.2812C38.6427 28.0208 38.4865 27.7604 38.2955 27.5347L52.0281 21.875C52.601 21.6319 52.9483 21.059 52.9135 20.4514C52.8962 19.8438 52.4795 19.3229 51.9066 19.1493C48.9899 18.2639 47.3406 15.191 48.226 12.2569C48.3129 11.9792 48.417 11.7188 48.5385 11.4583C49.2156 10.0347 50.4656 8.95833 51.9934 8.54167C54.4934 7.82986 57.1497 8.94097 58.3823 11.2326C59.1983 12.7604 58.9205 15.3819 58.7642 16.441C58.6948 17.0139 58.9205 17.5694 59.3719 17.9167C59.8233 18.2639 60.4135 18.3507 60.9344 18.125L73.6427 12.8125L87.1844 45.2083C87.4274 45.7465 87.4274 46.3715 87.2017 46.9097Z" fill="#7A1129"/>
<path d="M23.8669 81.5807L22.0156 82.5361L24.4201 87.1951L26.2713 86.2397L23.8669 81.5807Z" fill="#7A1129"/>
<path d="M9.38884 81.6646L6.98438 86.3236L8.83563 87.279L11.2401 82.62L9.38884 81.6646Z" fill="#7A1129"/>
<path d="M15.6125 84.6485L15.4844 89.89L17.5671 89.9409L17.6952 84.6994L15.6125 84.6485Z" fill="#7A1129"/>
<path d="M67.9138 2.94058L66.0625 3.896L68.467 8.55498L70.3182 7.59956L67.9138 2.94058Z" fill="#7A1129"/>
<path d="M83.4982 3.01046L81.0938 7.66943L82.945 8.62485L85.3495 3.96587L83.4982 3.01046Z" fill="#7A1129"/>
<path d="M74.6515 0.225312L74.5234 5.4668L76.6061 5.5177L76.7342 0.276212L74.6515 0.225312Z" fill="#7A1129"/>
</g>
<defs>
<clipPath id="clip0_675_1832">
<rect width="90" height="90" fill="white"/>
</clipPath>
</defs>
</svg>
