<svg width="31" height="30" viewBox="0 0 31 30" fill="none" xmlns="http://www.w3.org/2000/svg">
<path d="M29 18C28.6022 18 28.2206 18.158 27.9393 18.4393C27.658 18.7206 27.5 19.1022 27.5 19.5V25.5C27.5 25.8978 27.342 26.2794 27.0607 26.5607C26.7794 26.842 26.3978 27 26 27H5C4.60218 27 4.22064 26.842 3.93934 26.5607C3.65804 26.2794 3.5 25.8978 3.5 25.5V19.5C3.5 19.1022 3.34196 18.7206 3.06066 18.4393C2.77936 18.158 2.39782 18 2 18C1.60218 18 1.22064 18.158 0.93934 18.4393C0.658035 18.7206 0.5 19.1022 0.5 19.5V25.5C0.5 26.6935 0.974106 27.8381 1.81802 28.682C2.66193 29.5259 3.80653 30 5 30H26C27.1935 30 28.3381 29.5259 29.182 28.682C30.0259 27.8381 30.5 26.6935 30.5 25.5V19.5C30.5 19.1022 30.342 18.7206 30.0607 18.4393C29.7794 18.158 29.3978 18 29 18ZM14.435 20.565C14.5777 20.7016 14.7459 20.8086 14.93 20.88C15.1096 20.9594 15.3037 21.0003 15.5 21.0003C15.6963 21.0003 15.8904 20.9594 16.07 20.88C16.2541 20.8086 16.4223 20.7016 16.565 20.565L22.565 14.565C22.8475 14.2825 23.0061 13.8995 23.0061 13.5C23.0061 13.1005 22.8475 12.7175 22.565 12.435C22.2825 12.1525 21.8995 11.9939 21.5 11.9939C21.1005 11.9939 20.7175 12.1525 20.435 12.435L17 15.885V1.5C17 1.10218 16.842 0.720644 16.5607 0.43934C16.2794 0.158035 15.8978 0 15.5 0C15.1022 0 14.7206 0.158035 14.4393 0.43934C14.158 0.720644 14 1.10218 14 1.5V15.885L10.565 12.435C10.4251 12.2951 10.2591 12.1842 10.0764 12.1085C9.89364 12.0328 9.69779 11.9939 9.5 11.9939C9.30221 11.9939 9.10636 12.0328 8.92363 12.1085C8.74089 12.1842 8.57486 12.2951 8.435 12.435C8.29514 12.5749 8.1842 12.7409 8.10851 12.9236C8.03282 13.1064 7.99386 13.3022 7.99386 13.5C7.99386 13.6978 8.03282 13.8936 8.10851 14.0764C8.1842 14.2591 8.29514 14.4251 8.435 14.565L14.435 20.565Z" fill="#7A1129"/>
</svg>
