<svg width="90" height="90" viewBox="0 0 90 90" fill="none" xmlns="http://www.w3.org/2000/svg">
<path d="M2.8125 77.3494H4.95C5.09625 77.7656 5.26641 78.172 5.45484 78.57L3.94312 80.0817C3.67875 80.3461 3.53109 80.7033 3.53109 81.0759C3.53109 81.4486 3.67875 81.8072 3.94312 82.0702L7.92844 86.0555C8.45578 86.5828 9.38953 86.5828 9.91687 86.0555L11.43 84.5423C11.828 84.7322 12.2344 84.8995 12.6492 85.0458V87.1875C12.6492 87.9638 13.2792 88.5938 14.0555 88.5938H19.6917C20.468 88.5938 21.098 87.9638 21.098 87.1875V85.043C21.5114 84.8967 21.9178 84.728 22.313 84.5395L23.8303 86.0569C24.0947 86.3212 24.4519 86.4689 24.8245 86.4689C25.1972 86.4689 25.5558 86.3212 25.8188 86.0569L29.8041 82.0716C30.0684 81.8072 30.2161 81.45 30.2161 81.0773C30.2161 80.7047 30.0684 80.3461 29.8041 80.0831L28.2853 78.5644C28.4738 78.1692 28.6411 77.7642 28.7873 77.3508H30.9375C31.7138 77.3508 32.3438 76.7208 32.3438 75.9445V70.3083C32.3438 69.532 31.7138 68.902 30.9375 68.902H28.7887C28.6425 68.4886 28.4752 68.0836 28.2867 67.6884L29.8055 66.1697C30.0698 65.9053 30.2175 65.5481 30.2175 65.1755C30.2175 64.8028 30.0698 64.4442 29.8055 64.1812L25.8202 60.1959C25.2928 59.6686 24.3591 59.6686 23.8317 60.1959L22.3144 61.7133C21.9192 61.5248 21.5128 61.3575 21.0994 61.2098V59.0625C21.0994 58.2862 20.4694 57.6562 19.6931 57.6562H14.0569C13.2806 57.6562 12.6506 58.2862 12.6506 59.0625V61.2028C12.2358 61.3491 11.8294 61.5178 11.4314 61.7063L9.91828 60.1931C9.65391 59.9288 9.29672 59.7811 8.92406 59.7811C8.55141 59.7811 8.19281 59.9288 7.92984 60.1931L3.94453 64.1784C3.68016 64.4428 3.5325 64.8 3.5325 65.1727C3.5325 65.5453 3.68016 65.9039 3.94453 66.1669L5.45625 67.6786C5.26641 68.078 5.09766 68.4844 4.95 68.9006H2.8125C2.03625 68.9006 1.40625 69.5306 1.40625 70.3069V75.9431C1.40625 76.7194 2.03625 77.3494 2.8125 77.3494ZM4.21875 71.7131H5.98922C6.63047 71.7131 7.19016 71.2786 7.35047 70.6584C7.57969 69.7711 7.93125 68.9217 8.39531 68.1356C8.72156 67.583 8.63156 66.8798 8.17875 66.427L6.92578 65.1741L8.92266 63.1772L10.1756 64.4316C10.627 64.8844 11.3288 64.9744 11.8842 64.6481C12.6703 64.1855 13.5183 63.8339 14.4056 63.6061C15.0272 63.4458 15.4603 62.8861 15.4603 62.2448V60.4688H18.2841V62.2463C18.2841 62.8875 18.7172 63.4472 19.3373 63.6075C20.2261 63.8381 21.0727 64.1897 21.8573 64.6523C22.4086 64.9772 23.1145 64.8886 23.5659 64.4358L24.8231 63.1772L26.82 65.1741L25.56 66.4341C25.1072 66.8869 25.0172 67.59 25.3434 68.1427C25.8047 68.9259 26.1548 69.7725 26.3841 70.6613C26.5444 71.2814 27.1041 71.7159 27.7453 71.7159H29.5312V74.5397H27.7495C27.1083 74.5397 26.5486 74.9728 26.3883 75.5944C26.1591 76.4817 25.8075 77.3297 25.3477 78.113C25.0214 78.6656 25.1114 79.3688 25.5642 79.8216L26.8228 81.0802L24.8259 83.077L23.5688 81.8156C23.1173 81.3628 22.4128 81.2728 21.8602 81.5991C21.0769 82.0617 20.2289 82.4133 19.3402 82.6439C18.72 82.8042 18.2869 83.3639 18.2869 84.0052V85.7812H15.4631V84.0066C15.4631 83.3653 15.0286 82.8056 14.4084 82.6453C13.5211 82.4161 12.6717 82.0659 11.887 81.6033C11.3316 81.2784 10.6298 81.3684 10.1784 81.8198L8.92547 83.0728L6.92859 81.0759L8.18016 79.8244C8.63438 79.3716 8.72297 78.6684 8.39672 78.1158C7.93266 77.3283 7.58109 76.4803 7.35188 75.593C7.19156 74.9728 6.63188 74.5383 5.99063 74.5383H4.21875V71.7131Z" fill="#7A1129"/>
<path d="M16.875 80.1562C20.752 80.1562 23.9062 77.002 23.9062 73.125C23.9062 69.248 20.752 66.0938 16.875 66.0938C12.998 66.0938 9.84375 69.248 9.84375 73.125C9.84375 77.002 12.998 80.1562 16.875 80.1562ZM16.875 68.9062C19.2009 68.9062 21.0938 70.7991 21.0938 73.125C21.0938 75.4509 19.2009 77.3438 16.875 77.3438C14.5491 77.3438 12.6562 75.4509 12.6562 73.125C12.6562 70.7991 14.5491 68.9062 16.875 68.9062Z" fill="#7A1129"/>
<path d="M88.5188 8.81156C88.3515 8.31234 87.9184 7.94672 87.3981 7.86797L82.3102 7.09172L80.0223 2.21625C79.7902 1.72125 79.2938 1.40625 78.7482 1.40625C78.2026 1.40625 77.7062 1.72125 77.4756 2.21484L75.1876 7.09031L70.0998 7.86656C69.5781 7.94672 69.1463 8.31094 68.979 8.81016C68.8117 9.30937 68.9382 9.86203 69.3052 10.2389L73.0276 14.0541L72.1473 19.4597C72.0601 19.9913 72.2851 20.5256 72.7252 20.8364C73.1654 21.1458 73.7434 21.1767 74.2159 20.918L78.7482 18.412L83.282 20.918C83.4943 21.0347 83.7291 21.0938 83.9626 21.0938C84.2466 21.0938 84.5307 21.0066 84.7726 20.8364C85.2127 20.527 85.4377 19.9913 85.3506 19.4597L84.4702 14.0541L88.1926 10.2389C88.561 9.86344 88.6862 9.31219 88.5188 8.81156ZM81.9601 12.6C81.6479 12.9192 81.5073 13.3678 81.579 13.808L82.1077 17.055L79.4274 15.5742C79.2165 15.4575 78.9817 15.3984 78.7468 15.3984C78.512 15.3984 78.2785 15.4575 78.0662 15.5742L75.3859 17.055L75.9146 13.808C75.9863 13.3678 75.8457 12.9192 75.5335 12.6L73.2259 10.2347L76.3506 9.75797C76.8146 9.68625 77.2126 9.38953 77.4109 8.96484L78.7482 6.12281L80.0827 8.96484C80.2824 9.38953 80.6804 9.68625 81.1431 9.75797L84.2677 10.2347L81.9601 12.6Z" fill="#7A1129"/>
<path d="M66.6246 18.3881C65.8596 18.2714 65.0693 18.4739 64.459 18.952L53.4256 27.5835C54.0317 26.4178 54.3115 25.1085 54.199 23.767C54.0415 21.8953 53.164 20.1979 51.7282 18.9857C50.2925 17.7736 48.4742 17.1956 46.601 17.3517C44.7293 17.5106 43.032 18.3881 41.8198 19.8225C40.609 21.2582 40.0282 23.0779 40.1857 24.9496C40.3207 26.5359 40.9957 27.9773 42.0645 29.1234C40.4276 29.5284 38.9834 30.4973 38.0145 31.8825L26.9346 47.0053C26.3018 47.9095 26.2512 49.0654 26.8024 50.0217C27.3523 50.9765 28.3704 51.5081 29.4771 51.4209L32.8465 51.1354C33.6649 51.0665 34.4103 50.6446 34.8701 50.0048L41.5596 41.2045L42.0659 47.2092L38.7429 70.0017C37.4885 70.259 36.2285 70.4896 34.9615 70.6668L35.351 73.4512C39.7639 72.8339 44.119 71.7496 48.2942 70.2267C56.3942 67.2735 62.8685 63.0224 67.8607 58.7545L68.1757 58.6603L68.1321 58.514C72.9485 54.3487 76.3629 50.1904 78.4878 47.2246C78.7592 46.845 78.8253 46.357 78.6635 45.921C78.5032 45.4837 78.1362 45.1546 77.6848 45.0421L75.5164 44.4993L83.4124 40.1132L85.2771 48.5057L83.4153 47.8856C82.8092 47.6831 82.1468 47.9151 81.7967 48.4453L81.5632 48.7968C63.8853 75.711 44.2343 82.236 30.8609 82.9701L31.0142 85.7784C44.9403 85.0134 65.3182 78.3239 83.5475 50.8936L86.741 51.9581C87.2206 52.1198 87.7507 52.0073 88.1276 51.6684C88.5045 51.3295 88.6676 50.8134 88.5579 50.3198L85.7454 37.6636C85.6498 37.2304 85.3545 36.8676 84.9495 36.6862C84.5445 36.5062 84.079 36.5231 83.6895 36.7396L71.0332 43.7709C70.5284 44.0507 70.2471 44.6118 70.3231 45.1842C70.3976 45.7565 70.8167 46.2248 71.3764 46.364L74.9553 47.2584C73.1004 49.6575 70.5396 52.5782 67.2448 55.544L64.7374 47.1332C64.504 46.4104 63.9795 45.8043 63.3284 45.4851L57.5473 42.4743L56.6431 35.6006L69.5187 25.7906C70.7098 24.885 70.9826 23.2059 70.1389 21.9698L68.5132 19.582C68.0801 18.9436 67.391 18.5076 66.6246 18.3881ZM46.8373 20.1557C46.9582 20.1459 47.0792 20.1403 47.2001 20.1403C48.1943 20.1403 49.1464 20.4876 49.9142 21.1359C50.7748 21.8629 51.3007 22.8811 51.3964 24.0046C51.4906 25.1282 51.1432 26.2209 50.4162 27.0815C49.6892 27.9421 48.671 28.4695 47.5475 28.5637C46.4225 28.6607 45.3312 28.3106 44.4706 27.5835C43.6099 26.8565 43.0826 25.8384 42.9884 24.7148C42.7929 22.3959 44.5198 20.3512 46.8373 20.1557ZM48.7484 67.0317L51.6748 50.144L56.8442 52.6528L59.9 61.2309C56.6417 63.3853 52.9306 65.3835 48.7484 67.0317ZM54.2932 33.8582C53.8925 34.1634 53.6857 34.6598 53.7504 35.1604L54.8557 43.5684C54.9162 44.0226 55.1932 44.4206 55.601 44.6315L62.0529 47.9671L64.9104 57.5535C64.0793 58.2314 63.2032 58.9035 62.292 59.5701L59.4767 51.667C59.2179 51.0117 58.7285 50.4815 58.0985 50.1735L51.2262 46.8014C50.8296 46.6073 50.3642 46.6115 49.9676 46.8112C49.5725 47.0123 49.2954 47.3878 49.2209 47.8237L45.7024 68.1328C44.3778 68.5729 43.039 68.9779 41.6848 69.3267L44.8742 47.4581C44.8896 47.3512 44.8924 47.2443 44.884 47.136L44.0557 37.3275C44.0065 36.7467 43.6057 36.2573 43.0474 36.0956C42.4878 35.931 41.8873 36.1321 41.5357 36.5948L32.6117 48.3356L29.224 48.645L40.3039 33.5221C41.0239 32.4942 42.1545 31.8431 43.406 31.7362L47.7837 31.3664H47.7865L53.3918 30.8925C53.6646 30.8686 53.9248 30.7673 54.14 30.5986L66.1943 21.1682L67.8214 23.556L54.2932 33.8582Z" fill="#7A1129"/>
<path d="M5.625 2.8125H8.4375V5.625H5.625V2.8125Z" fill="#7A1129"/>
<path d="M8.4375 5.625H11.25V8.4375H8.4375V5.625Z" fill="#7A1129"/>
<path d="M2.8125 5.625H5.625V8.4375H2.8125V5.625Z" fill="#7A1129"/>
<path d="M5.625 8.4375H8.4375V11.25H5.625V8.4375Z" fill="#7A1129"/>
<path d="M16.875 7.03125H19.6875V9.84375H16.875V7.03125Z" fill="#7A1129"/>
<path d="M19.6875 9.84375H22.5V12.6562H19.6875V9.84375Z" fill="#7A1129"/>
<path d="M14.0625 9.84375H16.875V12.6562H14.0625V9.84375Z" fill="#7A1129"/>
<path d="M16.875 12.6562H19.6875V15.4688H16.875V12.6562Z" fill="#7A1129"/>
<path d="M81.5625 78.75H84.375V81.5625H81.5625V78.75Z" fill="#7A1129"/>
<path d="M84.375 81.5625H87.1875V84.375H84.375V81.5625Z" fill="#7A1129"/>
<path d="M78.75 81.5625H81.5625V84.375H78.75V81.5625Z" fill="#7A1129"/>
<path d="M81.5625 84.375H84.375V87.1875H81.5625V84.375Z" fill="#7A1129"/>
</svg>
