<svg width="146" height="145" viewBox="0 0 146 145" fill="none" xmlns="http://www.w3.org/2000/svg">
<g opacity="0.1">
<path d="M58.7563 99.7292C56.9758 100.093 55.6404 100.457 54.305 101.185C52.5245 99.0012 51.1893 96.4534 49.4088 94.6335C46.2929 90.9938 42.7318 87.718 39.616 84.0782C34.7196 78.6186 30.7135 73.159 28.933 66.2434C24.9269 49.1366 36.5 32.3937 56.5307 25.8422C82.793 17.1068 113.062 31.6658 117.068 54.5962C118.848 65.1515 114.842 73.8869 107.72 82.2583C104.604 85.8981 100.598 89.5379 97.4822 93.5416C95.2566 96.0894 93.9213 98.6372 91.6956 101.185C90.8054 102.277 89.9151 103.369 88.5797 103.733C78.3418 107.009 68.104 109.92 57.8661 112.832C56.5307 113.196 55.6405 112.832 55.1953 112.104C54.7502 111.012 54.7503 109.92 56.0856 109.556C56.9759 109.193 57.866 108.829 58.7563 108.829C67.6588 106.281 76.5613 103.733 85.4638 100.821C86.354 100.457 87.2443 99.7292 87.6894 99.0012C91.2504 93.5416 95.7017 89.1739 100.153 84.0782C104.604 79.3465 108.61 74.9788 110.391 69.1552C114.842 57.508 111.726 47.3167 101.933 38.5813C90.8053 28.39 76.5614 25.1142 60.5369 29.1179C44.5124 33.1217 35.6098 42.2211 32.4939 55.6881C30.2683 65.1515 34.2744 73.159 40.9513 80.4385C44.9574 84.8062 48.9636 89.1739 52.9697 93.5416C55.6405 94.9975 56.9758 97.1813 58.7563 99.7292Z" fill="#173760"/>
<path d="M56.5306 135.762C56.0855 135.398 55.1953 135.034 55.1953 134.306C55.1953 133.579 55.6405 132.851 56.0856 132.123C56.0856 131.759 56.9758 131.759 57.4209 131.759C67.2137 128.847 77.4516 125.935 87.2444 123.023C89.47 122.295 90.3602 122.659 90.8053 123.751C91.2504 124.843 90.3602 125.935 88.5797 126.663C78.3418 129.575 68.5491 132.487 58.3112 135.762C57.8661 135.398 57.4209 135.398 56.5306 135.762Z" fill="#173760"/>
<path d="M56.5306 123.752C56.0855 123.388 55.1953 123.024 55.1953 122.296C55.1953 121.568 55.6405 120.84 56.0856 120.112C56.0856 119.748 56.9758 119.748 57.4209 119.748C67.2137 116.836 77.4516 113.924 87.2444 111.013C89.47 110.285 90.3602 110.649 90.8053 111.74C91.2504 112.832 90.8053 113.924 88.5797 114.652C78.3418 117.564 68.5491 120.84 58.3112 123.752C57.8661 123.752 57.4209 123.752 56.5306 123.752Z" fill="#173760"/>
<path d="M88.5806 133.943C85.4647 142.679 68.1049 147.774 57.4219 143.043C67.6597 140.131 77.8976 136.855 88.5806 133.943Z" fill="#173760"/>
<path d="M75.2247 6.55156C75.2247 8.00746 75.2247 9.46336 75.2247 10.9193C75.2247 12.0112 74.3344 12.7391 72.9991 12.7391C71.6637 12.7391 70.7734 12.0112 70.7734 10.9193C70.7734 8.00746 70.7734 5.09566 70.7734 1.81988C70.7734 0.727951 71.6637 0 72.9991 0C74.3344 0 75.2247 0.727951 75.2247 1.81988C75.2247 3.27578 75.2247 5.09566 75.2247 6.55156Z" fill="#173760"/>
<path d="M8.0122 57.5082C9.7927 57.5082 11.5732 57.5082 13.3538 57.5082C15.1343 57.5082 16.0245 58.2362 16.0245 59.3281C16.0245 60.42 15.1343 61.148 13.3538 61.148C9.79275 61.148 6.23178 61.148 2.67078 61.148C0.890277 61.148 0 60.42 0 59.3281C0 58.2362 0.890277 57.5082 2.67078 57.5082C4.45128 57.5082 6.2317 57.5082 8.0122 57.5082Z" fill="#173760"/>
<path d="M137.989 61.5118C136.209 61.5118 134.428 61.5118 132.647 61.5118C131.312 61.5118 130.422 60.7839 130.422 59.6919C130.422 58.6 131.312 57.8721 132.647 57.8721C136.208 57.8721 140.215 57.8721 143.776 57.8721C145.111 57.8721 146.001 58.6 146.001 59.6919C146.001 60.7839 145.111 61.5118 143.776 61.5118C141.55 61.5118 139.77 61.5118 137.989 61.5118Z" fill="#173760"/>
<path d="M22.2577 16.0151C23.1479 16.3791 23.593 16.7431 24.0381 17.1071C26.7089 19.2909 28.9346 21.1108 31.6053 23.2946C32.9407 24.3866 32.9407 25.1145 31.6053 26.2064C30.7151 26.9344 29.3796 26.9344 28.0442 26.2064C25.3735 24.0226 22.7028 22.2027 20.4772 20.0189C20.0321 19.6549 19.5869 18.563 20.032 17.835C20.4772 16.7431 21.8125 16.3791 22.2577 16.0151Z" fill="#173760"/>
<path d="M125.967 18.1987C125.522 18.9266 125.077 19.2906 124.632 19.6546C121.961 21.8384 119.735 23.6583 117.065 25.8421C116.174 26.5701 114.839 26.9341 113.504 25.8421C112.613 25.1142 112.613 24.0223 113.504 22.9303C116.174 20.7465 118.4 18.5626 121.071 16.7428C121.516 16.3788 122.851 16.0148 123.741 16.3788C124.632 16.7428 125.077 17.8347 125.967 18.1987Z" fill="#173760"/>
<path d="M22.2556 102.641C21.8105 102.277 20.9203 101.913 20.4752 101.185C20.0301 100.821 20.4752 99.7293 20.4752 99.3653C23.1459 97.1815 25.8166 94.6336 28.9325 92.4498C29.8228 91.7218 31.1581 91.7218 32.0483 92.4498C32.9386 93.1777 32.9386 94.2697 32.0483 94.9976C29.3776 97.1815 26.7069 99.3653 24.0361 101.549C23.591 102.277 23.1459 102.641 22.2556 102.641Z" fill="#173760"/>
</g>
</svg>
