<svg width="52" height="62" viewBox="0 0 52 62" fill="none" xmlns="http://www.w3.org/2000/svg">
<path d="M38.5274 22.0358H35.6439C35.4681 21.5116 35.2438 21.0028 34.9736 20.5153L37.0124 18.6004C37.138 18.483 37.2376 18.3434 37.3055 18.1896C37.3733 18.0358 37.4079 17.8709 37.4074 17.7045C37.4074 17.3659 37.2672 17.0476 37.0124 16.8084L34.6129 14.5548C34.0869 14.061 33.231 14.0608 32.7048 14.5549L30.6659 16.4698C30.1468 16.2159 29.6051 16.0053 29.0469 15.8403V13.132C29.0468 12.4334 28.4415 11.8648 27.6974 11.8648H24.304C23.5601 11.8648 22.9548 12.4333 22.9548 13.132V15.8403C22.3966 16.0054 21.8548 16.216 21.3357 16.4698L19.2967 14.5548C18.7706 14.0609 17.9147 14.061 17.3886 14.5549L14.9893 16.8082C14.8636 16.9256 14.7639 17.0653 14.6961 17.2191C14.6282 17.3729 14.5935 17.5378 14.594 17.7043C14.594 18.0428 14.7344 18.361 14.9892 18.6003L17.0281 20.5152C16.7578 21.0027 16.5336 21.5115 16.3578 22.0357H13.4742C12.7303 22.0357 12.125 22.6042 12.125 23.3029V26.49C12.125 27.1886 12.7303 27.7571 13.4742 27.7571H16.3578C16.5336 28.2813 16.7579 28.7901 17.0281 29.2776L14.9892 31.1925C14.4631 31.6865 14.4631 32.4905 14.9892 32.9845L17.3886 35.238C17.9147 35.7322 18.7708 35.7321 19.2968 35.238L21.3357 33.3231C21.8548 33.577 22.3966 33.7876 22.9548 33.9526V36.6609C22.9548 37.3595 23.5601 37.928 24.304 37.928H27.6974C28.4414 37.928 29.0468 37.3595 29.0468 36.6609V33.9526C29.6049 33.7876 30.1467 33.5769 30.6657 33.3231L32.7046 35.238C33.2308 35.7322 34.0869 35.7321 34.6129 35.238L37.0122 32.9845C37.1379 32.8671 37.2375 32.7275 37.3053 32.5737C37.3731 32.4199 37.4078 32.255 37.4073 32.0886C37.4073 31.7501 37.267 31.4319 37.0122 31.1925L34.9733 29.2776C35.2436 28.7901 35.4679 28.2813 35.6436 27.7571H38.5272C39.2712 27.7571 39.8766 27.1886 39.8766 26.49V23.3029C39.8767 22.6043 39.2713 22.0358 38.5274 22.0358ZM37.9726 25.9687H34.9184C34.7035 25.9687 34.495 26.0369 34.3267 26.1623C34.1584 26.2877 34.0402 26.4628 33.9913 26.6593C33.7894 27.4717 33.4473 28.2477 32.9785 28.9564C32.8651 29.1278 32.8168 29.3302 32.8414 29.5306C32.866 29.7311 32.962 29.9178 33.1139 30.0605L35.2734 32.0887L33.6589 33.605L31.4994 31.5768C31.3475 31.4341 31.1486 31.3439 30.9351 31.3207C30.7217 31.2976 30.5061 31.343 30.3236 31.4495C29.569 31.8897 28.7429 32.211 27.8778 32.4008C27.6686 32.4467 27.4821 32.5578 27.3487 32.7158C27.2152 32.8739 27.1425 33.0698 27.1425 33.2715V36.1401H24.8594V33.2715C24.8594 33.0698 24.7867 32.8739 24.6533 32.7159C24.5198 32.5578 24.3333 32.4468 24.1241 32.4008C23.259 32.2112 22.4327 31.8899 21.6782 31.4495C21.4957 31.3431 21.2802 31.2978 21.0668 31.3209C20.8533 31.344 20.6545 31.4342 20.5025 31.5768L18.343 33.605L16.7285 32.0887L18.888 30.0605C19.0399 29.9178 19.136 29.7311 19.1606 29.5306C19.1852 29.3302 19.1369 29.1278 19.0236 28.9564C18.5549 28.2477 18.2127 27.4717 18.0108 26.6593C17.9619 26.4628 17.8437 26.2877 17.6754 26.1623C17.507 26.0369 17.2985 25.9687 17.0837 25.9687H14.0295V23.8244H17.0837C17.2985 23.8244 17.507 23.7562 17.6754 23.6308C17.8437 23.5055 17.9619 23.3303 18.0108 23.1339C18.2127 22.3214 18.5549 21.5455 19.0236 20.8368C19.1369 20.6653 19.1852 20.463 19.1606 20.2625C19.136 20.0621 19.0399 19.8753 18.888 19.7326L16.7285 17.7045L18.343 16.1882L20.5025 18.2163C20.6545 18.359 20.8533 18.4492 21.0668 18.4724C21.2802 18.4955 21.4957 18.4501 21.6782 18.3436C22.4328 17.9034 23.259 17.5821 24.1241 17.3924C24.3333 17.3465 24.5198 17.2355 24.6533 17.0774C24.7868 16.9193 24.8594 16.7235 24.8594 16.5217V13.6532H27.1425V16.5217C27.1425 16.7235 27.2152 16.9193 27.3487 17.0774C27.4822 17.2355 27.6687 17.3465 27.8778 17.3924C28.7429 17.5821 29.5691 17.9034 30.3237 18.3436C30.5063 18.45 30.7218 18.4953 30.9352 18.4722C31.1486 18.449 31.3474 18.3589 31.4994 18.2163L33.6589 16.1882L35.2734 17.7045L33.1139 19.7326C32.962 19.8753 32.8659 20.0621 32.8414 20.2625C32.8168 20.463 32.8651 20.6654 32.9785 20.8368C33.4472 21.5455 33.7893 22.3214 33.9913 23.1339C34.0402 23.3303 34.1584 23.5055 34.3267 23.6308C34.495 23.7562 34.7035 23.8244 34.9184 23.8244H37.9726V25.9687Z" fill="#7A1129"/>
<path d="M25.9999 20.1061C23.1873 20.1061 20.8992 22.2551 20.8992 24.8965C20.8992 27.538 23.1874 29.687 25.9999 29.687C28.8125 29.687 31.1007 27.538 31.1007 24.8965C31.1007 22.2551 28.8126 20.1061 25.9999 20.1061ZM25.9999 27.8986C24.2374 27.8986 22.8034 26.5519 22.8034 24.8965C22.8034 23.2412 24.2374 21.8944 25.9999 21.8944C27.7625 21.8944 29.1965 23.2412 29.1965 24.8965C29.1965 26.5519 27.7625 27.8986 25.9999 27.8986ZM4.11082 24.0023H0.952109C0.699594 24.0023 0.457421 24.0966 0.278866 24.2643C0.100311 24.4319 0 24.6594 0 24.8965C0 25.1337 0.100311 25.3611 0.278866 25.5288C0.457421 25.6965 0.699594 25.7907 0.952109 25.7907H4.11082C4.36334 25.7907 4.60551 25.6965 4.78407 25.5288C4.96262 25.3611 5.06293 25.1337 5.06293 24.8965C5.06293 24.6594 4.96262 24.4319 4.78407 24.2643C4.60551 24.0966 4.36334 24.0023 4.11082 24.0023ZM51.0479 24.0023H47.8892C47.3632 24.0023 46.9371 24.4027 46.9371 24.8965C46.9371 25.3904 47.3632 25.7907 47.8892 25.7907H51.0479C51.3004 25.7907 51.5426 25.6965 51.7211 25.5288C51.8997 25.3611 52 25.1337 52 24.8965C52 24.6594 51.8997 24.4319 51.7211 24.2643C51.5426 24.0966 51.3004 24.0023 51.0479 24.0023ZM11.1951 38.8008C11.1067 38.7177 11.0018 38.6518 10.8863 38.6069C10.7707 38.562 10.6469 38.5388 10.5219 38.5388C10.3968 38.5388 10.273 38.562 10.1575 38.6069C10.042 38.6518 9.93703 38.7177 9.84861 38.8008L7.61509 40.8984C7.43653 41.0661 7.33622 41.2936 7.33622 41.5307C7.33622 41.7679 7.43653 41.9953 7.61509 42.163C7.79366 42.3307 8.03584 42.4249 8.28836 42.4249C8.54089 42.4249 8.78307 42.3307 8.96163 42.163L11.1951 40.0654C11.2836 39.9823 11.3537 39.8838 11.4016 39.7753C11.4494 39.6668 11.474 39.5505 11.474 39.4331C11.474 39.3156 11.4494 39.1993 11.4016 39.0909C11.3537 38.9824 11.2836 38.8838 11.1951 38.8008ZM44.3848 7.63029C44.2062 7.4626 43.964 7.3684 43.7114 7.3684C43.4589 7.3684 43.2167 7.4626 43.0381 7.63029L40.8046 9.72794C40.626 9.89566 40.5257 10.1231 40.5257 10.3603C40.5257 10.5975 40.6261 10.8249 40.8047 10.9926C40.9832 11.1603 41.2254 11.2545 41.478 11.2545C41.7305 11.2545 41.9727 11.1603 42.1513 10.9926L44.3848 8.89491C44.4732 8.81188 44.5433 8.7133 44.5912 8.60481C44.639 8.49632 44.6637 8.38003 44.6637 8.2626C44.6637 8.14517 44.639 8.02888 44.5912 7.92039C44.5433 7.8119 44.4732 7.71332 44.3848 7.63029ZM26.0001 0.47818C25.7475 0.47818 25.5054 0.572389 25.3268 0.740083C25.1483 0.907776 25.048 1.13522 25.048 1.37237V4.33894C25.048 4.83278 25.4741 5.23314 26.0001 5.23314C26.526 5.23314 26.9522 4.83278 26.9522 4.33894V1.37237C26.9522 1.13522 26.8519 0.907776 26.6733 0.740083C26.4947 0.572389 26.2526 0.47818 26.0001 0.47818ZM44.3848 40.8984L42.1513 38.8008C41.9716 38.6383 41.7312 38.5485 41.4817 38.5507C41.2323 38.553 40.9938 38.647 40.8174 38.8126C40.641 38.9783 40.5408 39.2023 40.5385 39.4366C40.5361 39.6708 40.6316 39.8966 40.8046 40.0654L43.0381 42.163C43.2178 42.3255 43.4582 42.4153 43.7076 42.413C43.9571 42.4108 44.1956 42.3168 44.372 42.1511C44.5484 41.9855 44.6485 41.7615 44.6509 41.5272C44.6533 41.293 44.5578 41.0672 44.3848 40.8984ZM11.1951 9.72794L8.96163 7.63029C8.78307 7.46259 8.54089 7.36837 8.28836 7.36837C8.03584 7.36837 7.79366 7.46259 7.61509 7.63029C7.43653 7.79799 7.33622 8.02544 7.33622 8.2626C7.33622 8.49976 7.43653 8.72721 7.61509 8.89491L9.84861 10.9926C10.0272 11.1603 10.2694 11.2545 10.5219 11.2545C10.7744 11.2545 11.0166 11.1603 11.1951 10.9926C11.3737 10.8249 11.474 10.5974 11.474 10.3603C11.474 10.1231 11.3737 9.89564 11.1951 9.72794ZM44.995 22.706C43.9704 14.4943 37.0394 7.98439 28.3369 6.98814C27.8158 6.92793 27.3401 7.27738 27.2764 7.76752C27.2459 8.00296 27.3161 8.24015 27.4718 8.42693C27.6274 8.61372 27.8557 8.73479 28.1064 8.76353C36.0098 9.66821 42.1769 15.4873 43.1035 22.9142C43.1329 23.1497 43.2607 23.3646 43.4588 23.5117C43.657 23.6587 43.9092 23.7258 44.16 23.6982C44.2842 23.6846 44.4043 23.6481 44.5135 23.5909C44.6227 23.5336 44.7188 23.4567 44.7964 23.3646C44.8739 23.2725 44.9314 23.1669 44.9655 23.0539C44.9995 22.9409 45.0096 22.8227 44.995 22.706Z" fill="#7A1129"/>
<path d="M44.1474 26.0959C44.0234 26.0811 43.8974 26.0894 43.7767 26.1203C43.6561 26.1512 43.5431 26.2042 43.4443 26.2761C43.3454 26.3481 43.2626 26.4377 43.2007 26.5397C43.1387 26.6417 43.0988 26.7543 43.0832 26.8708C42.4341 31.6861 39.5402 35.9349 35.1435 38.5275C33.2481 39.6452 32.1166 41.5581 32.1166 43.6443V47.3244H19.881V43.5629C19.881 41.5427 18.7568 39.6341 16.9475 38.5822C11.8307 35.6075 8.77582 30.4621 8.77569 24.8181C8.77569 16.6688 15.2752 9.76728 23.894 8.7646C24.0181 8.75016 24.138 8.71291 24.2467 8.65497C24.3555 8.59702 24.4511 8.51953 24.5279 8.42691C24.6048 8.33428 24.6615 8.22835 24.6948 8.11515C24.728 8.00195 24.7373 7.8837 24.7219 7.76715C24.6572 7.27714 24.182 6.92816 23.6598 6.98968C14.1368 8.09765 6.87097 15.7889 6.87109 24.8181C6.87109 27.9338 7.73396 31.0036 9.36663 33.6957C10.9493 36.3056 13.2241 38.521 15.9448 40.1028C17.1979 40.8313 17.9762 42.1571 17.9762 43.5627V47.4546C17.0081 47.7706 16.31 48.634 16.31 49.6494V50.9242C16.31 51.4639 16.5086 51.96 16.8383 52.355C16.5085 52.75 16.31 53.246 16.31 53.7859V55.0605C16.31 56.3425 17.4207 57.3855 18.7857 57.3855H21.7791V59.407C21.7791 60.5731 22.7892 61.5218 24.0308 61.5218H27.9658C29.2074 61.5218 30.2174 60.5731 30.2174 59.407V57.3855H33.2109C34.5759 57.3855 35.6865 56.3424 35.6865 55.0605V53.7859C35.6865 53.2461 35.4879 52.75 35.1581 52.355C35.4879 51.96 35.6865 51.4641 35.6865 50.9242V49.6494C35.6865 48.6339 34.9885 47.7706 34.0203 47.4546V43.6442C34.0203 42.1771 34.8184 40.8306 36.1556 40.0421C41.0372 37.1635 44.2508 32.4446 44.9717 27.0954C44.9875 26.9789 44.9788 26.8607 44.9459 26.7474C44.913 26.6341 44.8567 26.528 44.7802 26.4352C44.7036 26.3424 44.6083 26.2646 44.4998 26.2064C44.3912 26.1482 44.2715 26.1107 44.1474 26.0959ZM28.3135 59.4069C28.3135 59.5837 28.1544 59.7332 27.9661 59.7332H24.0311C23.8429 59.7332 23.6838 59.5838 23.6838 59.4069V57.3854H28.3135V59.4069ZM33.7826 55.0604C33.7826 55.3512 33.521 55.5969 33.2114 55.5969H18.786C18.4764 55.5969 18.2148 55.3512 18.2148 55.0604V53.7857C18.2148 53.4949 18.4764 53.2492 18.786 53.2492H33.2114C33.521 53.2492 33.7826 53.4949 33.7826 53.7857V55.0604ZM33.7826 50.9241C33.7826 51.2149 33.521 51.4606 33.2114 51.4606H18.786C18.4764 51.4606 18.2148 51.2149 18.2148 50.9241V49.6493C18.2148 49.3585 18.4764 49.1128 18.786 49.1128H33.2114C33.521 49.1128 33.7826 49.3585 33.7826 49.6493V50.9241Z" fill="#7A1129"/>
</svg>
