<svg width="65" height="65" viewBox="0 0 65 65" fill="none" xmlns="http://www.w3.org/2000/svg">
<path d="M10.4844 40.8872H12.5811V42.984H10.4844V40.8872Z" fill="#7A1129"/>
<path d="M65 38.7903V26.2097H59.0273C58.3585 23.3748 57.2419 20.6847 55.7019 18.1937L59.9289 13.9666L51.0334 5.07105L46.8063 9.29815C44.3153 7.75702 41.6262 6.64153 38.7903 5.97161V0H26.2097V5.97266C25.1414 6.22532 24.0951 6.5671 23.0645 6.94871V3.75952L19.305 0H14.6774L14.6806 8.39024H8.385L8.3871 0H3.75952L0 3.75952V13.0147L6.29032 19.305V45.695L0 51.9853V61.2405L3.75952 65H8.3871L8.38395 56.6098H14.6795L14.6774 65H19.306L23.0645 61.2405V58.0513C24.0951 58.4329 25.1414 58.7747 26.2097 59.0273V65H38.7903V59.0284C41.6262 58.3585 44.3153 57.243 46.8063 55.7019L51.0334 59.9289L59.9289 51.0334L55.7019 46.8063C57.243 44.3153 58.3585 41.6262 59.0273 38.7903H65ZM2.09677 12.1466V4.62758L4.62758 2.09677H6.29032L6.28718 10.487H16.7784L16.7742 2.09677H18.4359L20.9677 4.62758V12.1466L15.2918 17.8226H7.77274L2.09677 12.1466ZM12.5806 39.8387V19.9194H14.6774V45.0806H8.3871V19.9194H10.4839V39.8387H12.5806ZM20.9677 60.3724L18.4369 62.9032H16.7742L16.7773 54.513H6.28718L6.29032 62.9032H4.62758L2.09677 60.3724V52.8534L7.77274 47.1774H15.2918L20.9677 52.8534V60.3724ZM57.157 37.5333C56.5154 40.6921 55.2814 43.6664 53.4898 46.3733L53.0169 47.0873L56.9641 51.0344L51.0334 56.9652L47.0862 53.0169L46.3723 53.4898C43.6664 55.2825 40.6931 56.5164 37.5344 57.157L36.6935 57.3279V62.9032H28.3064V57.3279L27.4667 57.1581C25.9633 56.8519 24.4872 56.398 23.0645 55.8203V51.9853L16.7742 45.695V19.305L23.0645 13.0147V9.17968C24.4872 8.60306 25.9633 8.14911 27.4667 7.84298L28.3064 7.6721V2.09677H36.6935V7.6721L37.5333 7.84298C40.6921 8.48355 43.6664 9.7175 46.3712 11.5102L47.0852 11.9831L51.0323 8.03484L56.9631 13.9656L53.0159 17.9127L53.4887 18.6267C55.2804 21.3336 56.5144 24.3079 57.156 27.4667L57.3279 28.3064H62.9032V36.6935H57.3279L57.157 37.5333Z" fill="#7A1129"/>
<path d="M32.4992 48.226C41.1705 48.226 48.225 41.1714 48.225 32.5002C48.225 23.829 41.1705 16.7744 32.4992 16.7744C23.828 16.7744 16.7734 23.829 16.7734 32.5002C16.7734 41.1714 23.828 48.226 32.4992 48.226ZM32.4992 18.8712C40.0141 18.8712 46.1283 24.9854 46.1283 32.5002C46.1283 40.0151 40.0141 46.1293 32.4992 46.1293C24.9844 46.1293 18.8702 40.0151 18.8702 32.5002C18.8702 24.9854 24.9844 18.8712 32.4992 18.8712Z" fill="#7A1129"/>
<path d="M32.501 39.8387C36.5478 39.8387 39.8397 36.5458 39.8397 32.5C39.8397 28.4543 36.5478 25.1613 32.501 25.1613C28.4542 25.1613 25.1623 28.4543 25.1623 32.5C25.1623 36.5458 28.4542 39.8387 32.501 39.8387ZM32.501 27.2581C35.3914 27.2581 37.7429 29.6096 37.7429 32.5C37.7429 35.3904 35.3914 37.742 32.501 37.742C29.6106 37.742 27.2591 35.3904 27.2591 32.5C27.2591 29.6096 29.6106 27.2581 32.501 27.2581ZM41.9365 31.4516H44.0333V33.5484H41.9365V31.4516ZM20.9688 31.4516H23.0655V33.5484H20.9688V31.4516ZM31.4526 20.9678H33.5494V23.0645H31.4526V20.9678ZM31.4526 41.9355H33.5494V44.0323H31.4526V41.9355Z" fill="#7A1129"/>
</svg>
