<svg width="75" height="92" viewBox="0 0 75 92" fill="none" xmlns="http://www.w3.org/2000/svg">
<path d="M30.2813 63.1537C29.3788 63.3824 28.702 63.6111 28.0251 64.0684C27.1227 62.6964 26.4459 61.0958 25.5434 59.9524C23.9642 57.6658 22.1592 55.6078 20.5799 53.3212C18.0982 49.8912 16.0677 46.4613 15.1653 42.1167C13.1347 31.3695 19.0006 20.8509 29.1532 16.735C42.4643 11.247 57.806 20.3936 59.8365 34.7994C60.7389 41.4307 58.7084 46.9186 55.0986 52.1779C53.5193 54.4645 51.4889 56.7512 49.9096 59.2665C48.7815 60.8671 48.1047 62.4678 46.9766 64.0684C46.5254 64.7544 46.0742 65.4404 45.3973 65.669C40.2082 67.727 35.0192 69.5563 29.8301 71.3856C29.1532 71.6143 28.702 71.3856 28.4764 70.9283C28.2508 70.2423 28.2508 69.5563 28.9276 69.3277C29.3789 69.099 29.83 68.8703 30.2813 68.8703C34.7935 67.2697 39.3058 65.669 43.818 63.8397C44.2692 63.6111 44.7205 63.1537 44.9461 62.6964C46.751 59.2665 49.0071 56.5225 51.2633 53.3212C53.5194 50.3486 55.5499 47.6046 56.4523 43.946C58.7084 36.6287 57.1292 30.2261 52.1657 24.7382C46.5254 18.3356 39.3058 16.2777 31.1838 18.793C23.0617 21.3083 18.5494 27.0249 16.9701 35.4854C15.8421 41.4307 17.8726 46.4613 21.2568 51.0346C23.2873 53.7785 25.3178 56.5225 27.3483 59.2665C28.702 60.1811 29.3788 61.5531 30.2813 63.1537Z" fill="#173760"/>
<path d="M29.1534 85.7916C28.9278 85.5629 28.4766 85.3343 28.4766 84.8769C28.4766 84.4196 28.7022 83.9623 28.9278 83.5049C28.9278 83.2763 29.379 83.2763 29.6046 83.2763C34.5681 81.447 39.7572 79.6177 44.7207 77.7883C45.8487 77.331 46.2999 77.5597 46.5256 78.2457C46.7512 78.9317 46.2999 79.6177 45.3975 80.075C40.2084 81.9043 35.245 83.7336 30.0559 85.7916C29.8303 85.5629 29.6046 85.5629 29.1534 85.7916Z" fill="#173760"/>
<path d="M29.1534 78.2458C28.9278 78.0171 28.4766 77.7885 28.4766 77.3311C28.4766 76.8738 28.7022 76.4165 28.9278 75.9592C28.9278 75.7305 29.379 75.7305 29.6046 75.7305C34.5681 73.9012 39.7572 72.0719 44.7207 70.2426C45.8487 69.7852 46.2999 70.0139 46.5256 70.6999C46.7512 71.3859 46.5256 72.0719 45.3975 72.5292C40.2084 74.3585 35.245 76.4165 30.0559 78.2458C29.8303 78.2458 29.6046 78.2458 29.1534 78.2458Z" fill="#173760"/>
<path d="M45.3983 84.6484C43.8191 90.1364 35.0202 93.3377 29.6055 90.365C34.7946 88.5357 39.9836 86.4777 45.3983 84.6484Z" fill="#173760"/>
<path d="M38.6272 4.61595C38.6272 5.5306 38.6272 6.44526 38.6272 7.35992C38.6272 8.04591 38.176 8.50323 37.4992 8.50323C36.8223 8.50323 36.3711 8.04591 36.3711 7.35992C36.3711 5.5306 36.3711 3.70129 36.3711 1.64332C36.3711 0.957328 36.8223 0.5 37.4992 0.5C38.176 0.5 38.6272 0.957328 38.6272 1.64332C38.6272 2.55797 38.6272 3.70129 38.6272 4.61595Z" fill="#173760"/>
<path d="M4.561 36.629C5.46345 36.629 6.36592 36.629 7.26837 36.629C8.17082 36.629 8.62206 37.0863 8.62206 37.7723C8.62206 38.4583 8.17082 38.9156 7.26837 38.9156C5.46347 38.9156 3.65859 38.9156 1.85369 38.9156C0.951239 38.9156 0.5 38.4583 0.5 37.7723C0.5 37.0863 0.951239 36.629 1.85369 36.629C2.75614 36.629 3.65855 36.629 4.561 36.629Z" fill="#173760"/>
<path d="M70.437 39.1442C69.5346 39.1442 68.6321 39.1442 67.7296 39.1442C67.0528 39.1442 66.6016 38.6869 66.6016 38.0009C66.6016 37.3149 67.0528 36.8576 67.7296 36.8576C69.5345 36.8576 71.565 36.8576 73.3699 36.8576C74.0468 36.8576 74.498 37.3149 74.498 38.0009C74.498 38.6869 74.0468 39.1442 73.3699 39.1442C72.2419 39.1442 71.3395 39.1442 70.437 39.1442Z" fill="#173760"/>
<path d="M11.7801 10.5612C12.2313 10.7899 12.4569 11.0185 12.6825 11.2472C14.0362 12.6192 15.1643 13.7625 16.518 15.1345C17.1948 15.8205 17.1948 16.2778 16.518 16.9638C16.0668 17.4211 15.3899 17.4211 14.713 16.9638C13.3594 15.5918 12.0057 14.4485 10.8777 13.0765C10.6521 12.8479 10.4264 12.1619 10.652 11.7045C10.8777 11.0185 11.5545 10.7899 11.7801 10.5612Z" fill="#173760"/>
<path d="M58.9334 58.3521C59.3846 58.5807 59.6102 58.8094 59.8358 59.038C61.1895 60.1814 62.3176 61.5533 63.6713 62.6967C64.3481 63.3827 64.3481 64.0686 63.8969 64.526C63.4457 64.9833 62.7688 64.9833 62.0919 64.2973C60.7383 62.9253 59.6102 61.782 58.2566 60.41C58.031 60.1814 57.8053 59.4954 58.0309 59.038C58.0309 58.8094 58.4822 58.5807 58.9334 58.3521Z" fill="#173760"/>
<path d="M64.3509 11.9332C64.1252 12.3906 63.8997 12.6192 63.674 12.8479C62.3204 14.2199 61.1923 15.3632 59.8386 16.7352C59.3874 17.1925 58.7106 17.4212 58.0337 16.7352C57.5825 16.2778 57.5825 15.5918 58.0337 14.9059C59.3874 13.5339 60.5154 12.1619 61.8691 11.0186C62.0947 10.7899 62.7716 10.5612 63.2228 10.7899C63.674 11.0186 63.8996 11.7046 64.3509 11.9332Z" fill="#173760"/>
<path d="M11.7801 64.9832C11.5544 64.7545 11.1032 64.5259 10.8776 64.0685C10.652 63.8399 10.8776 63.1539 10.8776 62.9252C12.2313 61.5532 13.585 59.9526 15.1642 58.5806C15.6155 58.1233 16.2923 58.1233 16.7435 58.5806C17.1947 59.0379 17.1947 59.7239 16.7435 60.1813C15.3898 61.5532 14.0362 62.9252 12.6825 64.2972C12.4569 64.7545 12.2313 64.9832 11.7801 64.9832Z" fill="#173760"/>
</svg>
