<svg width="21" height="22" viewBox="0 0 21 22" fill="none" xmlns="http://www.w3.org/2000/svg">
<g clip-path="url(#clip0_624_6206)">
<path d="M16.6036 4.0708C16.3225 4.0708 16.0938 4.31044 16.0938 4.6049C16.0938 4.89937 16.3225 5.139 16.6036 5.139C16.8847 5.139 17.1134 4.89941 17.1134 4.6049C17.1134 4.31039 16.8847 4.0708 16.6036 4.0708Z" fill="white"/>
<path d="M10.4963 6.26514C8.00413 6.26514 5.97656 8.38925 5.97656 11.0001C5.97656 13.611 8.00413 15.7351 10.4963 15.7351C12.9886 15.7351 15.0161 13.611 15.0161 11.0002C15.0161 8.3893 12.9886 6.26514 10.4963 6.26514Z" fill="white"/>
<path d="M15.2432 0H5.75683C2.58251 0 0 2.70548 0 6.03101V15.969C0 19.2946 2.58251 22 5.75683 22H15.2432C18.4175 22 21 19.2945 21 15.969V6.03101C21 2.70548 18.4175 0 15.2432 0ZM10.5 17.0342C7.32396 17.0342 4.74013 14.3273 4.74013 11C4.74013 7.67272 7.324 4.9659 10.5 4.9659C13.676 4.9659 16.2599 7.67276 16.2599 11C16.2599 14.3272 13.676 17.0342 10.5 17.0342ZM16.6044 6.43827C15.6395 6.43827 14.8544 5.61584 14.8544 4.60496C14.8544 3.59408 15.6395 2.77161 16.6044 2.77161C17.5693 2.77161 18.3544 3.59404 18.3544 4.60492C18.3544 5.6158 17.5693 6.43827 16.6044 6.43827Z" fill="white"/>
</g>
<defs>
<clipPath id="clip0_624_6206">
<rect width="21" height="22" fill="white"/>
</clipPath>
</defs>
</svg>
