<svg width="24" height="23" viewBox="0 0 24 23" fill="none" xmlns="http://www.w3.org/2000/svg">
<path d="M21.5955 20.6997V13.9607C21.5955 10.6487 20.8515 8.11865 16.8195 8.11865C14.8755 8.11865 13.5795 9.13065 13.0515 10.0967H13.0035V8.41765H9.1875V20.6997H13.1715V14.6047C13.1715 12.9947 13.4835 11.4537 15.5475 11.4537C17.5875 11.4537 17.6115 13.2707 17.6115 14.6967V20.6767H21.5955V20.6997Z" fill="white"/>
<path d="M2.71094 8.41797H6.69494V20.7H2.71094V8.41797Z" fill="white"/>
<path d="M4.70244 2.2998C3.43044 2.2998 2.39844 3.2888 2.39844 4.5078C2.39844 5.7268 3.43044 6.7388 4.70244 6.7388C5.97444 6.7388 7.00644 5.7268 7.00644 4.5078C7.00644 3.2888 5.97444 2.2998 4.70244 2.2998Z" fill="white"/>
</svg>
