<svg width="46" height="46" viewBox="0 0 46 46" fill="none" xmlns="http://www.w3.org/2000/svg">
<path opacity="0.2" d="M35.9375 14.375V31.625C35.9375 34.2937 34.8773 36.8532 32.9903 38.7403C31.1032 40.6273 28.5437 41.6875 25.875 41.6875H20.125C17.4563 41.6875 14.8968 40.6273 13.0097 38.7403C11.1227 36.8532 10.0625 34.2937 10.0625 31.625V14.375C10.0625 11.7063 11.1227 9.14682 13.0097 7.25974C14.8968 5.37265 17.4563 4.3125 20.125 4.3125H25.875C28.5437 4.3125 31.1032 5.37265 32.9903 7.25974C34.8773 9.14682 35.9375 11.7063 35.9375 14.375Z" fill="white"/>
<path d="M25.875 2.875H20.125C17.076 2.87833 14.1529 4.091 11.9969 6.24695C9.841 8.4029 8.62833 11.326 8.625 14.375V31.625C8.62833 34.674 9.841 37.5971 11.9969 39.7531C14.1529 41.909 17.076 43.1217 20.125 43.125H25.875C28.924 43.1217 31.8471 41.909 34.0031 39.7531C36.159 37.5971 37.3717 34.674 37.375 31.625V14.375C37.3717 11.326 36.159 8.4029 34.0031 6.24695C31.8471 4.091 28.924 2.87833 25.875 2.875ZM34.5 31.625C34.4976 33.9118 33.5882 36.1042 31.9712 37.7212C30.3542 39.3382 28.1618 40.2476 25.875 40.25H20.125C17.8382 40.2476 15.6458 39.3382 14.0288 37.7212C12.4118 36.1042 11.5024 33.9118 11.5 31.625V14.375C11.5024 12.0882 12.4118 9.89582 14.0288 8.27883C15.6458 6.66184 17.8382 5.75238 20.125 5.75H25.875C28.1618 5.75238 30.3542 6.66184 31.9712 8.27883C33.5882 9.89582 34.4976 12.0882 34.5 14.375V31.625ZM24.4375 11.5V20.125C24.4375 20.5062 24.2861 20.8719 24.0165 21.1415C23.7469 21.411 23.3812 21.5625 23 21.5625C22.6188 21.5625 22.2531 21.411 21.9835 21.1415C21.714 20.8719 21.5625 20.5062 21.5625 20.125V11.5C21.5625 11.1188 21.714 10.7531 21.9835 10.4835C22.2531 10.214 22.6188 10.0625 23 10.0625C23.3812 10.0625 23.7469 10.214 24.0165 10.4835C24.2861 10.7531 24.4375 11.1188 24.4375 11.5Z" fill="white"/>
</svg>
