<svg width="22" height="22" viewBox="0 0 22 22" fill="none" xmlns="http://www.w3.org/2000/svg">
<path d="M19.7767 2.22235C19.5607 2.00628 19.291 1.85169 18.9954 1.77451C18.6998 1.69732 18.389 1.70032 18.0949 1.7832L18.076 1.78922L1.58372 6.78906C1.24924 6.88608 0.95212 7.08242 0.731719 7.35207C0.511318 7.62172 0.378034 7.95197 0.349521 8.29906C0.321008 8.64616 0.398611 8.99373 0.572051 9.29574C0.745492 9.59774 1.00659 9.83994 1.32075 9.99024L8.50684 13.4922L12.0054 20.6809C12.1433 20.9742 12.3622 21.2221 12.6362 21.3954C12.9102 21.5686 13.228 21.66 13.5522 21.6588C13.6012 21.6588 13.6511 21.6588 13.7009 21.6528C14.0489 21.626 14.3803 21.493 14.6502 21.2716C14.9202 21.0503 15.1155 20.7514 15.21 20.4153L20.2098 3.92305C20.2123 3.91692 20.2143 3.9106 20.2158 3.90414C20.2987 3.61008 20.3017 3.29925 20.2245 3.00364C20.1473 2.70803 19.9928 2.43835 19.7767 2.22235ZM13.4835 18.9982L10.5298 12.9276L14.4829 8.97875C14.5789 8.88282 14.655 8.76894 14.7069 8.64361C14.7588 8.51828 14.7855 8.38394 14.7855 8.24828C14.7855 8.11262 14.7588 7.97829 14.7069 7.85296C14.655 7.72762 14.5789 7.61374 14.4829 7.51781C14.387 7.42189 14.2731 7.34579 14.1478 7.29388C14.0225 7.24196 13.8881 7.21524 13.7525 7.21524C13.6168 7.21524 13.4825 7.24196 13.3571 7.29388C13.2318 7.34579 13.1179 7.42189 13.022 7.51781L9.06888 11.4709L3.00083 8.51555L18.0459 3.95313L13.4835 18.9982Z" fill="white"/>
</svg>
