<svg width="91" height="91" viewBox="0 0 91 91" fill="none" xmlns="http://www.w3.org/2000/svg">
<g clip-path="url(#clip0_675_1841)">
<path d="M55.7938 37.047L42.1211 49.9612L35.5591 43.2104C34.8317 42.4615 33.6338 42.4444 32.8856 43.1719C32.1367 43.9001 32.1196 45.0972 32.8471 45.8461L40.7173 53.9252C41.4484 54.6608 42.63 54.686 43.3915 53.9815L58.4303 39.7968C58.7955 39.4524 59.0089 38.9768 59.0229 38.4753C59.037 37.9738 58.8511 37.4871 58.5059 37.1226C57.774 36.3618 56.5672 36.3285 55.7938 37.047Z" fill="#7A1129"/>
<path d="M45.6448 17.1722C30.0186 17.1722 17.3125 29.8783 17.3125 45.5045C17.3125 61.1315 30.0186 73.8376 45.6448 73.8376C61.2718 73.8376 73.9779 61.1315 73.9779 45.5045C73.9779 29.8783 61.2718 17.1722 45.6448 17.1722ZM45.6448 70.0447C32.1046 70.0447 21.1054 59.0262 21.1054 45.5045C21.1054 31.9829 32.1046 20.9651 45.6448 20.9651C59.1983 20.9651 70.185 31.9518 70.185 45.5045C70.185 59.0573 59.1983 70.0447 45.6448 70.0447Z" fill="#7A1129"/>
<path d="M84.6404 35.0742L85.2664 23.8282C85.3101 23.0734 84.8997 22.3644 84.2233 22.0266L74.2101 16.9633L69.1467 6.95005C68.8023 6.27963 68.0978 5.87145 67.3451 5.90701L56.0799 6.51446L46.6926 0.312555C46.06 -0.104511 45.2399 -0.104511 44.6065 0.312555L35.2192 6.51446L23.974 5.88849C23.2184 5.84404 22.5102 6.25444 22.1724 6.93153L17.1084 16.9448L7.09583 22.0081C6.42468 22.3518 6.01724 23.0563 6.0528 23.8097L6.67803 35.0557L0.476862 44.443C0.0597961 45.0756 0.0597961 45.8957 0.476862 46.5291L6.65951 55.9349L6.03354 67.1808C5.98983 67.9357 6.39949 68.6446 7.07657 68.9824L17.0898 74.0457L22.1532 84.059C22.4969 84.7302 23.2014 85.1376 23.9548 85.1021L35.2007 84.4761L44.588 90.6773C45.217 91.1077 46.0452 91.1077 46.6741 90.6773L56.0614 84.4761L67.3074 85.1021C68.0622 85.1458 68.7704 84.7354 69.109 84.059L74.1723 74.0457L84.1855 68.9824C84.856 68.638 85.2641 67.9342 85.2286 67.1808L84.6026 55.9349L90.8038 46.5476C91.2208 45.9149 91.2208 45.0941 90.8038 44.4615L84.6404 35.0742ZM81.1127 54.38C80.8816 54.7192 80.7742 55.1274 80.8098 55.5371L81.3972 66.1756L71.9343 70.9544C71.5736 71.1352 71.281 71.4285 71.1002 71.7893L66.3206 81.2522L55.6821 80.6647C55.2747 80.6499 54.8724 80.7551 54.525 80.9677L45.6496 86.8281L36.7749 80.9677C36.4667 80.7595 36.1037 80.6469 35.7319 80.6455H35.637L24.9978 81.2337L20.219 71.77C20.0382 71.4093 19.7456 71.1167 19.3841 70.9359L9.90195 66.1756L10.4901 55.5371C10.505 55.1296 10.399 54.7274 10.1864 54.38L4.32675 45.5045L10.1864 36.6291C10.4183 36.2906 10.5257 35.8817 10.4901 35.4727L9.90195 24.8335L19.3656 20.0546C19.7263 19.8739 20.0189 19.5813 20.1997 19.2205L24.9785 9.75691L35.6178 10.3451C36.0245 10.3592 36.4267 10.254 36.7749 10.0414L45.6496 4.18171L54.525 10.0414C54.8643 10.2732 55.2732 10.3807 55.6821 10.3451L66.3206 9.75691L71.1002 19.2205C71.281 19.5813 71.5736 19.8739 71.9343 20.0546L81.3972 24.8335L80.8098 35.4727C80.7949 35.8794 80.9009 36.2817 81.1127 36.6291L86.9731 45.5045L81.1127 54.38Z" fill="#7A1129"/>
</g>
<defs>
<clipPath id="clip0_675_1841">
<rect width="91" height="91" fill="white"/>
</clipPath>
</defs>
</svg>
