<svg width="83" height="82" viewBox="0 0 83 82" fill="none" xmlns="http://www.w3.org/2000/svg">
<path d="M80.0074 2.33875C78.7778 2.33875 77.3433 2.33875 76.1138 2.33875C67.7116 2.74933 59.7194 4.59696 52.1369 8.29222C42.9151 12.6034 35.1278 18.7621 28.9799 26.9738C24.6763 32.5167 21.6024 38.6754 19.3481 45.2448C19.1432 45.6554 19.3481 45.8607 19.5531 46.066C21.3974 47.9136 23.2418 49.7612 25.0862 51.6088C25.2911 51.8141 25.496 52.2247 25.496 52.6353C25.496 53.0459 25.2911 53.4565 24.8813 53.6618C24.4714 53.8671 23.8566 53.8671 23.6517 53.4565C22.627 52.43 21.8073 51.6088 20.7827 50.5824C19.5531 49.3506 18.5284 48.1189 17.2988 47.0924C16.889 46.6818 16.6841 46.066 16.889 45.4501C19.5531 37.4437 23.4467 30.0532 28.9799 23.4838C34.513 16.7092 41.2757 11.3716 48.8581 7.47105C55.8257 3.77579 63.4081 1.51758 71.1954 0.491121C74.4743 0.080537 77.7532 -0.124755 81.0321 0.0805371C82.0567 0.0805371 82.2617 0.491121 82.4666 1.51758C82.8764 14.8616 79.5976 27.1791 72.425 38.6754C65.2525 49.9665 55.4158 58.3835 43.12 63.7211C41.2757 64.5423 39.2264 65.1581 37.1771 65.9793C36.5623 66.1846 36.1524 66.1846 35.7425 65.5687C33.6932 63.5158 31.439 61.2576 29.3897 59.2047C28.9799 58.7941 28.7749 58.1782 29.1848 57.5623C29.5946 56.9464 30.4144 56.9464 31.0292 57.5623C32.8735 59.41 34.7179 61.2576 36.5623 63.1052C36.9721 63.5158 37.1771 63.5158 37.5869 63.3105C46.6038 60.2311 54.5961 55.3041 61.3588 48.7348C69.3511 40.9337 74.6792 31.6955 77.7532 21.2256C79.3926 15.4774 80.2123 9.52397 80.2123 3.36521C80.2123 2.95463 80.0074 2.74933 80.0074 2.33875Z" fill="#173760"/>
<path d="M68.7319 26.358C68.7319 33.3379 63.1988 38.8808 56.2312 38.8808C49.2636 38.8808 43.7305 33.3379 43.7305 26.358C43.7305 19.5833 49.2636 13.8351 56.0263 13.8351C63.1988 13.8351 68.7319 19.378 68.7319 26.358ZM66.2728 26.5633C66.2728 20.8151 61.7643 16.2986 56.0263 16.2986C50.2882 16.2986 45.7798 20.8151 45.7798 26.5633C45.7798 32.3114 50.2882 36.8279 56.0263 36.8279C61.7643 36.6226 66.2728 32.1061 66.2728 26.5633Z" fill="#173760"/>
<path d="M37.3777 78.9127C38.8123 78.0915 40.2468 77.0651 41.4763 76.0386C45.5749 72.3433 47.8292 67.8269 48.8538 62.4893C49.0588 61.6682 49.4686 61.2576 50.0834 61.2576C50.9031 61.2576 51.313 61.8734 51.313 62.6946C51.1081 63.7211 50.9031 64.9528 50.4933 65.9793C48.239 72.9592 44.1404 78.0915 37.7876 81.5815C36.3531 82.4026 35.7383 81.9921 35.5334 80.555C34.7137 76.2439 33.8939 71.7275 33.0742 67.4163C33.0742 67.0057 33.0742 66.5952 33.0742 66.3899C33.2791 65.9793 33.689 65.774 34.3038 65.774C34.7137 65.774 35.1235 66.1846 35.3284 66.5952C35.5334 67.8269 35.7383 69.0587 36.1482 70.4957C36.3531 73.3698 36.9679 76.0386 37.3777 78.9127Z" fill="#173760"/>
<path d="M3.56693 45.0395C4.79651 45.2448 6.02609 45.4501 7.05074 45.6554C9.91976 46.2712 12.7888 46.6818 15.4529 47.2977C15.6578 47.2977 15.6578 47.2977 15.8627 47.2977C16.4775 47.503 16.8874 48.1189 16.6824 48.7347C16.4775 49.3506 16.0677 49.7612 15.2479 49.5559C13.6085 49.1453 11.7641 48.94 10.1247 48.5294C7.4606 47.9136 4.79651 47.503 1.92749 46.8871C1.72256 46.8871 1.72256 46.8871 1.51763 46.8871C0.49298 46.6818 0.28805 46.0659 0.69791 45.0395C1.92749 42.7813 3.362 40.5231 5.20637 38.6754C9.10004 34.5696 13.8134 32.3114 19.1416 31.0796C19.3465 31.0796 19.5515 31.0796 19.5515 30.8743C20.1663 30.669 20.781 31.0796 20.986 31.6955C21.1909 32.3114 20.781 32.9272 19.9613 33.1325C18.7317 33.5431 17.2972 33.7484 16.0677 34.159C10.7395 36.0066 6.64088 39.2913 3.56693 44.013C3.77186 44.6289 3.77186 44.8342 3.56693 45.0395Z" fill="#173760"/>
<path d="M18.1172 63.3106C18.3221 63.1053 18.527 62.6947 18.732 62.4894C22.6256 58.5888 26.3144 54.8936 30.2081 50.993C31.6426 49.556 32.8721 48.3242 34.3067 46.8872C34.9214 46.2713 35.5362 46.2713 36.151 46.6819C36.5609 47.0925 36.5609 47.9137 35.9461 48.5295C31.4376 53.046 26.9292 57.7677 22.2158 62.2841C21.601 62.9 20.9862 63.7211 20.1665 64.337C19.7566 64.7476 19.3468 64.7476 18.9369 64.5423C18.3221 64.337 18.1172 63.9264 18.1172 63.3106Z" fill="#173760"/>
<path d="M12.7898 68.6481C13.1996 68.8534 13.6095 69.0587 13.8144 69.4692C14.0193 69.8798 13.8144 70.2904 13.6095 70.701C13.4045 70.9063 12.9947 71.3169 12.7898 71.7275C10.3306 74.191 7.87144 76.8598 5.20735 79.3233C4.79749 79.5286 4.59256 79.7338 4.1827 79.7338C3.77284 79.7338 3.36298 79.5285 3.15805 79.118C2.95312 78.5021 2.95312 78.0915 3.36298 77.6809C5.00242 76.0386 6.64186 74.3962 8.2813 72.7539C9.51088 71.5222 10.5355 70.4957 11.7651 69.2639C12.175 69.0587 12.3799 68.8534 12.7898 68.6481Z" fill="#173760"/>
<path d="M10.9454 60.2311C11.9701 60.2311 12.5848 61.2576 12.175 61.8735C11.9701 62.0788 11.9701 62.2841 11.7651 62.4894C9.10104 65.1582 6.43695 67.8269 3.77286 70.4957L3.56793 70.701C2.95314 71.1116 2.33835 71.3169 1.92849 70.701C1.51863 70.2905 1.51863 69.4693 1.92849 69.0587C3.97779 67.0058 6.02709 64.9529 8.07639 62.8999C8.89611 62.0788 9.5109 61.4629 10.3306 60.847C10.5355 60.4364 10.9454 60.2311 10.9454 60.2311Z" fill="#173760"/>
<path d="M22.4186 71.7276C22.4186 71.9329 22.2136 72.1382 22.0087 72.5488C19.1397 75.4229 16.4756 78.0917 13.6066 80.9658C12.9918 81.5817 12.377 81.5817 11.7622 80.9658C11.3523 80.5552 11.3523 79.734 11.9671 79.3234C14.8362 76.4494 17.5003 73.7806 20.3693 70.9065C20.7791 70.4959 21.189 70.2906 21.8038 70.4959C22.2136 70.7012 22.4186 70.9065 22.4186 71.7276Z" fill="#173760"/>
</svg>
