<svg width="132" height="130" viewBox="0 0 132 130" fill="none" xmlns="http://www.w3.org/2000/svg">
<path d="M127.531 4.2081C125.326 4.2081 122.755 4.2081 120.55 4.2081C105.488 4.94683 91.1603 8.27111 77.5673 14.9197C61.0354 22.6763 47.0751 33.7573 36.0537 48.5318C28.3388 58.5047 22.8282 69.5856 18.787 81.4053C18.4196 82.144 18.787 82.5134 19.1544 82.8827C22.4608 86.207 25.7672 89.5313 29.0736 92.8556C29.441 93.2249 29.8083 93.9637 29.8083 94.7024C29.8083 95.4411 29.441 96.1799 28.7062 96.5492C27.9714 96.9186 26.8693 96.9186 26.5019 96.1799C24.6651 94.333 23.1955 92.8556 21.3587 91.0088C19.1544 88.7926 17.3175 86.5764 15.1133 84.7296C14.3785 83.9908 14.0111 82.8827 14.3785 81.7746C19.1544 67.3694 26.1346 54.0723 36.0537 42.2526C45.9729 30.0636 58.0964 20.4601 71.6893 13.4422C84.1801 6.79365 97.7731 2.73064 111.733 0.883816C117.611 0.145087 123.489 -0.224278 129.368 0.145087C131.204 0.145087 131.572 0.883815 131.939 2.73064C132.674 26.7393 126.796 48.9012 113.938 69.5856C101.079 89.9007 83.4454 105.045 61.4028 114.648C58.0964 116.126 54.4226 117.234 50.7488 118.711C49.6467 119.08 48.9119 119.08 48.1772 117.972C44.5034 114.279 40.4623 110.216 36.7885 106.522C36.0537 105.783 35.6864 104.675 36.4211 103.567C37.1559 102.459 38.6254 102.459 39.7275 103.567C43.0339 106.891 46.3403 110.216 49.6467 113.54C50.3814 114.279 50.7488 114.279 51.4836 113.909C67.6482 108.369 81.9759 99.5041 94.0993 87.6845C108.427 73.6486 117.979 57.0272 123.489 38.1896C126.428 27.8474 127.898 17.1359 127.898 6.05492C127.898 5.31619 127.531 4.94683 127.531 4.2081Z" fill="#DCE8F7"/>
<path d="M107.32 47.4241C107.32 59.9824 97.4008 69.9553 84.91 69.9553C72.4192 69.9553 62.5 59.9824 62.5 47.4241C62.5 35.235 72.4192 24.8928 84.5426 24.8928C97.4008 24.8928 107.32 34.8657 107.32 47.4241ZM102.911 47.7934C102.911 37.4512 94.8292 29.3252 84.5426 29.3252C74.2561 29.3252 66.1738 37.4512 66.1738 47.7934C66.1738 58.1356 74.2561 66.2616 84.5426 66.2616C94.8292 65.8923 102.911 57.7663 102.911 47.7934Z" fill="#DCE8F7"/>
<path d="M51.1134 141.981C53.685 140.504 56.2566 138.657 58.4609 136.81C65.8084 130.161 69.8496 122.035 71.6865 112.432C72.0538 110.954 72.7886 110.216 73.8907 110.216C75.3602 110.216 76.095 111.324 76.095 112.801C75.7276 114.648 75.3602 116.864 74.6255 118.711C70.5843 131.27 63.2368 140.504 51.8481 146.783C49.2765 148.26 48.1743 147.522 47.807 144.936C46.3375 137.179 44.8679 129.053 43.3984 121.297C43.3984 120.558 43.3984 119.819 43.3984 119.45C43.7658 118.711 44.5006 118.342 45.6027 118.342C46.3375 118.342 47.0722 119.08 47.4396 119.819C47.807 122.035 48.1743 124.252 48.9091 126.837C49.2765 132.008 50.3786 136.81 51.1134 141.981Z" fill="#DCE8F7"/>
<path d="M-9.50193 81.036C-7.29767 81.4054 -5.0934 81.7748 -3.25652 82.1441C1.88676 83.2522 7.03004 83.9909 11.8059 85.099C12.1733 85.099 12.1733 85.099 12.5407 85.099C13.6428 85.4684 14.3776 86.5765 14.0102 87.6846C13.6428 88.7927 12.9081 89.5314 11.4386 89.162C8.49955 88.4233 5.19315 88.054 2.25414 87.3152C-2.52176 86.2071 -7.29767 85.4684 -12.4409 84.3603C-12.8083 84.3603 -12.8083 84.3603 -13.1757 84.3603C-15.0126 83.9909 -15.38 82.8829 -14.6452 81.036C-12.4409 76.973 -9.86931 72.91 -6.56291 69.5857C0.417253 62.1984 8.86693 58.1354 18.4187 55.9192C18.7861 55.9192 19.1535 55.9192 19.1535 55.5499C20.2556 55.1805 21.3577 55.9192 21.7251 57.0273C22.0925 58.1354 21.3577 59.2435 19.8882 59.6129C17.684 60.3516 15.1123 60.721 12.9081 61.4597C3.35627 64.784 -3.99127 70.6938 -9.50193 79.1892C-9.13455 80.2973 -9.13455 80.6667 -9.50193 81.036Z" fill="#DCE8F7"/>
<path d="M16.582 113.909C16.9494 113.54 17.3168 112.801 17.6842 112.432C24.6643 105.414 31.2771 98.7652 38.2573 91.7473C40.8289 89.1618 43.0332 86.9456 45.6048 84.36C46.7069 83.2519 47.8091 83.2519 48.9112 83.9906C49.646 84.7294 49.646 86.2068 48.5438 87.3149C40.4615 95.4409 32.3792 103.936 23.9296 112.062C22.8274 113.17 21.7253 114.648 20.2558 115.756C19.521 116.495 18.7863 116.495 18.0515 116.125C16.9494 115.756 16.582 115.017 16.582 113.909Z" fill="#DCE8F7"/>
<path d="M7.03147 123.513C7.76623 123.882 8.50098 124.252 8.86836 124.99C9.23573 125.729 8.86836 126.468 8.50098 127.207C8.1336 127.576 7.39885 128.315 7.03147 129.053C2.62295 133.486 -1.78558 138.288 -6.56148 142.72C-7.29623 143.089 -7.66361 143.459 -8.39836 143.459C-9.13312 143.459 -9.86787 143.089 -10.2352 142.351C-10.6026 141.242 -10.6026 140.504 -9.86787 139.765C-6.92886 136.81 -3.98984 133.855 -1.05082 130.9C1.15344 128.684 2.99032 126.837 5.19459 124.621C5.92934 124.252 6.29672 123.882 7.03147 123.513Z" fill="#DCE8F7"/>
<path d="M3.72347 108.369C5.56035 108.369 6.66249 110.216 5.92773 111.324C5.56035 111.693 5.56035 112.063 5.19298 112.432C0.417076 117.234 -4.35883 122.036 -9.13473 126.837L-9.50211 127.207C-10.6042 127.945 -11.7064 128.315 -12.4411 127.207C-13.1759 126.468 -13.1759 124.991 -12.4411 124.252C-8.76735 120.558 -5.09358 116.864 -1.41981 113.171C0.0496969 111.693 1.15183 110.585 2.62134 109.477C2.98871 108.738 3.72347 108.369 3.72347 108.369Z" fill="#DCE8F7"/>
<path d="M24.2954 129.054C24.2954 129.423 23.928 129.793 23.5606 130.531C18.4173 135.702 13.6414 140.504 8.49816 145.675C7.39603 146.783 6.2939 146.783 5.19177 145.675C4.45701 144.936 4.45701 143.459 5.55914 142.72C10.7024 137.549 15.4783 132.747 20.6216 127.576C21.3564 126.838 22.0911 126.468 23.1932 126.838C23.928 127.207 24.2954 127.576 24.2954 129.054Z" fill="#DCE8F7"/>
</svg>
