<svg width="28" height="27" viewBox="0 0 28 27" fill="none" xmlns="http://www.w3.org/2000/svg">
<path d="M19.5625 23.9062H8.3125C4.20625 23.9062 1.84375 21.5438 1.84375 17.4375V9.5625C1.84375 5.45625 4.20625 3.09375 8.3125 3.09375H19.5625C23.6688 3.09375 26.0312 5.45625 26.0312 9.5625V17.4375C26.0312 21.5438 23.6688 23.9062 19.5625 23.9062ZM8.3125 4.78125C5.095 4.78125 3.53125 6.345 3.53125 9.5625V17.4375C3.53125 20.655 5.095 22.2188 8.3125 22.2188H19.5625C22.78 22.2188 24.3438 20.655 24.3438 17.4375V9.5625C24.3438 6.345 22.78 4.78125 19.5625 4.78125H8.3125Z" fill="#173760"/>
<path d="M13.9405 14.4765C12.9955 14.4765 12.0393 14.184 11.308 13.5878L7.78679 10.7753C7.42679 10.4828 7.3593 9.95402 7.6518 9.59402C7.9443 9.23402 8.47305 9.16652 8.83305 9.45902L12.3543 12.2715C13.2093 12.9578 14.6605 12.9578 15.5155 12.2715L19.0368 9.45902C19.3968 9.16652 19.9368 9.22277 20.218 9.59402C20.5105 9.95402 20.4543 10.494 20.0831 10.7753L16.5618 13.5878C15.8418 14.184 14.8855 14.4765 13.9405 14.4765Z" fill="#173760"/>
</svg>
