<svg width="60" height="60" viewBox="0 0 60 60" fill="none" xmlns="http://www.w3.org/2000/svg">
<g clip-path="url(#clip0_621_7592)">
<path d="M54.1829 1.5014H57.9636C59.0876 1.5014 59.9988 2.41259 59.9988 3.53662V24.3492C59.9988 25.4732 59.0876 26.3844 57.9636 26.3844H54.6717M34.2031 21.9054V3.53662C34.2031 2.41259 35.1143 1.5014 36.2383 1.5014H50.7279" stroke="#7A1129" stroke-width="1.5" stroke-miterlimit="10" stroke-linecap="round" stroke-linejoin="round"/>
<path d="M34.2038 8.18067L39.4952 12.3711L44.176 9.44174L52.7237 16.2514L59.9994 10.0723M25.3612 21.9055V1.45668C25.3612 0.376071 24.4851 -0.5 23.4045 -0.5H11.3336L2.76172 8.07184V28.8268C2.76172 29.9074 3.63779 30.7835 4.7184 30.7835H8.08886" stroke="#7A1129" stroke-width="1.5" stroke-miterlimit="10" stroke-linecap="round" stroke-linejoin="round"/>
<path d="M47.4104 21.9055H52.4065C53.6579 21.9055 54.6724 22.92 54.6724 24.1714V49.6218C54.6724 50.8732 53.6579 51.8877 52.4065 51.8877H10.3548C9.10336 51.8877 8.08886 50.8732 8.08886 49.6218V24.1715C8.08886 22.9201 9.10336 21.9056 10.3548 21.9056H41.9878M9.37734 8.07184H2.76172L11.3336 -0.5V6.11562C11.3336 7.196 10.4577 8.07184 9.37734 8.07184Z" stroke="#7A1129" stroke-width="1.5" stroke-miterlimit="10" stroke-linecap="round" stroke-linejoin="round"/>
<path d="M47.6094 25.3727H51.233V48.4208H11.5282V25.3727H41.9876M16.4876 56.7377H56.6005C58.4777 56.7377 59.9994 55.2159 59.9994 53.3388V53.0209C59.9994 52.3952 59.4922 51.8878 58.8664 51.8878H3.89473C3.26903 51.8878 2.76172 52.3952 2.76172 53.0209V53.3388C2.76172 55.216 4.28353 56.7377 6.16063 56.7377H13.0871" stroke="#7A1129" stroke-width="1.5" stroke-miterlimit="10" stroke-linecap="round" stroke-linejoin="round"/>
<path d="M15.6039 5.50098H21.0644M15.6039 9.82582H21.0644M6.93359 14.1508H21.0644M28.4595 44.9014H25.4249C24.7655 44.9014 24.2309 44.3668 24.2309 43.7073V32.2446C24.2309 31.5851 24.7655 31.0505 25.4249 31.0505H28.4595C29.1189 31.0505 29.6535 31.5851 29.6535 32.2446V43.7073C29.6535 44.3668 29.1189 44.9014 28.4595 44.9014ZM19.5806 44.9014H16.546C15.8865 44.9014 15.3519 44.3668 15.3519 43.7073V41.7968C15.3519 41.1374 15.8865 40.6028 16.546 40.6028H19.5805C20.2399 40.6028 20.7745 41.1374 20.7745 41.7968V43.7073C20.7746 44.3668 20.24 44.9014 19.5806 44.9014ZM37.3385 44.9014H34.3039C33.6445 44.9014 33.1099 44.3668 33.1099 43.7073V37.0208C33.1099 36.3613 33.6445 35.8267 34.3039 35.8267H37.3385C37.9979 35.8267 38.5325 36.3613 38.5325 37.0208V43.7073C38.5325 44.3668 37.9979 44.9014 37.3385 44.9014ZM46.2174 44.9014H43.1828C42.5234 44.9014 41.9888 44.3668 41.9888 43.7073V18.6326C41.9888 17.9732 42.5234 17.4386 43.1828 17.4386H46.2173C46.8768 17.4386 47.4114 17.9732 47.4114 18.6326V43.7073C47.4115 44.3668 46.8769 44.9014 46.2174 44.9014Z" stroke="#7A1129" stroke-width="1.5" stroke-miterlimit="10" stroke-linecap="round" stroke-linejoin="round"/>
</g>
<defs>
<clipPath id="clip0_621_7592">
<rect width="60" height="60" fill="white"/>
</clipPath>
</defs>
</svg>
