<svg width="65" height="65" viewBox="0 0 65 65" fill="none" xmlns="http://www.w3.org/2000/svg">
<g clip-path="url(#clip0_676_2670)">
<path d="M65 15.7258C65 7.0546 57.9454 0 49.2742 0C40.603 0 33.5484 7.0546 33.5484 15.7258C33.5484 22.944 38.4412 29.0246 45.0806 30.8666V46.129H38.7903V54.5161H45.0806V65H53.4677V54.5161H59.7581V46.129H53.4677V30.8666C60.1072 29.0246 65 22.944 65 15.7258ZM53.0798 22.2614C54.5654 21.3347 55.5645 19.6981 55.5645 17.8226V11.5323H54.3358C52.7162 11.5277 51.1638 10.8846 50.0154 9.74266L49.2742 9.00145L48.533 9.74266C47.3846 10.8846 45.8321 11.5277 44.2126 11.5323H42.9839V17.8226C42.9839 19.6981 43.983 21.3347 45.4685 22.2614C44.6864 22.8581 44.0546 23.6292 43.6234 24.5134C42.7949 24.0661 42.1031 23.4028 41.6213 22.594C41.1395 21.7851 40.8858 20.8608 40.8871 19.9194V14.6774C40.8871 10.053 44.6498 6.29032 49.2742 6.29032C53.8986 6.29032 57.6613 10.053 57.6613 14.6774V19.9194C57.6626 20.8608 57.4089 21.7851 56.9271 22.594C56.4453 23.4028 55.7535 24.0661 54.925 24.5134C54.4938 23.6292 53.862 22.8581 53.0798 22.2614ZM48.2258 20.9677C46.4918 20.9677 45.0806 19.5566 45.0806 17.8226V13.5819C46.6093 13.4148 48.0613 12.8256 49.2742 11.8803C50.4871 12.8256 51.9391 13.4148 53.4677 13.5819V17.8226C53.4677 19.5566 52.0566 20.9677 50.3226 20.9677H48.2258ZM45.0806 28.6881V27.2581C45.0806 24.9453 46.9614 23.0645 49.2742 23.0645C51.5869 23.0645 53.4677 24.9453 53.4677 27.2581V28.6881C52.1457 29.1169 50.7377 29.3548 49.2742 29.3548C47.8106 29.3548 46.4027 29.1169 45.0806 28.6881ZM35.6452 15.7258C35.6452 8.21097 41.7594 2.09677 49.2742 2.09677C56.789 2.09677 62.9032 8.21097 62.9032 15.7258C62.9032 20.9709 59.9195 25.5272 55.5645 27.8043V27.2581C55.5645 27.0201 55.5488 26.7863 55.5226 26.5546C56.789 25.9693 57.8611 25.0331 58.6118 23.8571C59.3625 22.6811 59.7603 21.3145 59.7581 19.9194V14.6774C59.7581 8.89661 55.055 4.19355 49.2742 4.19355C43.4934 4.19355 38.7903 8.89661 38.7903 14.6774V19.9194C38.7881 21.3145 39.1859 22.6811 39.9366 23.8571C40.6872 25.0331 41.7593 25.9693 43.0258 26.5546C42.9996 26.7863 42.9839 27.0201 42.9839 27.2581V27.8043C38.6289 25.5272 35.6452 20.9709 35.6452 15.7258ZM57.6613 48.2258V52.4194H51.371V62.9032H47.1774V52.4194H40.8871V48.2258H47.1774V31.2954C47.8652 31.3877 48.5613 31.4516 49.2742 31.4516C49.9871 31.4516 50.6832 31.3877 51.371 31.2954V48.2258H57.6613ZM19.9194 34.1334V17.7398L25.1194 23.5405L30.7869 17.8729L15.7258 0.544113L0.664677 17.8729L6.33226 23.5405L11.5323 17.7398V34.1334C4.89282 35.9754 0 42.056 0 49.2742C0 57.9454 7.0546 65 15.7258 65C24.397 65 31.4516 57.9454 31.4516 49.2742C31.4516 42.056 26.5588 35.9754 19.9194 34.1334ZM6.24839 20.4918L3.52887 17.7723L15.7258 3.7396L27.9227 17.7723L25.2032 20.4918L17.8226 12.2598V33.7046C17.1348 33.6123 16.4387 33.5484 15.7258 33.5484C15.0129 33.5484 14.3168 33.6123 13.629 33.7046V12.2598L6.24839 20.4918ZM11.5323 62.2364V60.8064C11.5323 58.4937 13.4131 56.6129 15.7258 56.6129C18.0385 56.6129 19.9194 58.4937 19.9194 60.8064V62.2364C18.5973 62.6652 17.1894 62.9032 15.7258 62.9032C14.2623 62.9032 12.8543 62.6652 11.5323 62.2364ZM14.6774 54.5161C12.9434 54.5161 11.5323 53.105 11.5323 51.371V47.1774C11.5323 46.691 11.8646 46.2821 12.3144 46.1626L12.5272 46.3052C14.405 47.5592 16.6129 48.2276 18.871 48.2258C19.239 48.2258 19.5923 48.1618 19.9194 48.0465V51.371C19.9194 53.105 18.5082 54.5161 16.7742 54.5161H14.6774ZM9.43548 49.2742V51.371C9.15743 51.371 8.89077 51.2605 8.69416 51.0639C8.49755 50.8673 8.3871 50.6006 8.3871 50.3226C8.3871 50.0445 8.49755 49.7779 8.69416 49.5813C8.89077 49.3846 9.15743 49.2742 9.43548 49.2742ZM9.43548 47.1774C9.15556 47.1774 8.88823 47.2256 8.62927 47.2948C8.47197 46.7667 8.39043 46.2188 8.3871 45.6677C8.38876 44.1223 9.00342 42.6406 10.0962 41.5478C11.189 40.455 12.6707 39.8404 14.2161 39.8387H17.2365C18.7819 39.8406 20.2634 40.4554 21.3561 41.5481C22.4489 42.6409 23.0636 44.1224 23.0656 45.6677C23.0656 46.2192 22.9765 46.7675 22.8234 47.2959C22.5607 47.2208 22.2893 47.1809 22.0161 47.1774V45.0806C22.0161 43.3466 20.605 41.9355 18.871 41.9355H17.8226V44.0323H18.871C19.149 44.0323 19.4157 44.1427 19.6123 44.3393C19.8089 44.5359 19.9194 44.8026 19.9194 45.0806C19.9194 45.3587 19.8089 45.6254 19.6123 45.822C19.4157 46.0186 19.149 46.129 18.871 46.129C17.0271 46.1304 15.2243 45.5846 13.6909 44.5606L12.8983 44.0323H12.5806C10.8466 44.0323 9.43548 45.4434 9.43548 47.1774ZM22.0161 49.2742C22.2942 49.2742 22.5608 49.3846 22.7575 49.5813C22.9541 49.7779 23.0645 50.0445 23.0645 50.3226C23.0645 50.6006 22.9541 50.8673 22.7575 51.0639C22.5608 51.2605 22.2942 51.371 22.0161 51.371V49.2742ZM22.0161 61.3527V60.8064C22.0153 59.8384 21.7906 58.8836 21.3596 58.0168C20.9286 57.15 20.3029 56.3947 19.5315 55.8098C20.4317 55.2523 21.1428 54.436 21.5716 53.4677H22.0161C23.7502 53.4677 25.1613 52.0566 25.1613 50.3226C25.1613 49.6642 24.9569 49.054 24.6088 48.5477C24.97 47.6303 25.1573 46.6537 25.1613 45.6677C25.1613 41.2981 21.6052 37.7419 17.2355 37.7419H14.2161C9.84645 37.7419 6.29032 41.2981 6.29032 45.6677C6.29032 46.6522 6.48532 47.6324 6.84282 48.5487C6.48255 49.0701 6.28981 49.6889 6.29032 50.3226C6.29032 52.0566 7.70145 53.4677 9.43548 53.4677H9.88C10.3088 54.436 11.0199 55.2523 11.9202 55.8098C11.1487 56.3947 10.523 57.15 10.092 58.0168C9.66097 58.8836 9.43628 59.8384 9.43548 60.8064V61.3527C5.08048 59.0756 2.09677 54.5193 2.09677 49.2742C2.09677 41.7594 8.21097 35.6452 15.7258 35.6452C23.2406 35.6452 29.3548 41.7594 29.3548 49.2742C29.3548 54.5193 26.3711 59.0756 22.0161 61.3527Z" fill="#7A1129"/>
</g>
<defs>
<clipPath id="clip0_676_2670">
<rect width="65" height="65" fill="white"/>
</clipPath>
</defs>
</svg>
