<svg width="60" height="60" viewBox="0 0 60 60" fill="none" xmlns="http://www.w3.org/2000/svg">
<g clip-path="url(#clip0_621_7549)">
<path d="M28.3937 20.4946H42.5657C43.4989 20.4946 44.2554 19.7381 44.2554 18.8049V4.68875C44.2554 4.24514 44.0832 3.84277 43.8036 3.54132M20.2135 3.54132C19.934 3.84277 19.7617 4.24514 19.7617 4.68875V18.8048C19.7617 19.738 20.5183 20.4945 21.4514 20.4945H24.3384" stroke="#7A1129" stroke-width="1.5" stroke-miterlimit="10" stroke-linecap="round" stroke-linejoin="round"/>
<path d="M33.2273 15.2458H30.7948C30.0171 15.2458 29.3867 14.6154 29.3867 13.8377V11.4052C29.3867 10.6274 30.0171 9.99707 30.7948 9.99707H33.2273C34.005 9.99707 34.6354 10.6274 34.6354 11.4052V13.8377C34.6354 14.6154 34.0049 15.2458 33.2273 15.2458Z" stroke="#7A1129" stroke-width="1.5" stroke-miterlimit="10" stroke-linecap="round" stroke-linejoin="round"/>
<path d="M34.6304 12.6216L43.801 3.54131C43.4923 3.20855 43.0528 2.99902 42.5631 2.99902H21.4488C20.9593 2.99902 20.5196 3.20855 20.2109 3.54131L29.3816 12.6216" stroke="#7A1129" stroke-width="1.5" stroke-miterlimit="10" stroke-linecap="round" stroke-linejoin="round"/>
<path d="M37.2582 2.99917V0.0632369C37.2582 -0.0861428 37.1988 -0.229404 37.0932 -0.335032C36.9876 -0.440659 36.8443 -0.5 36.6949 -0.5H27.3241C27.1748 -0.5 27.0315 -0.440659 26.9259 -0.335032C26.8203 -0.229404 26.7609 -0.0861428 26.7609 0.0632369V2.99905M37.7723 50.5883L34.0759 48.4542M43.4269 47.7923L36.6087 43.8558M47.5664 44.1217L39.7563 39.6124M30.26 31.2724V32.5785C30.26 32.7284 30.2516 32.8764 30.2353 33.0221M40.2791 35.3035C41.3201 34.3074 41.8755 32.8059 41.5282 31.2045M16.4525 44.1217L18.4383 42.9751C19.6935 42.2505 20.1235 40.6455 19.3988 39.3902C18.6742 38.135 17.0692 37.705 15.814 38.4297L13.8282 39.5761C12.573 40.3008 12.143 41.9058 12.8677 43.161C13.5923 44.4162 15.1974 44.8463 16.4525 44.1217ZM25.2861 54.1732C26.0108 55.4284 27.6158 55.8585 28.871 55.1337L30.3862 54.2589C31.6415 53.5342 32.0714 51.9292 31.3468 50.674C30.6221 49.4188 29.0171 48.9888 27.7619 49.7135L26.2467 50.5883C24.9916 51.313 24.5615 52.918 25.2861 54.1732Z" stroke="#7A1129" stroke-width="1.5" stroke-miterlimit="10" stroke-linecap="round" stroke-linejoin="round"/>
<path d="M45.9971 24.0718L41.5741 26.6254C40.2678 27.3796 38.7855 27.7756 37.2771 27.7733H27.8281C26.2728 27.7733 25.0119 29.0341 25.0119 30.5894V35.9578C25.0119 36.1071 25.0713 36.2504 25.1769 36.356C25.2825 36.4617 25.4258 36.521 25.5752 36.521H26.318C28.3455 36.521 30.0155 34.9906 30.2359 33.022H31.416C32.2421 33.022 33.0074 33.4709 33.3957 34.1999C34.162 35.6393 35.7094 36.5997 37.4722 36.5159C38.5536 36.4646 39.5395 36.0118 40.2798 35.3035C40.831 34.7761 41.6546 34.6561 42.3156 35.037L48.6624 38.6948L52.9954 36.193M19.0775 48.6671L23.6061 46.0525C24.8613 45.3279 25.2913 43.7229 24.5666 42.4677C23.842 41.2124 22.237 40.7825 20.9817 41.5071L16.4532 44.1217C15.198 44.8463 14.768 46.4513 15.4927 47.7065C16.2173 48.9618 17.8223 49.3918 19.0775 48.6671ZM19.6321 51.3773C20.3568 52.6325 21.9618 53.0626 23.217 52.3378L27.3396 49.9577C28.5948 49.233 29.0248 47.628 28.3001 46.3728C27.5754 45.1176 25.9704 44.6875 24.7152 45.4123L20.5927 47.7924C19.3375 48.517 18.9075 50.122 19.6321 51.3773Z" stroke="#7A1129" stroke-width="1.5" stroke-miterlimit="10" stroke-linecap="round" stroke-linejoin="round"/>
<path d="M25.9355 28.5031C25.6697 28.4409 25.4145 28.34 25.1781 28.2036L18.0216 24.0718M31.4855 53.0198L35.147 55.1337C36.4022 55.8584 38.0072 55.4283 38.7319 54.1732C39.4565 52.918 39.0264 51.313 37.7713 50.5883L40.8016 52.3378C42.0569 53.0625 43.6619 52.6324 44.3865 51.3773C45.1112 50.1221 44.6811 48.5171 43.426 47.7924L44.9411 48.6672C46.1963 49.3919 47.8013 48.9618 48.526 47.7067C49.2507 46.4514 48.8206 44.8464 47.5654 44.1218C48.8207 44.8464 50.4257 44.4164 51.1503 43.1612C51.875 41.906 51.4449 40.301 50.1898 39.5764L48.6606 38.6951M11.0233 36.1931L15.3544 38.6936M12.511 33.6163L10.2113 37.5994C10.1367 37.7287 10.0136 37.8231 9.86935 37.8618C9.72506 37.9005 9.57133 37.8802 9.44196 37.8055L4.29724 34.8354C4.21162 34.7859 4.14052 34.7148 4.09109 34.6292C4.04165 34.5436 4.01563 34.4465 4.01562 34.3476L4.01574 16.9612C4.01574 16.5276 4.48514 16.2565 4.86059 16.4734L18.0215 24.0719L14.4607 30.2394M13.2416 25.3526L8.64892 33.3074M49.9241 21.8036L45.9955 24.0718L53.8057 37.5994C53.8804 37.7287 54.0034 37.8231 54.1477 37.8618C54.2919 37.9005 54.4457 37.8802 54.575 37.8055L59.7198 34.8354C59.8054 34.7859 59.8765 34.7148 59.9259 34.6292C59.9754 34.5436 60.0014 34.4465 60.0014 34.3476L60.0013 16.9612C60.0013 16.5276 59.5319 16.2565 59.1564 16.4734L53.5043 19.7366M50.7754 25.3526L55.3681 33.3074" stroke="#7A1129" stroke-width="1.5" stroke-miterlimit="10" stroke-linecap="round" stroke-linejoin="round"/>
</g>
<defs>
<clipPath id="clip0_621_7549">
<rect width="60" height="60" fill="white"/>
</clipPath>
</defs>
</svg>
