<svg width="65" height="65" viewBox="0 0 65 65" fill="none" xmlns="http://www.w3.org/2000/svg">
<path d="M31.4844 5.07812H37.5781V7.10938H31.4844V5.07812ZM27.4219 5.07812H29.4531V7.10938H27.4219V5.07812ZM21.9233 53.8281H21.3281C20.2079 53.8281 19.2969 54.7391 19.2969 55.8594V57.8906C19.2969 59.0109 20.2079 59.9219 21.3281 59.9219H21.9233C22.4656 59.9219 22.9755 59.7106 23.3594 59.3267L25.8111 56.875L23.3594 54.4233C23.1713 54.234 22.9475 54.084 22.701 53.9818C22.4545 53.8796 22.1901 53.8274 21.9233 53.8281ZM21.9233 57.8906H21.3281V55.8594H21.9233L22.9389 56.875L21.9233 57.8906ZM33.5156 53.8281H31.4844C30.3641 53.8281 29.4531 54.7391 29.4531 55.8594V57.8906C29.4531 59.0109 30.3641 59.9219 31.4844 59.9219H33.5156C34.6359 59.9219 35.5469 59.0109 35.5469 57.8906V55.8594C35.5469 54.7391 34.6359 53.8281 33.5156 53.8281ZM31.4844 57.8906V55.8594H33.5156L33.5166 57.8906H31.4844ZM43.6719 53.8281H43.0767C42.5344 53.8281 42.0245 54.0394 41.6406 54.4233L39.1889 56.875L41.6406 59.3267C42.0245 59.7106 42.5344 59.9219 43.0767 59.9219H43.6719C44.7921 59.9219 45.7031 59.0109 45.7031 57.8906V55.8594C45.7031 54.7391 44.7921 53.8281 43.6719 53.8281ZM43.0767 57.8906L42.0611 56.875L43.0767 55.8594H43.6719L43.6729 57.8906H43.0767ZM25.3906 32.5C25.3906 27.4605 21.2895 23.3594 16.25 23.3594C11.2105 23.3594 7.10938 27.4605 7.10938 32.5C7.10938 37.5395 11.2105 41.6406 16.25 41.6406C21.2895 41.6406 25.3906 37.5395 25.3906 32.5ZM9.14062 32.5C9.14062 28.5797 12.3297 25.3906 16.25 25.3906C20.1703 25.3906 23.3594 28.5797 23.3594 32.5C23.3594 36.4203 20.1703 39.6094 16.25 39.6094C12.3297 39.6094 9.14062 36.4203 9.14062 32.5Z" fill="#7A1129"/>
<path d="M21.3281 32.5C21.3281 29.6999 19.0501 27.4219 16.25 27.4219C13.4499 27.4219 11.1719 29.6999 11.1719 32.5C11.1719 35.3001 13.4499 37.5781 16.25 37.5781C19.0501 37.5781 21.3281 35.3001 21.3281 32.5ZM13.2031 32.5C13.2031 30.8202 14.5702 29.4531 16.25 29.4531C17.9298 29.4531 19.2969 30.8202 19.2969 32.5C19.2969 34.1798 17.9298 35.5469 16.25 35.5469C14.5702 35.5469 13.2031 34.1798 13.2031 32.5Z" fill="#7A1129"/>
<path d="M51.7969 21.3281V6.09375C51.7969 3.29367 49.5188 1.01562 46.7188 1.01562H18.2812C15.4812 1.01562 13.2031 3.29367 13.2031 6.09375V17.2656H12.414L11.6898 20.1114C11.3609 20.2339 11.037 20.3694 10.7189 20.5177L8.19 19.0145L2.76453 24.44L4.26766 26.9679C4.11836 27.2898 3.98227 27.6148 3.86141 27.9388L1.01562 28.664V36.337L3.86141 37.0612C3.98227 37.3852 4.11734 37.7102 4.26766 38.0321L2.76453 40.561L8.19 45.9865L10.7189 44.4834C11.0409 44.6327 11.3648 44.7688 11.6898 44.8896L12.414 47.7344H13.2031V58.9062C13.2031 61.7063 15.4812 63.9844 18.2812 63.9844H46.7188C49.5188 63.9844 51.7969 61.7063 51.7969 58.9062V45.7031C58.5173 45.7031 63.9844 40.236 63.9844 33.5156C63.9844 26.7952 58.5173 21.3281 51.7969 21.3281ZM61.9531 33.5156C61.955 35.5281 61.3555 37.4952 60.2316 39.1645C59.772 38.0432 59.0927 37.0251 58.2337 36.1702C57.3747 35.3154 56.3533 34.6411 55.2297 34.187C55.7466 33.715 56.1598 33.1408 56.443 32.5007C56.7263 31.8607 56.8734 31.1687 56.875 30.4688C56.875 27.6687 54.597 25.3906 51.7969 25.3906C48.9968 25.3906 46.7188 27.6687 46.7188 30.4688C46.7188 31.9414 47.3596 33.2587 48.3641 34.187C47.2405 34.6411 46.2191 35.3154 45.36 36.1702C44.501 37.0251 43.8217 38.0432 43.3621 39.1645C42.2382 37.4952 41.6388 35.5281 41.6406 33.5156C41.6406 27.9155 46.1967 23.3594 51.7969 23.3594C57.397 23.3594 61.9531 27.9155 61.9531 33.5156ZM48.75 30.4688C48.75 28.7889 50.117 27.4219 51.7969 27.4219C53.4767 27.4219 54.8438 28.7889 54.8438 30.4688C54.8438 32.1486 53.4767 33.5156 51.7969 33.5156C50.117 33.5156 48.75 32.1486 48.75 30.4688ZM19.2969 47.7344H20.086L20.8102 44.8886C21.1341 44.7677 21.4591 44.6327 21.7811 44.4823L24.31 45.9855L29.7355 40.56L28.2323 38.0311C28.3816 37.7091 28.5177 37.3852 28.6386 37.0602L31.4844 36.336V28.663L28.6386 27.9388C28.5161 27.6099 28.3806 27.286 28.2323 26.9679L29.7355 24.44L24.31 19.0145L21.7811 20.5177C21.4629 20.3696 21.139 20.2341 20.8102 20.1114L20.086 17.2656H19.2969V11.1719H45.7031V22.9775C42.0662 25.089 39.6094 29.0164 39.6094 33.5156C39.6094 38.0148 42.0662 41.9423 45.7031 44.0537V49.7656H19.2969V47.7344ZM15.2344 6.09375C15.2344 4.41391 16.6014 3.04688 18.2812 3.04688H46.7188C48.3986 3.04688 49.7656 4.41391 49.7656 6.09375V21.512C49.0746 21.6285 48.3949 21.8048 47.7344 22.0391V9.14062H17.2656V17.2656H15.2344V6.09375ZM11.1384 42.4257L10.6377 42.1677L8.50992 43.4332L5.31781 40.2411L6.58328 38.1134L6.32531 37.6127C6.04009 37.0637 5.80093 36.4919 5.61031 35.9034L5.43867 35.3671L3.04688 34.7577V30.2433L5.43766 29.6349L5.6093 29.0987C5.79109 28.5309 6.0318 27.9561 6.3243 27.3884L6.58227 26.8877L5.3168 24.7599L8.50891 21.5678L10.6366 22.8333L11.1373 22.5753C11.6863 22.2901 12.2581 22.0509 12.8466 21.8603L13.3829 21.6887L13.9923 19.2969H18.5067L19.1151 21.6877L19.6513 21.8593C20.2201 22.0411 20.7939 22.2818 21.3606 22.5743L21.8613 22.8323L23.9891 21.5668L27.1812 24.7589L25.9157 26.8866L26.1737 27.3873C26.4662 27.9551 26.7069 28.5299 26.8887 29.0977L27.0603 29.6339L29.4531 30.2423V34.7567L27.0623 35.3651L26.8907 35.9013C26.7089 36.4701 26.4682 37.0439 26.1757 37.6106L25.9177 38.1113L27.1832 40.2391L23.9911 43.4312L21.8634 42.1657L21.3627 42.4237C20.7959 42.7162 20.2211 42.9569 19.6534 43.1387L19.1171 43.3103L18.5077 45.7031H13.9933L13.3849 43.3123L12.8487 43.1407C12.2597 42.9503 11.6876 42.7111 11.1384 42.4257ZM49.7656 58.9062C49.7656 60.5861 48.3986 61.9531 46.7188 61.9531H18.2812C16.6014 61.9531 15.2344 60.5861 15.2344 58.9062V47.7344H17.2656V51.7969H47.7344V44.9922C48.3884 45.2248 49.0659 45.4015 49.7656 45.5193V58.9062ZM44.9059 40.9551C45.6777 37.7924 48.4951 35.5469 51.7969 35.5469C55.0987 35.5469 57.916 37.7924 58.6879 40.9551C56.875 42.6349 54.4578 43.6719 51.7969 43.6719C49.1359 43.6719 46.7188 42.6349 44.9059 40.9551Z" fill="#7A1129"/>
<path d="M31.4844 12.5757V26.0185L44.9272 19.2971L31.4844 12.5757ZM33.5156 15.8622L40.3853 19.2971L33.5156 22.7319V15.8622Z" fill="#7A1129"/>
</svg>
