<svg width="65" height="65" viewBox="0 0 65 65" fill="none" xmlns="http://www.w3.org/2000/svg">
<path d="M23.3594 28.4375C19.4401 28.4375 16.25 31.6266 16.25 35.5469C16.25 39.4672 19.4401 42.6562 23.3594 42.6562C27.2787 42.6562 30.4688 39.4672 30.4688 35.5469C30.4688 31.6266 27.2787 28.4375 23.3594 28.4375ZM23.3594 40.625C20.5593 40.625 18.2812 38.347 18.2812 35.5469C18.2812 32.7468 20.5593 30.4688 23.3594 30.4688C26.1595 30.4688 28.4375 32.7468 28.4375 35.5469C28.4375 38.347 26.1595 40.625 23.3594 40.625Z" fill="#7A1129"/>
<path d="M23.3594 32.5C21.6795 32.5 20.3125 33.867 20.3125 35.5469C20.3125 37.2267 21.6795 38.5938 23.3594 38.5938C25.0392 38.5938 26.4062 37.2267 26.4062 35.5469C26.4062 33.867 25.0392 32.5 23.3594 32.5ZM23.3594 36.5625C23.0979 36.5508 22.851 36.4387 22.67 36.2495C22.4891 36.0603 22.3882 35.8086 22.3882 35.5469C22.3882 35.2851 22.4891 35.0334 22.67 34.8442C22.851 34.6551 23.0979 34.5429 23.3594 34.5312C23.6209 34.5429 23.8678 34.6551 24.0487 34.8442C24.2296 35.0334 24.3306 35.2851 24.3306 35.5469C24.3306 35.8086 24.2296 36.0603 24.0487 36.2495C23.8678 36.4387 23.6209 36.5508 23.3594 36.5625Z" fill="#7A1129"/>
<path d="M60.9375 13.2031H43.6201C43.6505 12.868 43.6719 12.5308 43.6719 12.1875C43.6719 6.02773 38.6598 1.01562 32.5 1.01562C26.3402 1.01562 21.3281 6.02773 21.3281 12.1875C21.3281 12.5308 21.3495 12.868 21.3799 13.2031H4.0625V19.2969H6.09375V53.8281H11.703L7.64055 63.9844H15.9209L19.9845 53.8281H45.0145L49.078 63.9844H57.3584L53.297 53.8281H58.9062V19.2969H60.9375V13.2031ZM32.5 3.04688C37.5405 3.04688 41.6406 7.14797 41.6406 12.1875C41.6406 17.227 37.5405 21.3281 32.5 21.3281C27.4595 21.3281 23.3594 17.227 23.3594 12.1875C23.3594 7.14797 27.4595 3.04688 32.5 3.04688ZM6.09375 15.2344H21.7608C21.9619 15.9433 22.231 16.6217 22.5611 17.2656H6.09375V15.2344ZM14.5468 61.9531H10.6397L13.8907 53.8281H17.7958L14.5468 61.9531ZM54.3593 61.9531H50.4522L47.2022 53.8281H51.1073L54.3593 61.9531ZM56.875 51.7969H8.125V19.2969H23.8885C24.9352 20.5676 26.2501 21.5909 27.739 22.2935C29.2278 22.996 30.8537 23.3604 32.5 23.3604C34.1463 23.3604 35.7722 22.996 37.261 22.2935C38.7499 21.5909 40.0648 20.5676 41.1115 19.2969H56.875V51.7969ZM58.9062 17.2656H42.4389C42.769 16.6217 43.0381 15.9433 43.2392 15.2344H58.9062V17.2656Z" fill="#7A1129"/>
<path d="M42.6563 24.375C40.9764 24.375 39.6094 25.742 39.6094 27.4219V34.5313H36.5198C36.4273 33.9682 36.1819 33.4413 35.8105 33.0081C35.439 32.5748 34.9558 32.2519 34.4134 32.0745C34.2657 32.0283 34.1301 31.9499 34.0165 31.8448C33.9028 31.7398 33.8139 31.6108 33.7563 31.4671C33.7045 31.3341 33.6507 31.2031 33.5938 31.072C33.5349 30.9305 33.5078 30.7776 33.5144 30.6244C33.5211 30.4712 33.5614 30.3213 33.6324 30.1854C33.9302 29.5986 34.0346 28.9326 33.9308 28.2827C33.827 27.6329 33.5203 27.0326 33.0545 26.5677L32.3385 25.8527C31.8739 25.3869 31.2738 25.08 30.6242 24.976C29.9746 24.872 29.3087 24.9763 28.7219 25.2738C28.4365 25.4201 28.1125 25.4323 27.8342 25.3124C27.7029 25.2554 27.5705 25.2009 27.4371 25.1489C27.294 25.0909 27.1654 25.0018 27.0608 24.8882C26.9561 24.7746 26.8779 24.6392 26.8318 24.4918C26.6274 23.8664 26.2303 23.3217 25.6974 22.9359C25.1645 22.55 24.5231 22.3427 23.8652 22.3438H22.8536C22.1956 22.343 21.5542 22.5504 21.0213 22.9365C20.4883 23.3225 20.0913 23.8673 19.887 24.4928C19.7854 24.7995 19.566 25.0392 19.2837 25.1489C19.149 25.2006 19.0156 25.2555 18.8835 25.3134C18.7419 25.3724 18.5891 25.3995 18.4359 25.3928C18.2827 25.3862 18.1328 25.3459 17.9969 25.2748C17.4101 24.9775 16.7442 24.8733 16.0946 24.9773C15.445 25.0813 14.8449 25.388 14.3802 25.8538L13.6632 26.5698C13.1979 27.0345 12.8916 27.6345 12.7879 28.284C12.6843 28.9334 12.7888 29.5989 13.0863 30.1854C13.2316 30.4728 13.2448 30.7958 13.1239 31.0741C13.0681 31.2041 13.0142 31.3351 12.9614 31.4702C12.8507 31.7545 12.611 31.9749 12.3033 32.0755C11.6782 32.2798 11.1337 32.6768 10.7481 33.2095C10.3624 33.7423 10.1552 34.3834 10.1563 35.0411V36.0527C10.1556 36.7107 10.3632 37.352 10.7492 37.8849C11.1352 38.4177 11.6799 38.8148 12.3053 39.0193C12.612 39.1198 12.8507 39.3402 12.9624 39.6266C13.0142 39.7597 13.0681 39.8907 13.1249 40.0217C13.1839 40.1633 13.211 40.3161 13.2043 40.4693C13.1976 40.6226 13.1574 40.7724 13.0863 40.9084C12.7887 41.495 12.6842 42.1609 12.7881 42.8105C12.8919 43.4602 13.1985 44.0603 13.6642 44.525L14.3802 45.24C14.8447 45.706 15.4448 46.013 16.0945 46.117C16.7442 46.2209 17.4101 46.1166 17.9969 45.8189C18.2843 45.6727 18.6073 45.6605 18.8845 45.7803C19.0156 45.8372 19.1486 45.892 19.2816 45.9438C19.565 46.0535 19.7854 46.2942 19.887 46.6009C20.091 47.2266 20.488 47.7716 21.021 48.1577C21.5539 48.5438 22.1955 48.7511 22.8536 48.75H23.8652C24.5232 48.7508 25.1646 48.5433 25.6975 48.1573C26.2304 47.7712 26.6275 47.2264 26.8318 46.6009C26.9334 46.2942 27.1527 46.0545 27.4351 45.9448C27.5702 45.8931 27.7032 45.8382 27.8352 45.7803C28.1115 45.6595 28.4355 45.6737 28.7219 45.8189C29.3087 46.1163 29.9746 46.2205 30.6242 46.1165C31.2738 46.0125 31.8738 45.7057 32.3385 45.24L33.0545 44.524C33.5201 44.0594 33.8268 43.4595 33.9306 42.81C34.0344 42.1605 33.93 41.4949 33.6324 40.9084C33.561 40.7722 33.5207 40.6219 33.5142 40.4682C33.5077 40.3146 33.5352 40.1614 33.5948 40.0197C33.6507 39.8897 33.7045 39.7587 33.7573 39.6236C33.868 39.3392 34.1077 39.1188 34.4155 39.0183C34.9577 38.8408 35.4408 38.5178 35.812 38.0846C36.1833 37.6513 36.4285 37.1245 36.5209 36.5615H39.6094V43.6709C39.6094 45.3507 40.9764 46.7177 42.6563 46.7177H44.6875V49.7646H54.8438V41.6396H44.6875V44.6865H42.6563C42.0956 44.6865 41.6406 44.2305 41.6406 43.6709V36.5615H44.6875V39.6084H54.8438V31.4834H44.6875V34.5302H41.6406V27.4209C41.6406 26.8613 42.0956 26.4052 42.6563 26.4052H44.6875V29.4521H54.8438V21.3271H44.6875V24.374L42.6563 24.375ZM34.5313 36.0527C34.5313 36.5249 34.2286 36.9413 33.7807 37.0896C33.3482 37.2283 32.9519 37.4614 32.6206 37.7722C32.2893 38.0829 32.0313 38.4635 31.8652 38.8863C31.8216 38.9959 31.7769 39.1056 31.7302 39.2133C31.5518 39.6284 31.4672 40.0777 31.4825 40.5293C31.4978 40.9808 31.6125 41.4234 31.8185 41.8255C32.0318 42.247 31.9506 42.7558 31.6174 43.0889L30.9014 43.8049C30.5673 44.1381 30.0605 44.2213 29.638 44.007C29.2361 43.801 28.7936 43.6862 28.3423 43.6709C27.8909 43.6557 27.4417 43.7402 27.0268 43.9187C26.9202 43.9644 26.8125 44.0091 26.7018 44.0527C26.2787 44.2189 25.8979 44.4771 25.5868 44.8086C25.2757 45.14 25.0422 45.5365 24.9031 45.9692C24.8312 46.1876 24.6921 46.3777 24.5057 46.5123C24.3193 46.6469 24.0951 46.7192 23.8652 46.7188H22.8536C22.3803 46.7188 21.9649 46.4171 21.8166 45.9662C21.677 45.5335 21.4431 45.1372 21.1317 44.806C20.8203 44.4747 20.4392 44.2167 20.0159 44.0507C19.9079 44.0085 19.8005 43.9645 19.694 43.9187C19.3137 43.7528 18.9033 43.6674 18.4884 43.6678C18.0081 43.6678 17.5266 43.7816 17.0808 44.006C16.6583 44.2193 16.1515 44.137 15.8173 43.8029L15.1013 43.0879C14.9388 42.9252 14.8319 42.7154 14.7957 42.4883C14.7596 42.2612 14.7962 42.0285 14.9002 41.8234C15.1061 41.4215 15.2209 40.9792 15.2363 40.5278C15.2518 40.0765 15.1675 39.6273 14.9896 39.2123C14.9422 39.1046 14.8972 38.9959 14.8545 38.8863C14.6882 38.4632 14.43 38.0825 14.0986 37.7714C13.7671 37.4603 13.3708 37.2268 12.9381 37.0876C12.7195 37.0168 12.529 36.8784 12.3941 36.6924C12.2592 36.5064 12.1869 36.2824 12.1875 36.0527V35.0411C12.1875 34.5688 12.4902 34.1524 12.9381 34.0041C13.3706 33.8655 13.7669 33.6323 14.0982 33.3216C14.4295 33.0109 14.6875 32.6303 14.8535 32.2075C14.8972 32.0978 14.9419 31.9881 14.9886 31.8805C15.167 31.4654 15.2515 31.016 15.2363 30.5645C15.221 30.113 15.1063 29.6704 14.9002 29.2683C14.687 28.8468 14.7682 28.338 15.1013 28.0048L15.8173 27.2888C15.9795 27.1258 16.1891 27.0184 16.4162 26.9821C16.6432 26.9458 16.8759 26.9824 17.0808 27.0867C17.4825 27.2932 17.925 27.4082 18.3765 27.4235C18.8279 27.4387 19.2772 27.3539 19.692 27.1751C19.7986 27.1294 19.9063 27.0847 20.017 27.041C20.44 26.8748 20.8209 26.6167 21.132 26.2852C21.4431 25.9538 21.6766 25.5573 21.8156 25.1245C21.8876 24.9061 22.0267 24.7161 22.2131 24.5815C22.3995 24.4469 22.6237 24.3746 22.8536 24.375H23.8652C24.3384 24.375 24.7538 24.6766 24.9021 25.1276C25.0417 25.5603 25.2757 25.9565 25.5871 26.2878C25.8985 26.6191 26.2796 26.877 26.7028 27.0431C26.8115 27.0857 26.9191 27.1294 27.0248 27.1751C27.4398 27.3537 27.8892 27.4383 28.3407 27.4231C28.7923 27.4078 29.2349 27.2929 29.637 27.0867C29.842 26.9826 30.0747 26.9461 30.3017 26.9826C30.5288 27.0191 30.7384 27.1267 30.9004 27.2898L31.6154 28.0038C31.9495 28.339 32.0308 28.8468 31.8175 29.2693C31.6116 29.6712 31.4969 30.1136 31.4814 30.5649C31.466 31.0162 31.5502 31.4654 31.7281 31.8805C31.7759 31.9881 31.8205 32.0978 31.8632 32.2065C32.0295 32.6295 32.2877 33.0103 32.6192 33.3214C32.9506 33.6324 33.347 33.866 33.7797 34.0052C34.2296 34.1514 34.5313 34.5688 34.5313 35.0411V36.0527ZM46.7188 43.6719H52.8125V47.7344H46.7188V43.6719ZM46.7188 33.5156H52.8125V37.5781H46.7188V33.5156ZM46.7188 23.3594H52.8125V27.4219H46.7188V23.3594ZM33.5156 15.2344H31.4844C30.9238 15.2344 30.4688 14.7784 30.4688 14.2188H28.4375C28.4375 15.8986 29.8045 17.2656 31.4844 17.2656V19.2969H33.5156V17.2656C35.1955 17.2656 36.5625 15.8986 36.5625 14.2188C36.5625 12.5389 35.1955 11.1719 33.5156 11.1719H31.4844C31.2229 11.1602 30.976 11.0481 30.795 10.8589C30.6141 10.6697 30.5132 10.418 30.5132 10.1563C30.5132 9.89449 30.6141 9.64281 30.795 9.45362C30.976 9.26444 31.2229 9.15232 31.4844 9.14063H33.5156C34.0763 9.14063 34.5313 9.59664 34.5313 10.1563H36.5625C36.5625 8.47641 35.1955 7.10938 33.5156 7.10938V5.07812H31.4844V7.10938C29.8045 7.10938 28.4375 8.47641 28.4375 10.1563C28.4375 11.8361 29.8045 13.2031 31.4844 13.2031H33.5156C33.7771 13.2148 34.024 13.3269 34.205 13.5161C34.3859 13.7053 34.4868 13.957 34.4868 14.2188C34.4868 14.4805 34.3859 14.7322 34.205 14.9214C34.024 15.1106 33.7771 15.2227 33.5156 15.2344Z" fill="#7A1129"/>
</svg>
