<svg width="60" height="60" viewBox="0 0 60 60" fill="none" xmlns="http://www.w3.org/2000/svg">
<g clip-path="url(#clip0_621_7541)">
<path d="M19.892 44.5586H9.49219M9.49219 44.5586C7.87418 44.5586 6.5625 45.8703 6.5625 47.4883V55.6914C6.5625 57.3094 7.87418 58.6211 9.49219 58.6211H51.6797C52.6505 58.6211 53.4375 57.8341 53.4375 56.8633C53.4375 55.8925 52.6505 55.1055 51.6797 55.1055H10.0781V48.0742H51.6797C52.6505 48.0742 53.4375 47.2872 53.4375 46.3164C53.4375 45.3456 52.6505 44.5586 51.6797 44.5586M9.49219 44.5586C7.87418 44.5586 6.5625 43.2469 6.5625 41.6289V36.9414C6.5625 35.3234 7.87418 34.0117 9.49219 34.0117H51.6797C52.6505 34.0117 53.4375 34.7987 53.4375 35.7695C53.4375 36.7403 52.6505 37.5273 51.6797 37.5273H10.0781V41.043H51.6797C52.6505 41.043 53.4375 41.83 53.4375 42.8008C53.4375 43.7716 52.6505 44.5586 51.6797 44.5586M51.6797 44.5586H23.9936M51.0938 48.0742V55.1055M38.4375 51.5898H10.5469M51.0938 51.5898H45.561M51.0938 37.5273V41.043M49.6301 19.3445V34.0117M10.3699 26.0437V19.3496M10.3699 34.0117V30.1452M40.4014 21.3793L34.6123 22.6877M32.4797 6.9877H49.3184C50.4025 6.9877 51.2814 7.8666 51.2814 8.9507V17.8745C51.2814 18.4861 50.8577 19.0162 50.2611 19.1511L44.405 20.4746M25.3856 22.6872L9.73887 19.1511C9.4492 19.0856 9.19041 18.9236 9.00501 18.6916C8.81961 18.4596 8.71862 18.1715 8.71863 17.8745V8.9507C8.71863 7.8666 9.59754 6.9877 10.6816 6.9877H28.3781M23.4566 6.9223V2.72266C23.4566 1.4282 24.5059 0.378906 25.8004 0.378906H34.1995C35.494 0.378906 36.5433 1.4282 36.5433 2.72266V6.9223" stroke="#7A1129" stroke-width="1.5" stroke-miterlimit="10" stroke-linecap="round" stroke-linejoin="round"/>
<path d="M32.6156 25.178V26.7603C32.6156 28.0547 31.5663 29.104 30.2719 29.104H29.7247C28.4303 29.104 27.381 28.0547 27.381 26.7603V25.178M33.4068 25.178H26.5898C25.9426 25.178 25.418 24.6534 25.418 24.0061V21.1152C25.418 20.468 25.9426 19.9434 26.5898 19.9434H33.4068C34.054 19.9434 34.5786 20.468 34.5786 21.1152V24.0061C34.5786 24.6532 34.0539 25.178 33.4068 25.178Z" stroke="#7A1129" stroke-width="1.5" stroke-miterlimit="10" stroke-linecap="round" stroke-linejoin="round"/>
</g>
<defs>
<clipPath id="clip0_621_7541">
<rect width="60" height="60" fill="white"/>
</clipPath>
</defs>
</svg>
