<svg width="90" height="90" viewBox="0 0 90 90" fill="none" xmlns="http://www.w3.org/2000/svg">
<path d="M71.4806 60.785V56.9914C71.4806 55.2913 70.1141 53.907 68.4141 53.8848C66.7746 53.8636 65.401 55.1201 65.2762 56.7548C65.2244 57.4338 65.0274 58.0936 64.6987 58.6899C64.3699 59.2862 63.917 59.805 63.3706 60.2112L53.6172 67.3935" stroke="#7A1129" stroke-width="2.5" stroke-miterlimit="10" stroke-linecap="round" stroke-linejoin="round"/>
<path d="M62.0092 61.2254L61.8678 59.1811C61.733 57.2308 60.12 55.7126 58.1652 55.6961C56.2425 55.6797 54.62 57.1229 54.4121 59.0343C54.342 59.6782 54.1348 60.2995 53.8044 60.8566C53.474 61.4136 53.028 61.8933 52.4966 62.2634L48.988 64.6363M30.2734 80.1935L34.4387 78.2852C35.9209 77.6061 37.5152 77.2052 39.1423 77.1024L55.8354 76.0475C59.0026 75.8473 62.055 74.7859 64.6631 72.9778L69.6324 69.5327" stroke="#7A1129" stroke-width="2.5" stroke-miterlimit="10" stroke-linecap="round" stroke-linejoin="round"/>
<path d="M73.8285 66.6216L75.5856 65.4035C77.6701 63.9582 79.2875 61.936 80.2394 59.5847C81.1186 57.4128 79.5201 55.0413 77.1769 55.0413C76.5513 55.0413 75.9385 55.219 75.4099 55.5536C74.8812 55.8882 74.4585 56.366 74.1907 56.9315L73.2445 58.9301C72.9071 59.6428 72.3691 60.2416 71.6964 60.653L62.7446 66.1279C61.3905 66.956 59.8341 67.3943 58.2469 67.3944H38.4203L45.6421 67.3624C47.3822 67.3472 48.7847 65.9324 48.7847 64.1923C48.7847 62.4415 47.3655 61.0221 45.6145 61.0221H39.5713C38.26 61.0221 36.9863 60.5839 35.9525 59.7771C35.0089 59.0405 33.873 58.5915 32.6808 58.4837C31.4886 58.3759 30.2906 58.614 29.2301 59.1694L21.3672 63.2874M13.9391 75.4922L20.4537 87.7834C20.6622 88.1768 21.0175 88.4719 21.4425 88.6046C21.8674 88.7373 22.3276 88.6968 22.7229 88.492L30.405 84.5107C31.2384 84.0788 31.5597 83.0501 31.1203 82.2208L20.4585 62.0954C20.2522 61.7061 19.902 61.4128 19.4825 61.2781C19.0631 61.1434 18.6076 61.1779 18.2132 61.3744L10.462 65.2349C9.61205 65.6582 9.27807 66.6986 9.72262 67.5374L11.55 70.9854M53.316 18.6114C53.3596 18.9577 53.3846 19.3097 53.3846 19.6678C53.3846 24.2958 49.6329 28.0475 45.0049 28.0475C40.3769 28.0475 36.6252 24.2958 36.6252 19.6678C36.6252 15.0398 40.3769 11.2881 45.0049 11.2881C47.4382 11.2881 49.6281 12.3263 51.159 13.9825M70.9794 26.5066L71.8159 23.9592H74.9652L75.8018 26.5066L78.8407 27.7654L81.2334 26.5554L83.4604 28.7824L82.2505 31.1752L83.5093 34.2141L86.0567 35.0506V38.1999L83.5093 39.0364L82.2505 42.0754L83.4604 44.4681L81.2334 46.6949L78.8407 45.485L75.8018 46.7438L74.9652 49.2912H71.8159L70.9794 46.7438L67.9405 45.485L65.5478 46.6949L63.3208 44.4679L64.5307 42.0752L63.2719 39.0363L60.7245 38.1997V35.0504L63.2719 34.2139L64.5307 31.175L63.3208 28.7822L65.5478 26.5553L67.9405 27.7652L70.9794 26.5066ZM68.217 36.6253C68.217 39.4826 70.5333 41.7988 73.3906 41.7988C76.2479 41.7988 78.5642 39.4826 78.5642 36.6253C78.5642 33.7679 76.2479 31.4517 73.3906 31.4517C70.5333 31.4517 68.217 33.7679 68.217 36.6253ZM14.2082 27.0339L15.0447 24.4865H18.194L19.0306 27.0339L22.0695 28.2927L24.4622 27.0828L26.6892 29.3098L25.4793 31.7025L26.7381 34.7414L29.2855 35.5779V38.7272L26.7381 39.5638L25.4793 42.6027L26.6892 44.9954L24.4622 47.2224L22.0695 46.0125L19.0306 47.2713L18.194 49.8187H15.0446L14.208 47.2713L11.1691 46.0125L8.77639 47.2222L6.54941 44.9953L7.75932 42.6025L6.50055 39.5636L3.95312 38.7271V35.5778L6.50055 34.7412L7.75932 31.7023L6.54941 29.3096L8.77639 27.0828L11.1691 28.2927L14.2082 27.0339ZM11.4458 37.1526C11.4458 40.0099 13.7621 42.3262 16.6194 42.3262C19.4767 42.3262 21.793 40.0099 21.793 37.1526C21.793 34.2953 19.4767 31.979 16.6194 31.979C13.7621 31.979 11.4458 34.2953 11.4458 37.1526ZM59.6638 16.1747L57.8403 11.7722L59.593 8.30584L56.3669 5.07973L52.9005 6.83244L48.498 5.00889L47.286 1.31836H42.7236L41.5118 5.00889L37.1093 6.83244L33.6429 5.07973L30.4168 8.30584L32.1695 11.7722L30.346 16.1747L26.6556 17.3865V21.9489L30.346 23.1608L32.1695 27.5632L30.4168 31.0296L33.6429 34.2557L37.1093 32.5032L41.5118 34.3267L42.7236 38.0171H47.286L48.4979 34.3267L52.9003 32.5032L56.3667 34.2557L59.5928 31.0296L57.8401 27.5632L59.6637 23.1608L63.354 21.9489V17.3865L59.6638 16.1747Z" stroke="#7A1129" stroke-width="2.5" stroke-miterlimit="10" stroke-linecap="round" stroke-linejoin="round"/>
</svg>
