<svg width="65" height="65" viewBox="0 0 65 65" fill="none" xmlns="http://www.w3.org/2000/svg">
<g clip-path="url(#clip0_676_2782)">
<path d="M0.000631332 54.281V46.3628L3.03374 45.5878C3.05471 45.5367 3.07568 45.4854 3.0977 45.4347L1.50101 42.7436L7.10031 37.1443L9.79139 38.741C9.84302 38.719 9.89426 38.6981 9.94445 38.6771L10.7195 35.645H18.6377L19.4127 38.6781C19.4638 38.6991 19.515 38.7201 19.5658 38.7421L22.2568 37.1454L27.8561 42.7447L26.2595 45.4358C26.2815 45.4874 26.3024 45.5386 26.3234 45.5888L29.3555 46.3639V54.2821L26.3224 55.0571C26.3014 55.1082 26.2804 55.1594 26.2584 55.2101L27.8551 57.9012L22.2558 63.5005L19.5647 61.9038C19.5131 61.9259 19.4618 61.9468 19.4116 61.9678L18.6366 64.9999H10.7184L9.9434 61.9667C9.89229 61.9458 9.84105 61.9248 9.79034 61.9028L7.09926 63.4995L1.49996 57.9002L3.09665 55.2091C3.07463 55.1575 3.05367 55.1062 3.0327 55.056L0.000631332 54.281ZM4.13429 57.5701L7.43042 60.8662L9.67109 59.5367L10.1754 59.7778C10.5011 59.933 10.8346 60.0712 11.1746 60.192L11.7027 60.3794L12.3464 62.9031H17.0089L17.6523 60.3794L18.1807 60.192C18.5211 60.0723 18.8547 59.934 19.18 59.7778L19.6841 59.5367L21.9248 60.8662L25.2209 57.5701L23.8915 55.3294L24.1327 54.8251C24.2878 54.4994 24.426 54.1659 24.5468 53.8259L24.7342 53.2978L27.2587 52.6541V47.9916L24.735 47.3482L24.5476 46.8198C24.4279 46.4794 24.2896 46.1458 24.1335 45.8205L23.8923 45.3164L25.2218 43.0757L21.9257 39.7796L19.685 41.109L19.1807 40.8678C18.855 40.7127 18.5215 40.5745 18.1815 40.4537L17.6534 40.2663L17.0097 37.7418H12.3472L11.7038 40.2655L11.1754 40.4529C10.835 40.5726 10.5014 40.7109 10.1761 40.867L9.672 41.1082L7.43134 39.7787L4.13521 43.0748L5.46456 45.3155L5.22343 45.8197C5.0683 46.1455 4.93008 46.479 4.80932 46.819L4.62192 47.3471L2.0974 47.9908V52.6533L4.62113 53.2967L4.80853 53.8251C4.92823 54.1655 5.06647 54.4991 5.22265 54.8243L5.46378 55.3285L4.13429 57.5701Z" fill="#7A1129"/>
<path d="M14.6793 41.9355C19.304 41.9355 23.0664 45.6979 23.0664 50.3226C23.0664 54.9473 19.304 58.7097 14.6793 58.7097C10.0546 58.7097 6.29221 54.9473 6.29221 50.3226C6.29221 45.6979 10.0546 41.9355 14.6793 41.9355ZM14.6793 56.613C18.1486 56.613 20.9696 53.7919 20.9696 50.3226C20.9696 46.8534 18.1486 44.0323 14.6793 44.0323C11.2101 44.0323 8.38899 46.8534 8.38899 50.3226C8.38899 53.7919 11.2101 56.613 14.6793 56.613Z" fill="#7A1129"/>
<path d="M14.6774 46.129C16.9902 46.129 18.871 48.0098 18.871 50.3226C18.871 52.6353 16.9902 54.5161 14.6774 54.5161C12.3647 54.5161 10.4839 52.6353 10.4839 50.3226C10.4839 48.0098 12.3647 46.129 14.6774 46.129ZM14.6774 52.4194C15.8338 52.4194 16.7742 51.479 16.7742 50.3226C16.7742 49.1662 15.8338 48.2258 14.6774 48.2258C13.521 48.2258 12.5806 49.1662 12.5806 50.3226C12.5806 51.479 13.521 52.4194 14.6774 52.4194ZM38.4493 17.7514C38.0981 18.7809 37.487 19.6884 36.6936 20.4016V21.2908L41.6786 23.1598C43.7133 23.922 45.0806 25.8944 45.0806 28.0674V33.5484H19.9194V28.0674C19.9194 25.8944 21.2867 23.922 23.3205 23.1587L28.3065 21.2897V20.4016C27.513 19.6895 26.9017 18.7819 26.5507 17.7514C24.5751 17.4125 23.0645 15.6987 23.0645 13.629V9.43548C23.0645 4.23352 27.297 0 32.5 0C37.703 0 41.9355 4.23352 41.9355 9.43548V13.629C41.9355 15.6987 40.4249 17.4125 38.4493 17.7514ZM30.4032 21.7259L32.5 25.2201L34.5968 21.7259V21.6491C33.9394 21.883 33.2361 22.0161 32.5 22.0161C31.7639 22.0161 31.0606 21.8821 30.4032 21.6492V21.7259ZM36.0952 23.3046L33.9814 26.826L36.0813 27.8754L37.4379 23.8077L36.0952 23.3046ZM22.0161 28.0674V31.4516H42.9839V28.0674C42.9839 26.7631 42.1638 25.5805 40.9429 25.1224L39.4015 24.545L37.3058 30.8332L32.5 28.4303L27.6942 30.8332L25.5985 24.545L24.056 25.1234C22.8362 25.5805 22.0161 26.7631 22.0161 28.0674ZM27.5621 23.8078L28.9187 27.8765L31.0185 26.827L28.9048 23.3046L27.5621 23.8078ZM32.5 19.9194C34.8127 19.9194 36.6936 18.0385 36.6936 15.7258V11.4611C35.159 11.2994 33.7106 10.7398 32.5 9.78761C31.2894 10.7409 29.841 11.2994 28.3065 11.4611V15.7258C28.3065 18.0385 30.1873 19.9194 32.5 19.9194ZM26.2097 15.4345V11.8245C25.5856 12.1885 25.1613 12.8576 25.1613 13.6301C25.1613 14.4025 25.5856 15.0704 26.2097 15.4345ZM32.5 2.09677C28.4544 2.09677 25.1613 5.38884 25.1613 9.43548V10.0186C25.7808 9.65761 26.4908 9.43548 27.2581 9.43548H27.4383C29.0707 9.43548 30.6054 8.80016 31.7588 7.64589L32.5 6.90363L33.2412 7.64589C34.3956 8.80016 35.9293 9.43548 37.5617 9.43548H37.7419C38.5092 9.43548 39.2192 9.65761 39.8387 10.0186V9.43548C39.8387 5.38884 36.5456 2.09677 32.5 2.09677ZM38.7903 11.8236V15.4336C39.4144 15.0695 39.8387 14.4005 39.8387 13.628C39.8387 12.8556 39.4144 12.1876 38.7903 11.8236ZM65 65H44.0323V37.7419H65V65ZM62.9032 39.8387H46.129V62.9032H62.9032V39.8387Z" fill="#7A1129"/>
<path d="M60.8047 41.9355H48.224V44.0323H60.8047V41.9355ZM60.8047 46.129H58.7079V48.2258H60.8047V46.129ZM56.6111 46.129H48.224V48.2258H56.6111V46.129ZM60.8047 50.3226H48.224V52.4194H60.8047V50.3226ZM60.8047 54.5161H48.224V56.6129H60.8047V54.5161ZM50.3208 58.7097H48.224V60.8065H50.3208V58.7097ZM60.8047 58.7097H52.4176V60.8065H60.8047V58.7097ZM36.999 46.8703L38.4814 45.3878L43.4161 50.3226L38.4814 55.2574L36.999 53.7749L39.4029 51.371H31.4499V49.2742H39.4029L36.999 46.8703ZM53.466 16.7742C53.466 16.1968 52.996 15.7258 52.4176 15.7258H47.6097L50.0136 18.1298L48.5312 19.6122L43.5965 14.6774L48.5312 9.74268L50.0136 11.2251L47.6097 13.629H52.4176C54.1514 13.629 55.5628 15.0404 55.5628 16.7742V35.6452H53.466V16.7742ZM14.6757 16.7742V29.9692L17.0796 27.5653L18.562 29.0477L13.6273 33.9824L8.69251 29.0477L10.1749 27.5653L12.5789 29.9692V16.7742C12.5789 15.0404 13.9903 13.629 15.724 13.629H20.966V15.7258H15.724C15.1456 15.7258 14.6757 16.1968 14.6757 16.7742Z" fill="#7A1129"/>
</g>
<defs>
<clipPath id="clip0_676_2782">
<rect width="65" height="65" fill="white" transform="matrix(-1 0 0 1 65 0)"/>
</clipPath>
</defs>
</svg>
