<svg width="60" height="61" viewBox="0 0 60 61" fill="none" xmlns="http://www.w3.org/2000/svg">
<g clip-path="url(#clip0_621_7571)">
<path d="M38.7339 45.2856C38.7339 45.2856 37.9919 47.7963 35.447 47.1728C32.9022 46.5494 26.875 45.0981 26.875 45.0981" stroke="#7A1129" stroke-width="1.5" stroke-miterlimit="10" stroke-linecap="round" stroke-linejoin="round"/>
<path d="M38.7339 45.2856C38.7339 45.2856 37.9919 47.7963 35.447 47.1728C32.9022 46.5494 26.875 45.0981 26.875 45.0981" stroke="#7A1129" stroke-width="1.5" stroke-miterlimit="10" stroke-linecap="round" stroke-linejoin="round"/>
<path d="M36.6706 13.0716C39.8994 13.0716 42.517 10.4541 42.517 7.22527C42.517 3.99641 39.8994 1.37891 36.6706 1.37891C33.4417 1.37891 30.8242 3.99641 30.8242 7.22527C30.8242 10.4541 33.4417 13.0716 36.6706 13.0716Z" stroke="#7A1129" stroke-width="1.5" stroke-miterlimit="10" stroke-linecap="round" stroke-linejoin="round"/>
<path d="M51.2756 10.9067C53.6478 10.9067 55.5708 8.98371 55.5708 6.61156C55.5708 4.23941 53.6478 2.31641 51.2756 2.31641C48.9035 2.31641 46.9805 4.23941 46.9805 6.61156C46.9805 8.98371 48.9035 10.9067 51.2756 10.9067Z" stroke="#7A1129" stroke-width="1.5" stroke-miterlimit="10" stroke-linecap="round" stroke-linejoin="round"/>
<path d="M22.0686 10.9067C24.4407 10.9067 26.3638 8.98371 26.3638 6.61156C26.3638 4.23941 24.4407 2.31641 22.0686 2.31641C19.6964 2.31641 17.7734 4.23941 17.7734 6.61156C17.7734 8.98371 19.6964 10.9067 22.0686 10.9067Z" stroke="#7A1129" stroke-width="1.5" stroke-miterlimit="10" stroke-linecap="round" stroke-linejoin="round"/>
<path d="M52.8449 10.9067H49.7022C47.1026 10.9067 44.8596 12.5093 43.9108 14.7749C45.8241 16.2086 47.1198 18.424 47.3193 20.9357H57.5094C58.3986 20.9357 59.1197 20.2148 59.1197 19.3256V17.1815C59.1196 13.7303 56.2959 10.9067 52.8449 10.9067ZM29.4275 14.775C28.4787 12.5093 26.2357 10.9067 23.6361 10.9067H20.4934C17.0423 10.9067 14.2188 13.7303 14.2188 17.1814V19.3255C14.2188 20.2148 14.9397 20.9357 15.829 20.9356H26.0192C26.2185 18.424 27.5143 16.2086 29.4275 14.775Z" stroke="#7A1129" stroke-width="1.5" stroke-miterlimit="10" stroke-linecap="round" stroke-linejoin="round"/>
<path d="M38.3679 28.9144H45.1584C46.3688 28.9144 47.3502 27.933 47.3502 26.7226V21.6123C47.3502 16.915 43.5069 13.0716 38.8095 13.0716H34.5317C29.8343 13.0716 25.991 16.915 25.991 21.6123V26.7225C25.991 27.933 26.9722 28.9143 28.1828 28.9143H34.2663M12.0453 55.8608L16.337 54.2315C19.4083 53.2304 22.6281 53.1292 25.2068 54.1582L30.6829 56.3444C31.8799 56.757 34.6297 57.3993 37.4831 55.9368L37.4855 55.9357L43.2081 53.4043L46.9594 51.7451L56.603 47.4794C57.1818 47.1826 60.0924 45.4363 58.7884 42.4713C57.2769 39.315 53.7981 40.807 53.506 40.9162L38.7363 45.2857C38.7363 45.2857 39.7474 42.3151 36.6855 41.0931C28.1998 37.7055 27.1879 37.1327 25.0403 37.0986L25.04 37.0984C18.4013 37.1205 17.1985 37.1746 13.8993 38.6513C12.1801 39.4216 10.5389 40.3552 8.9982 41.4393C7.99343 42.1456 6.8785 42.6804 5.6943 43.0061L1.6643 44.1141C1.43861 44.1762 1.23953 44.3106 1.09765 44.4968C0.955764 44.683 0.878916 44.9106 0.878906 45.1446V58.5514C0.878906 59.2994 1.62762 59.8161 2.32701 59.5505L8.21081 57.3167" stroke="#7A1129" stroke-width="1.5" stroke-miterlimit="10" stroke-linecap="round" stroke-linejoin="round"/>
</g>
<defs>
<clipPath id="clip0_621_7571">
<rect width="60" height="60" fill="white" transform="translate(0 0.5)"/>
</clipPath>
</defs>
</svg>
