<svg width="60" height="60" viewBox="0 0 60 60" fill="none" xmlns="http://www.w3.org/2000/svg">
<g clip-path="url(#clip0_621_7521)">
<path d="M14.5149 24.1052C14.4978 23.6201 14.0893 23.239 13.6056 23.2579C13.4902 23.262 13.3768 23.2887 13.2718 23.3366C13.1668 23.3845 13.0723 23.4526 12.9936 23.5371C12.9149 23.6215 12.8536 23.7206 12.8133 23.8288C12.7729 23.9369 12.7543 24.0519 12.7584 24.1673C12.7991 25.2972 12.9508 26.4205 13.2114 27.5207C14.1198 31.3703 16.25 34.6942 19.3723 37.1332C22.411 39.5041 26.1848 40.8098 29.9987 40.8098C31.3337 40.8091 32.6641 40.6534 33.9633 40.3458C43.2197 38.1607 48.9735 28.8516 46.7894 19.5938C45.8794 15.7427 43.7487 12.419 40.6276 9.98172C37.59 7.61069 33.8161 6.30482 30.001 6.30482C28.6737 6.30482 27.3399 6.46103 26.0365 6.76898C21.5619 7.82489 17.7616 10.5684 15.3358 14.4945C14.2531 16.2474 13.4982 18.1437 13.0921 20.1307C13.0685 20.244 13.0675 20.3608 13.0891 20.4745C13.1107 20.5882 13.1546 20.6964 13.2182 20.7931C13.2818 20.8898 13.3638 20.9729 13.4596 21.0378C13.5554 21.1027 13.6631 21.148 13.7764 21.1712C13.8898 21.1944 14.0066 21.195 14.1202 21.1729C14.2338 21.1508 14.3419 21.1065 14.4383 21.0425C14.5347 20.9785 14.6176 20.8962 14.6821 20.8001C14.7466 20.7041 14.7915 20.5962 14.8142 20.4827C15.1789 18.6987 15.8574 16.9946 16.8311 15.4182C19.0101 11.8919 22.4227 9.42769 26.4404 8.47958C27.6071 8.20335 28.8019 8.0634 30.0009 8.06253C33.426 8.06253 36.8157 9.23622 39.5457 11.3671C42.3484 13.5556 44.2616 16.5401 45.0785 19.9976C47.0401 28.3118 41.8726 36.6725 33.5589 38.6351C32.3922 38.9114 31.1974 39.0514 29.9985 39.0521C26.5744 39.0521 23.1846 37.8784 20.4537 35.7476C17.6503 33.5578 15.7375 30.5733 14.9219 27.1167C14.6879 26.1286 14.5516 25.1199 14.5149 24.1052Z" fill="#7A1129"/>
<path d="M37.3705 12.1367C35.1525 10.7056 32.6038 9.94922 30.0003 9.94922C28.9549 9.94922 27.903 10.0723 26.8733 10.3149C23.3466 11.1481 20.3497 13.3128 18.4345 16.4103C16.5202 19.5085 15.9247 23.1568 16.7577 26.6831C17.4745 29.7194 19.1538 32.3394 21.6142 34.26C24.0151 36.1338 26.9924 37.1657 29.9978 37.1657C31.0452 37.1657 32.0975 37.0422 33.1246 36.7988C36.6565 35.9651 39.6552 33.8017 41.568 30.7071C43.481 27.6124 44.0752 23.9633 43.2415 20.4317C42.7479 18.3426 41.8086 16.4628 40.4495 14.8447C40.2996 14.6662 40.085 14.5546 39.8528 14.5344C39.6206 14.5142 39.3899 14.587 39.2114 14.7369C39.0329 14.8868 38.9213 15.1014 38.9011 15.3336C38.8809 15.5658 38.9537 15.7965 39.1036 15.975C40.2844 17.381 41.1011 19.0164 41.5309 20.8357C42.2567 23.9101 41.739 27.0876 40.0729 29.7829C38.4068 32.4781 35.7958 34.3622 32.7199 35.0882C31.828 35.2999 30.9145 35.4072 29.9978 35.4079C27.3824 35.4079 24.789 34.5081 22.6957 32.8742C20.5541 31.2025 19.0923 28.9219 18.4684 26.279C17.7433 23.2096 18.2623 20.033 19.9297 17.3344C21.5979 14.6362 24.2074 12.7508 27.277 12.0255C28.1694 11.8146 29.0832 11.7077 30.0002 11.7068C32.2651 11.7068 34.4841 12.3662 36.4175 13.6136C36.6133 13.7374 36.8501 13.7789 37.0764 13.7291C37.3026 13.6792 37.5001 13.542 37.6257 13.3474C37.7513 13.1527 37.795 12.9163 37.7472 12.6895C37.6994 12.4628 37.564 12.2641 37.3705 12.1367Z" fill="#7A1129"/>
<path d="M52.4171 23.5805L54.0257 17.6008C54.0658 17.4518 54.066 17.2949 54.0262 17.1459C53.9864 16.9969 53.9081 16.8609 53.7991 16.7517L49.4247 12.3682L47.8285 6.38522C47.7887 6.23614 47.7104 6.10016 47.6014 5.99094C47.4925 5.88172 47.3567 5.8031 47.2077 5.76299L41.2281 4.15445L36.8537 -0.229045C36.7447 -0.338213 36.6089 -0.416786 36.46 -0.456873C36.311 -0.496961 36.1541 -0.497153 36.0051 -0.45743L30.022 1.1388L24.0422 -0.469851C23.8933 -0.509907 23.7364 -0.510051 23.5873 -0.470271C23.4383 -0.43049 23.3023 -0.352186 23.1931 -0.243224L18.8098 4.13113L12.8268 5.72736C12.6777 5.76714 12.5417 5.84545 12.4325 5.95442C12.3233 6.0634 12.2447 6.1992 12.2045 6.34819L10.5959 12.3278L6.21239 16.7023C6.10322 16.8113 6.02465 16.947 5.98456 17.096C5.94447 17.245 5.94428 17.4018 5.984 17.5509L7.58024 23.5339L5.97158 29.5136C5.9315 29.6626 5.93135 29.8195 5.97113 29.9685C6.01091 30.1176 6.08923 30.2535 6.19821 30.3627L10.5726 34.7461L12.1688 40.7291C12.2086 40.8782 12.2869 41.0142 12.3959 41.1234C12.5048 41.2326 12.6406 41.3112 12.7896 41.3513L15.1181 41.9778L8.3746 53.661C7.98814 54.6163 8.47644 55.1046 9.36338 54.9492L14.6337 53.5362L16.0467 58.8076C16.2566 59.5912 17.2064 59.7527 17.6566 59.0195L24.3162 47.4852L28.3329 46.4127C28.5555 46.3503 28.7445 46.2026 28.859 46.0018C28.9735 45.8009 29.0043 45.563 28.9447 45.3397C28.885 45.1163 28.7398 44.9254 28.5404 44.8084C28.341 44.6914 28.1035 44.6576 27.8794 44.7144L24.0295 45.7424L19.8472 41.5515C19.7382 41.4423 19.6024 41.3637 19.4534 41.3236L13.7364 39.7856L12.2104 34.0654C12.1706 33.9163 12.0923 33.7803 11.9833 33.6711L7.80101 29.4801L9.339 23.763C9.37906 23.614 9.37922 23.4571 9.33947 23.3081L7.81331 17.588L12.0043 13.4057C12.1135 13.2968 12.1921 13.161 12.2322 13.012L13.7702 7.29501L19.4904 5.76885C19.6395 5.72908 19.7755 5.65075 19.8847 5.54175L24.0756 1.35946L29.7928 2.89745C29.9417 2.93745 30.0985 2.93761 30.2475 2.89792L35.9679 1.37176L40.1502 5.56272C40.2592 5.67194 40.395 5.75054 40.544 5.79064L46.261 7.32864L47.787 13.0488C47.8268 13.1979 47.9051 13.3339 48.0141 13.4431L52.1964 17.6341L50.6584 23.3512C50.6184 23.5001 50.6182 23.657 50.6579 23.806L52.1841 29.5264L47.9931 33.7087C47.8839 33.8177 47.8053 33.9534 47.7652 34.1024L46.2272 39.8194L40.5071 41.3456C40.358 41.3854 40.222 41.4637 40.1127 41.5727L35.9219 45.7549L32.1653 44.7431C32.0537 44.7126 31.9372 44.7044 31.8224 44.719C31.7076 44.7336 31.5968 44.7707 31.4964 44.8283C31.396 44.8858 31.308 44.9626 31.2373 45.0542C31.1667 45.1459 31.1148 45.2506 31.0847 45.3623C31.0546 45.474 31.0469 45.5906 31.062 45.7053C31.0771 45.8201 31.1147 45.9307 31.1726 46.0309C31.2305 46.131 31.3077 46.2188 31.3996 46.289C31.4916 46.3593 31.5965 46.4107 31.7083 46.4404L35.7696 47.5341L42.4005 59.0195C42.7774 59.6725 43.8064 59.7135 44.0105 58.8074L45.4224 53.5362L50.6926 54.9491C51.6382 55.1631 52.0677 54.5576 51.6813 53.6608L44.9392 41.9822L47.1708 41.3868C47.3198 41.3471 47.4558 41.2688 47.565 41.1598C47.6743 41.0508 47.7529 40.915 47.793 40.766L49.4017 34.7864L53.7851 30.4119C53.8943 30.3029 53.9729 30.1672 54.013 30.0182C54.0531 29.8692 54.0533 29.7124 54.0135 29.5633L52.4171 23.5805ZM19.3752 43.567L16.7345 48.1405C16.0895 49.2574 17.6948 50.0031 18.2567 49.0194L20.6609 44.8554L22.6528 46.8514L17.1954 56.3036L16.1041 52.2323C15.9168 51.7279 15.558 51.5209 15.0277 51.611L10.9579 52.702L16.8751 42.4504L18.7695 42.96L19.3752 43.567ZM49.0982 52.702L45.0286 51.611C44.4981 51.5209 44.1393 51.728 43.952 52.2325L42.8618 56.303L37.3708 46.7923L39.3648 44.8024L41.7994 49.0192C42.5371 50.1831 43.9666 49.2572 43.3216 48.1403L40.6525 43.5174L41.1876 42.9833L43.1804 42.4517L49.0982 52.702Z" fill="#7A1129"/>
<path d="M37.4703 21.428C37.3824 21.1539 37.219 20.91 36.9989 20.7245C36.7788 20.5389 36.5109 20.4191 36.2258 20.3788L32.8777 19.8922L31.3804 16.8583C31.1188 16.3283 30.5892 15.999 29.9981 15.999C29.4071 15.999 28.8774 16.3283 28.6159 16.8583L27.1185 19.8922L23.7703 20.3788C23.1854 20.4638 22.7085 20.8658 22.526 21.428C22.436 21.7014 22.4249 21.9947 22.4939 22.2741C22.5629 22.5536 22.7092 22.8079 22.9161 23.0081L25.3388 25.3696L24.7668 28.7043C24.6669 29.2868 24.9019 29.8645 25.3801 30.212C25.9099 30.5626 26.4511 30.6017 27.0035 30.3293L29.9981 28.7548L32.9928 30.3292C33.5159 30.6042 34.1379 30.5592 34.6161 30.212C35.0943 29.8647 35.3293 29.2868 35.2294 28.7042L34.6575 25.3696L37.0802 23.0081C37.287 22.8079 37.4334 22.5536 37.5024 22.2741C37.5714 21.9947 37.5602 21.7014 37.4703 21.428ZM33.0997 24.4336C32.9976 24.533 32.9213 24.6558 32.8772 24.7914C32.8332 24.9269 32.8228 25.0711 32.8469 25.2115L33.423 28.5696L30.4072 26.9841C30.1345 26.8496 29.8618 26.8496 29.5893 26.9841L26.5735 28.5696L27.1496 25.2115C27.1737 25.0711 27.1633 24.9269 27.1192 24.7914C27.0752 24.6558 26.9989 24.533 26.8968 24.4336L24.457 22.0553L27.8288 21.5653C27.9698 21.5448 28.1037 21.4904 28.219 21.4066C28.3342 21.3229 28.4274 21.2123 28.4905 21.0845L29.9984 18.0292L31.5062 21.0845C31.5693 21.2123 31.6625 21.3228 31.7778 21.4066C31.893 21.4903 32.0269 21.5448 32.168 21.5653L35.5397 22.0553L33.0997 24.4336Z" fill="#7A1129"/>
</g>
<defs>
<clipPath id="clip0_621_7521">
<rect width="60" height="60" fill="white"/>
</clipPath>
</defs>
</svg>
