<svg width="60" height="60" viewBox="0 0 60 60" fill="none" xmlns="http://www.w3.org/2000/svg">
<path d="M59.2947 34.8619C58.1661 33.1144 56.0039 32.4034 54.0735 33.1122C54.2259 32.3624 54.1169 31.5831 53.7644 30.9041C53.2733 29.9571 52.3895 29.3387 51.4071 29.1542C51.8803 28.1938 52.2744 27.2135 52.575 26.2238C52.7063 25.7918 52.5146 25.3125 52.1013 25.1308C51.9873 25.0801 51.8638 25.0543 51.7391 25.0551C51.6143 25.0558 51.4912 25.0831 51.3778 25.1351C51.2644 25.1871 51.1634 25.2626 51.0815 25.3567C50.9995 25.4507 50.9385 25.5611 50.9025 25.6805C49.5849 30.0497 46.3192 34.2489 42.0726 37.0882L40.6315 37.5642C40.6709 37.3979 40.6991 37.2277 40.7158 37.0542C40.7918 36.2649 40.6097 35.4647 40.194 34.7894C39.6056 33.8336 38.6542 33.2138 37.5635 33.0599C34.3137 32.6013 31.0584 31.8016 27.8464 31.1426C24.8877 30.5359 23.0445 30.1941 22.3869 30.2351C21.5624 30.288 20.8031 30.5562 20.0954 30.9213C20.0148 30.8055 19.9356 30.6887 19.8577 30.5711C17.8508 27.5175 16.8165 24.205 16.8663 20.9916C16.9131 17.9795 18.3067 15.2768 20.7903 13.3814C22.3754 12.1718 24.3493 11.5057 26.3483 11.5057C29.7435 11.5057 32.3042 13.7107 33.3738 17.5553C33.4308 17.76 33.5599 17.9372 33.7374 18.0541C33.9149 18.1709 34.1287 18.2196 34.3393 18.191C34.6917 18.1441 34.9782 17.8747 35.0742 17.5324C36.1474 13.7019 38.7047 11.5057 42.0931 11.5057C44.0922 11.5057 46.066 12.1719 47.6511 13.3814C50.1346 15.2768 51.5282 17.9795 51.5752 20.9915C51.5795 21.2756 51.5757 21.5631 51.5635 21.8463C51.5444 22.2911 51.8412 22.7029 52.2793 22.7822C52.8135 22.8787 53.2947 22.4824 53.3184 21.9573C53.3333 21.6287 53.3382 21.2947 53.3332 20.9644C53.2777 17.4022 51.6386 14.2128 48.7178 11.9839C46.828 10.5417 44.4754 9.74744 42.0931 9.74744C38.6429 9.74744 35.8204 11.6144 34.2208 14.8479C32.6213 11.6144 29.7987 9.74744 26.3485 9.74744C23.9664 9.74744 21.6137 10.5417 19.7239 11.9838C16.8029 14.2128 15.1639 17.4022 15.1086 20.9644C15.0532 24.5317 16.1873 28.1876 18.3885 31.5368C18.4572 31.6413 18.5286 31.7451 18.5997 31.8487C18.3854 31.9996 18.1723 32.1521 17.9604 32.3063C16.8814 33.0875 15.4526 33.7582 14.094 33.811C13.6823 33.8269 10.1984 33.5565 10.1984 33.1405V32.4581C10.1984 30.9751 8.99621 29.7729 7.51322 29.7729H2.68515C1.20215 29.7729 1.97648e-08 30.9751 1.97648e-08 32.458V33.8045C1.97648e-08 34.2859 0.370984 34.7057 0.85215 34.7201C0.969815 34.7237 1.08701 34.7037 1.19677 34.6611C1.30654 34.6186 1.40664 34.5544 1.49115 34.4725C1.57565 34.3905 1.64284 34.2924 1.68871 34.184C1.73459 34.0756 1.75823 33.9591 1.75822 33.8414V32.4581C1.75822 32.2123 1.85588 31.9765 2.02971 31.8027C2.20354 31.6288 2.43931 31.5312 2.68515 31.5312H7.51322C7.75902 31.5312 7.99476 31.6288 8.16857 31.8026C8.34239 31.9764 8.44003 32.2122 8.44003 32.458V46.5674C8.44003 46.8133 8.34237 47.0491 8.16854 47.2229C7.99471 47.3967 7.75894 47.4944 7.5131 47.4944H2.68503C2.56332 47.4944 2.4428 47.4704 2.33036 47.4238C2.21791 47.3773 2.11574 47.309 2.02968 47.2229C1.94361 47.1369 1.87534 47.0347 1.82877 46.9222C1.78219 46.8098 1.75822 46.6893 1.75822 46.5676V38.0045C1.75822 37.5231 1.38723 37.1033 0.906068 37.0889C0.788405 37.0853 0.671208 37.1053 0.561435 37.1478C0.451662 37.1903 0.351549 37.2545 0.267039 37.3364C0.18253 37.4184 0.115345 37.5165 0.0694722 37.6249C0.0235999 37.7333 -2.49449e-05 37.8498 1.97648e-08 37.9675V46.5674C1.97648e-08 48.0504 1.20215 49.2526 2.68515 49.2526H7.51322C8.9961 49.2526 10.1982 48.0504 10.1982 46.5676V45.4504L16.4623 45.0848L16.4859 45.083C17.8589 44.9678 19.2406 45.1539 20.5343 45.6281C27.183 48.0771 27.3179 48.1266 27.3197 48.1272C28.6949 48.6338 30.0231 48.8379 31.316 48.8379C34.0646 48.8378 36.6517 47.9146 39.1799 47.0123C39.7552 46.8069 40.3502 46.5946 40.9369 46.3969C43.5202 45.5265 46.1847 44.7353 48.7616 43.9702C51.6161 43.1226 57.5088 41.2273 57.5419 41.211C58.952 40.5182 59.5069 39.6408 59.8412 38.4294C60.0065 37.8298 60.0433 37.202 59.9491 36.5873C59.8549 35.9725 59.6319 35.3845 59.2947 34.8619ZM50.4485 30.8916C50.7908 30.8162 51.1484 30.8559 51.4658 31.0045C51.7832 31.1531 52.0427 31.4024 52.2038 31.7137C52.3102 31.9185 52.3708 32.144 52.3814 32.3745C52.392 32.6051 52.3523 32.8352 52.2651 33.0489C52.0887 33.4822 51.7327 33.8149 51.2777 33.9652L46.7555 35.5244C48.1902 34.1108 49.4376 32.5445 50.4485 30.8916ZM58.1464 37.9614C58.1098 38.0941 58.0629 38.2236 58.0061 38.349C57.7059 39.0119 57.123 39.5052 56.4341 39.7398C53.7332 40.6597 50.9536 41.485 48.2611 42.2845C45.6692 43.0542 42.989 43.8499 40.3756 44.7306C39.7738 44.9332 39.1715 45.1483 38.5888 45.3563C35.0095 46.6338 31.6287 47.8405 27.9268 46.4771L21.142 43.9782C19.9102 43.5244 18.5892 43.2913 17.2733 43.2913C16.9642 43.2913 16.6554 43.3042 16.348 43.3301L10.1981 43.6891V34.9815C12.7761 35.743 15.6587 36.1 18.5316 34.0611C19.71 33.2249 20.9891 32.0866 22.4991 31.9899C23.0526 31.9545 26.2762 32.6155 27.4914 32.8648C30.7375 33.5306 33.9963 34.1501 37.2488 34.7902C37.2694 34.7943 37.2903 34.7976 37.3111 34.8C39.7554 35.087 39.2859 38.9486 36.7934 38.6167C36.7856 38.6156 36.7778 38.6147 36.77 38.6139L29.0026 37.79C28.4839 37.734 28.0198 38.1455 28.0309 38.6862C28.0402 39.1332 28.4028 39.4945 28.8474 39.5416L36.5733 40.3611C37.1009 40.4297 37.626 40.385 38.1206 40.2342C38.1648 40.2268 54.5128 34.8286 54.539 34.8186C55.1149 34.5686 55.761 34.5317 56.3616 34.7145C56.9623 34.8972 57.4783 35.2877 57.8175 35.8161C58.0204 36.1303 58.1546 36.4839 58.2113 36.8536C58.268 37.2233 58.2458 37.6009 58.1464 37.9614Z" fill="#7A1129"/>
</svg>
