<svg width="60" height="60" viewBox="0 0 60 60" fill="none" xmlns="http://www.w3.org/2000/svg">
<g clip-path="url(#clip0_621_7604)">
<path d="M48.0425 30.5266C47.929 30.5057 47.8125 30.5075 47.6996 30.5317C47.5868 30.5559 47.4798 30.6021 47.3848 30.6676C47.2898 30.7332 47.2086 30.8168 47.146 30.9137C47.0833 31.0106 47.0404 31.119 47.0196 31.2325C46.9776 31.4618 47.0283 31.6983 47.1607 31.8902C47.2931 32.082 47.4963 32.2134 47.7255 32.2554C52.6932 33.1663 56.2986 37.4955 56.2986 42.5492C56.2986 47.629 52.6604 51.8745 47.8531 52.8183C47.8436 52.8198 47.834 52.8204 47.8245 52.8222C47.1683 52.9495 46.5015 53.014 45.833 53.0147C40.0623 53.0147 35.3674 48.3198 35.3674 42.5492C35.3674 37.4296 39.0546 33.1512 43.9406 32.2554C44.1698 32.2134 44.373 32.082 44.5054 31.8902C44.6378 31.6983 44.6885 31.4618 44.6465 31.2325C44.559 30.755 44.1003 30.4387 43.6236 30.5266C40.8222 31.0402 38.3936 32.4862 36.6288 34.507L31.164 32.3905V29.3404C33.1443 27.8243 34.5099 25.5459 34.8199 22.947C37.1736 22.8426 38.9261 20.9594 38.9261 18.7204C38.9266 17.6919 38.5499 16.6989 37.8673 15.9296V12.0721C37.8676 5.13977 32.2278 -0.5 25.2957 -0.5C18.3636 -0.5 12.7237 5.13977 12.7237 12.072V16.0293C12.0384 16.7867 11.6654 17.725 11.6654 18.7203C11.6654 20.9568 13.4143 22.8422 15.7711 22.9468C16.0798 25.562 17.4602 27.9352 19.6341 29.4876V32.3904L7.28328 37.1787C7.27775 37.1808 7.27225 37.183 7.26676 37.1853C7.04938 37.2747 1.94141 39.4432 1.94141 45.4135V57.509C1.94141 58.6068 2.83449 59.5 3.93242 59.5H46.8889C47.9814 59.5 48.8703 58.6113 48.8703 57.5186V54.3909C54.1459 53.0369 58.0565 48.2413 58.0565 42.5494C58.0565 36.6468 53.8449 31.5905 48.0425 30.5266ZM33.7348 35.2711L30.5686 41.6167C30.5257 41.5863 29.7312 41.0219 26.6717 38.849L30.5649 34.0434L33.7348 35.2711ZM27.6665 41.712L26.7613 43.0745H24.044L23.1389 41.712L25.4027 40.1042L27.6665 41.712ZM21.3922 32.6729V30.4791C22.5799 30.99 23.9887 31.2883 25.4203 31.2883C26.7997 31.2883 28.1656 30.9862 29.4063 30.4073V32.6812L25.4026 37.6232L21.3922 32.6729ZM36.3181 20.5772C35.9185 20.9209 35.4268 21.1257 34.8895 21.179V16.2623C37.1407 16.4802 37.9265 19.1939 36.3181 20.5772ZM15.7023 21.179C14.3509 21.0452 13.4234 19.9629 13.4234 18.7204C13.4234 17.4746 14.5051 16.4985 15.7023 16.3022V21.179ZM15.731 14.526C15.3214 14.5634 14.8345 14.6843 14.4816 14.8218V12.072C14.4816 6.10914 19.3327 1.25793 25.2956 1.25793C31.2583 1.25793 36.1096 6.10902 36.1096 12.072V14.7447C35.7166 14.6053 35.3058 14.5222 34.8895 14.4981C34.8895 13.4418 35.0179 13.7424 31.9555 10.4569C31.7107 10.1942 31.4234 9.80875 30.8159 9.68113C30.6004 9.63578 30.3781 9.63347 30.1617 9.67434C29.9453 9.7152 29.7391 9.79844 29.555 9.91926C26.1011 12.1755 21.7668 13.442 17.6036 13.1692C16.5862 13.1021 15.8878 13.6806 15.731 14.526ZM17.4602 21.8192V14.922C21.9328 15.2215 26.6517 13.8975 30.4583 11.4286C32.0466 13.1352 32.9011 14.0209 33.1317 14.318C33.1317 23.0856 33.1337 21.5255 33.1268 22.012C33.0242 26.1555 29.6274 29.5304 25.4203 29.5304C20.7398 29.5305 17.4602 25.9218 17.4602 21.8192ZM20.2351 34.0456L24.1291 38.8521L20.2365 41.617L17.0702 35.2714L20.2351 34.0456ZM11.8361 57.7422V47.2872C11.8361 46.8018 11.4427 46.4083 10.9572 46.4083C10.4717 46.4083 10.0783 46.8018 10.0783 47.2872V57.7422H3.93242C3.87063 57.7421 3.8114 57.7175 3.76771 57.6738C3.72402 57.6301 3.69943 57.5709 3.69934 57.5091V45.4137C3.69934 40.685 7.69332 38.9143 7.9298 38.8137L15.4235 35.9085L18.72 42.5151L18.7201 42.5152C18.8263 42.7284 18.9775 42.916 19.1632 43.0651C19.3489 43.2142 19.5648 43.3212 19.7959 43.3789C20.6525 43.5931 21.1626 43.1154 21.7047 42.7305L22.648 44.1501L20.3475 57.7422H11.8361ZM38.9762 57.7421H30.4578L29.6689 53.0807C29.6506 52.966 29.6098 52.8561 29.5488 52.7573C29.4878 52.6585 29.4078 52.5728 29.3134 52.5051C29.2191 52.4373 29.1123 52.389 28.9991 52.3628C28.886 52.3366 28.7688 52.3331 28.6543 52.3525C28.5398 52.3719 28.4303 52.4138 28.3321 52.4757C28.2338 52.5377 28.1489 52.6185 28.0821 52.7135C28.0153 52.8084 27.9679 52.9157 27.9428 53.0291C27.9177 53.1425 27.9153 53.2597 27.9358 53.374L28.6752 57.7421H22.1305L24.3155 44.8323H26.4902L27.2416 49.2721C27.2608 49.3859 27.3023 49.4949 27.3636 49.5927C27.4249 49.6905 27.5049 49.7753 27.599 49.8421C27.6932 49.909 27.7995 49.9567 27.9121 49.9824C28.0246 50.0081 28.1411 50.0114 28.2549 49.9921C28.4847 49.9532 28.6897 49.8246 28.8247 49.6346C28.9597 49.4446 29.0137 49.2087 28.9748 48.9789L28.1575 44.1501L29.1008 42.7305L29.6541 43.1235C30.4797 43.71 31.6336 43.4202 32.0852 42.5153H32.0853L35.3816 35.9091L35.5316 35.9671C34.2759 37.9329 33.6091 40.2169 33.6097 42.5495C33.6097 46.7501 35.7398 50.4624 38.9763 52.6635L38.9762 57.7421ZM47.1126 57.5187C47.1126 57.578 47.089 57.6348 47.0471 57.6767C47.0052 57.7186 46.9484 57.7421 46.8891 57.7422H40.7341V53.6571C42.2869 54.3728 44.0142 54.773 45.8333 54.773C46.2654 54.773 46.692 54.7502 47.1127 54.7062L47.1126 57.5187Z" fill="#7A1129"/>
<path d="M49.992 39.952C49.8293 39.7851 49.6069 39.6896 49.3738 39.6866C49.1407 39.6836 48.916 39.7733 48.749 39.9361L45.2935 43.3043L43.8459 41.8854C43.6794 41.7222 43.4549 41.6318 43.2218 41.6341C42.9886 41.6365 42.766 41.7313 42.6028 41.8978C42.4396 42.0643 42.3493 42.2888 42.3516 42.522C42.3539 42.7551 42.4488 42.9777 42.6153 43.1409L44.6765 45.1609C44.8407 45.3221 45.0616 45.4124 45.2917 45.4121C45.521 45.4124 45.7412 45.3228 45.9052 45.1626L49.976 41.1949C50.0586 41.1143 50.1246 41.0183 50.1702 40.9122C50.2157 40.8062 50.2399 40.6922 50.2414 40.5768C50.2429 40.4614 50.2216 40.3468 50.1789 40.2396C50.1361 40.1324 50.0726 40.0347 49.992 39.952Z" fill="#7A1129"/>
<path d="M45.835 33.4175C40.7997 33.4175 36.7031 37.514 36.7031 42.5493C36.7031 47.5846 40.7997 51.6812 45.835 51.6812C50.8703 51.6812 54.9668 47.5846 54.9668 42.5493C54.9668 37.514 50.8703 33.4175 45.835 33.4175ZM45.835 49.9231C41.769 49.9231 38.4611 46.6151 38.4611 42.5492C38.4611 38.4833 41.7689 35.1753 45.835 35.1753C49.9009 35.1753 53.2089 38.4833 53.2089 42.5492C53.2089 46.6151 49.9009 49.9231 45.835 49.9231Z" fill="#7A1129"/>
</g>
<defs>
<clipPath id="clip0_621_7604">
<rect width="60" height="60" fill="white"/>
</clipPath>
</defs>
</svg>
