<svg width="90" height="90" viewBox="0 0 90 90" fill="none" xmlns="http://www.w3.org/2000/svg">
<g clip-path="url(#clip0_676_2358)">
<path d="M15.875 29.1626V37.5086C15.875 37.6253 15.9696 37.7198 16.0863 37.7198H25.3707C25.4874 37.7198 25.582 37.8144 25.582 37.9311V44.4899C25.582 44.6781 25.8096 44.7724 25.9427 44.6393L32.8003 37.7817C32.8398 37.7422 32.8936 37.7198 32.9497 37.7198H40.0549C40.111 37.7198 40.1648 37.7422 40.2044 37.7817L44.8466 42.4239C44.8862 42.4635 44.9399 42.4857 44.996 42.4857C45.052 42.4857 45.1057 42.4635 45.1454 42.4239L49.7876 37.7817C49.8271 37.7422 49.8809 37.7198 49.937 37.7198H57.0423C57.0983 37.7198 57.1521 37.7422 57.1917 37.7817L64.0493 44.6393C64.1823 44.7724 64.41 44.6781 64.41 44.4899V37.9311C64.41 37.8144 64.5045 37.7198 64.6212 37.7198H73.9057C74.0224 37.7198 74.117 37.6253 74.117 37.5086V1.52965C74.117 1.41293 74.0224 1.31836 73.9057 1.31836H16.0865C15.9697 1.31836 15.8752 1.41293 15.8752 1.52965V23.0099" stroke="#7A1129" stroke-width="2" stroke-miterlimit="10" stroke-linecap="round" stroke-linejoin="round"/>
<path d="M25.5788 81.9605V88.6808M15.8717 74.1202L11.0182 76.547L8.96749 70.395C8.84462 70.0264 9.25771 69.711 9.58097 69.9264L15.8717 74.1202ZM15.8717 74.1202L20.7251 76.547L22.7758 70.395C22.8987 70.0264 22.4858 69.711 22.1623 69.9264L15.8717 74.1202ZM53.0701 11.0245L43.7794 20.3153L37.54 14.0759L33.103 18.513L43.3988 28.8089L57.1266 15.081L53.0701 11.0245Z" stroke="#7A1129" stroke-width="2" stroke-miterlimit="10" stroke-linecap="round" stroke-linejoin="round"/>
<path d="M9.11877 70.8463L5.33895 71.7913C2.97258 72.3828 1.3125 74.509 1.3125 76.9484V88.4921C1.3125 88.597 1.39758 88.6821 1.50252 88.6821H30.4337V76.9484C30.4337 74.509 28.7736 72.3828 26.407 71.7913L22.6272 70.8463M6.166 81.9618V88.6821M11.9019 66.2735V67.8761C11.9018 68.404 11.7582 68.922 11.4865 69.3747C11.2148 69.8273 10.8253 70.1976 10.3594 70.446M21.3865 70.4459C20.9207 70.1975 20.5311 69.8272 20.2594 69.3745C19.9877 68.9219 19.8441 68.4039 19.8441 67.8759V66.2733" stroke="#7A1129" stroke-width="2" stroke-miterlimit="10" stroke-linecap="round" stroke-linejoin="round"/>
<path d="M13.4453 75.3352V78.9754M13.4453 78.9754H18.2988M13.4453 78.9754V88.6824M18.2988 78.9754V75.3352M18.2988 78.9754V80.4785M18.2988 88.6824V86.631M64.4073 81.9621V88.6824M74.1143 74.1217L78.9678 76.5486L81.0184 70.3966C81.1413 70.028 80.7282 69.7126 80.405 69.9279L74.1143 74.1217ZM74.1143 74.1217L69.2608 76.5486L67.2101 70.3966C67.0872 70.028 67.5003 69.7126 67.8236 69.9279L74.1143 74.1217Z" stroke="#7A1129" stroke-width="2" stroke-miterlimit="10" stroke-linecap="round" stroke-linejoin="round"/>
<path d="M80.8696 70.8475L84.6494 71.7925C87.0158 72.3842 88.676 74.5102 88.676 76.9495V88.4933C88.676 88.5982 88.5909 88.6833 88.486 88.6833H59.5547V76.9495C59.5547 74.5102 61.2148 72.384 63.5813 71.7925L67.3611 70.8475M83.8223 81.963V88.6833" stroke="#7A1129" stroke-width="2" stroke-miterlimit="10" stroke-linecap="round" stroke-linejoin="round"/>
<path d="M76.5366 75.3351V78.9753M76.5366 78.9753H71.6832M76.5366 78.9753V88.6823M71.6832 78.9753V75.3351M71.6832 78.9753V88.6823M54.6958 81.962V88.6823M44.9888 74.1218L40.1353 76.5485L38.0847 70.3965C37.9618 70.0279 38.3749 69.7125 38.6982 69.928L44.9888 74.1218ZM44.9888 74.1218L49.8423 76.5485L51.893 70.3965C52.0159 70.0279 51.6028 69.7125 51.2795 69.928L44.9888 74.1218Z" stroke="#7A1129" stroke-width="2" stroke-miterlimit="10" stroke-linecap="round" stroke-linejoin="round"/>
<path d="M30.4299 88.6833H59.551V76.9495C59.551 74.5102 57.8909 72.384 55.5244 71.7925L51.7446 70.8475M38.2361 70.8475L34.4563 71.7925C32.0899 72.3842 30.4297 74.5102 30.4297 76.9495M35.2834 81.963V88.6833" stroke="#7A1129" stroke-width="2" stroke-miterlimit="10" stroke-linecap="round" stroke-linejoin="round"/>
<path d="M42.5682 75.3329V78.9732M42.5682 78.9732H47.4217M42.5682 78.9732V88.6802M47.4217 78.9732V75.3329M47.4217 78.9732V88.6802M41.0238 66.2716V67.8742C41.0237 68.4021 40.8801 68.9201 40.6084 69.3727C40.3367 69.8254 39.9472 70.1957 39.4813 70.4441M50.5084 70.4439C50.0426 70.1956 49.653 69.8252 49.3813 69.3726C49.1096 68.9199 48.966 68.4019 48.966 67.874V66.2714M70.145 66.2716V67.8742C70.1448 68.4021 70.0013 68.9201 69.7296 69.3727C69.4579 69.8254 69.0683 70.1957 68.6025 70.4441M79.6296 70.4439C79.1637 70.1956 78.7741 69.8252 78.5024 69.3726C78.2307 68.9199 78.0872 68.4019 78.0871 67.874V66.2714M74.7778 58.2684V59.7703C74.7778 60.0741 74.6572 60.3654 74.4424 60.5802C74.2276 60.795 73.9362 60.9157 73.6325 60.9157H73.4542M23.3102 54.2481C23.584 49.9549 20.1758 46.3222 15.8737 46.3222C11.5717 46.3222 8.16343 49.9549 8.4373 54.2481L8.86322 60.9236C9.09912 64.6221 12.1677 67.501 15.8737 67.501C19.5797 67.501 22.6482 64.6221 22.8842 60.9236L23.3102 54.2481Z" stroke="#7A1129" stroke-width="2" stroke-miterlimit="10" stroke-linecap="round" stroke-linejoin="round"/>
<path d="M16.5322 58.2684V59.7703C16.5322 60.0741 16.4116 60.3654 16.1968 60.5802C15.982 60.795 15.6906 60.9157 15.3869 60.9157H15.2086M81.1644 60.2752L81.7448 51.1774C81.9127 48.5476 79.8247 46.3222 77.1894 46.3222H71.0353C68.4 46.3222 66.3123 48.5474 66.4801 51.1774L67.102 60.9238C67.3379 64.6222 70.4066 67.5012 74.1126 67.5012C75.8203 67.5031 77.4699 66.881 78.7511 65.752M23.1047 57.4138L21.3172 54.2824C21.0846 53.8751 20.7485 53.5365 20.3428 53.3009C19.9372 53.0654 19.4765 52.9414 19.0074 52.9414H12.4887C11.9949 52.9414 11.5107 53.0789 11.0906 53.3386C10.6705 53.5982 10.331 53.9697 10.1101 54.4115L8.63281 57.366" stroke="#7A1129" stroke-width="2" stroke-miterlimit="10" stroke-linecap="round" stroke-linejoin="round"/>
<path d="M81.4115 56.5012L81.0459 56.3184C79.7863 55.6885 78.6365 54.8598 77.6407 53.8639L76.7175 52.9407H71.5205L70.5973 53.8639C69.6015 54.8598 68.4517 55.6885 67.1921 56.3184L66.8264 56.5012M45.6596 58.268V59.7698C45.6596 60.0736 45.5389 60.365 45.3241 60.5798C45.1093 60.7946 44.818 60.9152 44.5142 60.9152H44.3359" stroke="#7A1129" stroke-width="2" stroke-miterlimit="10" stroke-linecap="round" stroke-linejoin="round"/>
<path d="M52.4273 54.2482C52.4922 53.2317 52.348 52.2127 52.0036 51.2542C51.6593 50.2957 51.1221 49.4179 50.4252 48.6751C49.7283 47.9323 48.8865 47.3403 47.9518 46.9356C47.0171 46.5309 46.0094 46.3221 44.9909 46.3222C40.6888 46.3222 37.2806 49.9549 37.5545 54.2482L37.9804 60.9236C38.2163 64.6221 41.2849 67.501 44.9909 67.501C48.6969 67.501 51.7653 64.6221 52.0014 60.9236L52.4273 54.2482Z" stroke="#7A1129" stroke-width="2" stroke-miterlimit="10" stroke-linecap="round" stroke-linejoin="round"/>
<path d="M37.6094 54.9732C37.9739 52.7367 39.9144 51.0301 42.254 51.0301C43.2401 51.0277 44.2015 51.338 45.0001 51.9164C45.7987 51.3379 46.7601 51.0276 47.7462 51.0301C50.083 51.0301 52.024 52.735 52.3903 54.9697" stroke="#7A1129" stroke-width="2" stroke-miterlimit="10" stroke-linecap="round" stroke-linejoin="round"/>
</g>
<defs>
<clipPath id="clip0_676_2358">
<rect width="90" height="90" fill="white"/>
</clipPath>
</defs>
</svg>
