<svg width="65" height="65" viewBox="0 0 65 65" fill="none" xmlns="http://www.w3.org/2000/svg">
<g clip-path="url(#clip0_676_2635)">
<path d="M65 27.2581H62.6441L59.133 29.1056C58.7379 28.8875 58.3268 28.7026 57.8834 28.5916L53.4667 27.4864V26.9842C55.4206 25.6205 56.6129 23.3676 56.6129 20.9677V19.1352C56.6129 15.0624 53.4216 11.6541 49.4995 11.5353C49.3003 11.5302 49.1042 11.5374 48.9071 11.5471L50.0522 8.86621L44.5006 3.31618L41.2281 5.44624C39.9899 4.7483 38.6723 4.20175 37.3037 3.81836L36.4954 0H28.5056L27.6973 3.81941C26.3286 4.20258 25.011 4.74909 23.773 5.44716L20.5004 3.3171L14.9533 8.86424L16.079 11.5471C16.036 11.5451 15.9951 11.5374 15.9521 11.5363C13.9445 11.478 12.0534 12.2106 10.617 13.6049C9.1785 14.9985 8.3871 16.8685 8.3871 18.871V20.9677C8.3871 23.3676 9.57833 25.6194 11.5323 26.9831V27.4864L8.65129 28.2066L3.42927 25.1613H0V46.8852L10.3139 50.3226H12.3226L12.5734 49.4442L15.735 51.3417C15.7867 53.0608 17.1652 54.4439 18.8828 54.5043C18.943 56.2145 20.3177 57.5892 22.0279 57.6495C22.0882 59.3597 23.4629 60.7344 25.1731 60.7947C25.2355 62.5449 26.6689 63.9516 28.4334 63.9516C29.0887 63.9516 29.7311 63.7473 30.2711 63.3834L31.1997 64.2035C31.7826 64.7168 32.5327 65 33.3094 65H33.5033C35.248 65 36.6675 63.5897 36.6895 61.8508C38.4151 61.8288 39.8126 60.4313 39.8346 58.7056C41.5613 58.6836 42.9598 57.284 42.9798 55.5573C44.7224 55.5164 46.129 54.0928 46.129 52.3405C46.129 52.2351 46.1238 52.1312 46.1132 52.0262L65 42.5835V27.2581ZM54.5161 19.1352V20.9677C54.5161 22.8286 53.5107 24.567 51.8921 25.5042L51.368 25.8074L51.3719 29.125L56.6099 30.4334L45.0806 36.5016V33.6775C45.0806 32.268 44.5114 30.9776 43.5792 30.0238L47.1774 29.125V25.8047L46.6543 25.5023C45.0366 24.567 44.0323 22.8285 44.0323 20.9677V18.871C44.0323 17.4412 44.5975 16.1041 45.6248 15.1086C46.6511 14.1133 48.0129 13.5769 49.4364 13.632C52.2371 13.716 54.5161 16.1849 54.5161 19.1352ZM34.0807 35.6774L29.3349 34.1606C27.1721 33.4674 24.831 33.3641 22.6171 33.8545L22.0161 33.9877V33.6773C22.0161 32.2319 22.9964 30.9766 24.3981 30.6254L30.4032 29.125V25.8047L29.8801 25.5023C28.2624 24.567 27.2581 22.8285 27.2581 20.9677V18.871C27.2581 17.4412 27.8233 16.1041 28.8506 15.1086C29.8769 14.1133 31.2474 13.5769 32.6622 13.632C35.4629 13.716 37.7419 16.1849 37.7419 19.1352V20.9677C37.7419 22.8286 36.7365 24.567 35.118 25.5042L34.5938 25.8074L34.5977 29.125L40.6019 30.6255C41.2826 30.7953 41.8869 31.1881 42.3185 31.7411C42.7502 32.2941 42.9844 32.9757 42.9839 33.6772V37.6056L42.7248 37.7419H42.0824L35.6369 35.9001C35.1291 35.7563 34.6059 35.6973 34.0807 35.6774ZM22.2511 15.6909C24.2198 11.8763 28.1826 9.43548 32.5 9.43548C36.7765 9.43548 40.7222 11.8435 42.7059 15.6066C42.1989 16.62 41.9351 17.7377 41.9355 18.871V20.9677C41.9355 23.3675 43.1267 25.6194 45.0806 26.9831V27.4864L40.8871 28.5363L36.6925 27.4864V26.9842C38.6464 25.6205 39.8387 23.3675 39.8387 20.9677V19.1352C39.8387 15.0623 36.6474 11.6541 32.7253 11.5353C30.7185 11.4764 28.8266 12.2095 27.3902 13.604C25.9527 14.9984 25.1613 16.8684 25.1613 18.871V20.9677C25.1613 23.3675 26.3525 25.6194 28.3064 26.9831V27.4864L24.1129 28.5363L19.9183 27.4864V26.9842C21.8722 25.6205 23.0645 23.3675 23.0645 20.9677V19.1352C23.0645 17.9015 22.7676 16.7302 22.2511 15.6909ZM17.4294 9.35056L20.7789 6.0011L23.727 7.91965L24.291 7.57368C25.7045 6.70745 27.232 6.07317 28.8306 5.69091L29.4757 5.53627L30.2051 2.09677H34.796L35.5233 5.53522L36.1683 5.68933C37.7671 6.07226 39.2946 6.70653 40.7078 7.57263L41.272 7.9186L44.2202 6.00005L47.5653 9.34637L46.3762 12.1306C45.5668 12.4788 44.8163 12.9687 44.1632 13.6019C44.1202 13.6438 44.0832 13.6889 44.0413 13.7319C41.5716 9.8057 37.2049 7.33871 32.5 7.33871C27.7613 7.33871 23.3824 9.82863 20.9186 13.7949C20.2593 13.1048 19.475 12.5458 18.6059 12.1553L17.4294 9.35056ZM13.629 29.125V25.8047L13.1059 25.5023C11.4882 24.567 10.4839 22.8285 10.4839 20.9677V18.871C10.4839 17.4412 11.0491 16.1041 12.0764 15.1086C13.1027 14.1133 14.4675 13.5769 15.888 13.632C18.6887 13.716 20.9677 16.1849 20.9677 19.1352V20.9677C20.9677 22.8286 19.9623 24.567 18.3438 25.5042L17.8196 25.8074L17.8235 29.125L21.4208 30.024C20.4886 30.9775 19.9194 32.268 19.9194 33.6772V34.4538L16.6493 35.1807L16.7342 34.8838L16.7742 32.9462L11.2451 29.7207L13.629 29.125ZM2.09677 27.2581H2.86105L10.4009 31.6559L6.59645 46.8733L2.09677 45.3729V27.2581ZM10.6538 48.2258L8.59035 47.5383L12.2863 32.7561L14.6774 34.1503V34.4497L10.7419 48.2258H10.6538ZM17.8226 51.244C17.8233 50.9324 17.9469 50.6336 18.1666 50.4126L20.0095 48.5698C20.2305 48.3502 20.5291 48.2266 20.8406 48.2258C21.4888 48.2258 22.016 48.753 22.016 49.4012C22.0153 49.7128 21.8916 50.0115 21.672 50.2325L19.8291 52.0754C19.6081 52.2949 19.3096 52.4185 18.9981 52.4194C18.3499 52.4194 17.8227 51.8921 17.8227 51.244H17.8226ZM20.9677 54.3891C20.9685 54.0775 21.0921 53.7788 21.3117 53.5578L23.1547 51.715C23.3756 51.4954 23.6743 51.3718 23.9858 51.371C24.634 51.371 25.1612 51.8982 25.1612 52.5463C25.1604 52.8579 25.0368 53.1567 24.8172 53.3777L22.9742 55.2205C22.7533 55.4401 22.4547 55.5637 22.1432 55.5645C21.4951 55.5645 20.9679 55.0373 20.9679 54.3891H20.9677ZM24.1129 57.5343C24.1136 57.2227 24.2372 56.924 24.4569 56.7029L26.2998 54.8601C26.5208 54.6405 26.8194 54.5169 27.1309 54.5161C27.7791 54.5161 28.3063 55.0433 28.3063 55.6915C28.3056 56.0031 28.182 56.3018 27.9623 56.5229L26.1194 58.3657C25.8985 58.5852 25.5999 58.7088 25.2884 58.7097C24.6402 58.7097 24.113 58.1825 24.113 57.5343H24.1129ZM28.4334 61.8548C27.7853 61.8548 27.2581 61.3276 27.2581 60.6795C27.2588 60.3679 27.3824 60.0691 27.6021 59.8481L29.445 58.0053C29.666 57.7857 29.9646 57.6621 30.2761 57.6613C30.9243 57.6613 31.4515 58.1885 31.4515 58.8367C31.4507 59.1483 31.3271 59.447 31.1075 59.668L29.2645 61.5108C29.0436 61.7304 28.745 61.854 28.4336 61.8548H28.4334ZM33.5033 62.9032H33.3094C33.0431 62.9035 32.7861 62.806 32.587 62.6293L31.8028 61.9378L32.59 61.1505C32.8711 60.8694 33.0893 60.5352 33.2505 60.1762L34.2036 60.9697C34.3268 61.0723 34.426 61.2007 34.4939 61.3459C34.5619 61.4911 34.597 61.6495 34.5968 61.8098C34.5968 62.4128 34.1064 62.9032 33.5033 62.9032ZM42.905 53.4677H42.7239C42.4601 53.4676 42.2048 53.3749 42.0026 53.2056L36.3173 48.468L34.9741 50.0795L40.495 54.6794C40.6179 54.7822 40.7167 54.9107 40.7845 55.0558C40.8522 55.201 40.8873 55.3592 40.8871 55.5194C40.8871 56.1225 40.3967 56.6129 39.7936 56.6129H39.5648C39.3092 56.6126 39.0618 56.5227 38.8655 56.3589L33.1711 51.6141L31.8279 53.2256L37.3488 57.8261C37.4721 57.9283 37.5713 58.0564 37.6393 58.2013C37.7072 58.3463 37.7423 58.5045 37.7419 58.6646C37.7419 59.2677 37.2516 59.7581 36.6485 59.7581C36.2461 59.7581 35.8541 59.6152 35.5453 59.3588L33.2054 57.4084C32.6899 56.3549 31.6308 55.6203 30.3905 55.5763C30.33 53.8661 28.9555 52.4914 27.2454 52.4311C27.1848 50.721 25.8104 49.3463 24.1002 49.286C24.0386 47.5357 22.6053 46.129 20.8408 46.129C19.9792 46.129 19.1361 46.4781 18.527 47.0874L16.6842 48.9302C16.5741 49.0403 16.4829 49.1652 16.3902 49.289L13.1698 47.3566L15.993 37.4758L23.0707 35.9021C24.9274 35.487 26.8848 35.5771 28.6955 36.1565L30.2399 36.6506L25.0042 39.2684C23.8077 39.8679 23.0645 41.0714 23.0645 42.4096V42.6168C23.0645 44.5534 24.6401 46.129 26.5766 46.129C27.213 46.129 27.8391 45.956 28.3832 45.6279L32.287 43.2869C33.0712 42.817 34.1238 42.9199 34.8011 43.529L43.659 51.501C43.7763 51.6072 43.8701 51.7367 43.9344 51.8813C43.9987 52.0258 44.032 52.1822 44.0323 52.3405C44.0323 52.9626 43.5271 53.4677 42.905 53.4677ZM62.9032 41.2874L45.2409 50.1193C45.1834 50.0584 45.1233 50 45.0607 49.9442L36.2042 41.9723C35.4297 41.2729 34.4229 40.8861 33.3793 40.8871C32.6142 40.8873 31.8634 41.0954 31.2073 41.4891L27.302 43.831C27.083 43.9629 26.8322 44.0325 26.5766 44.0323C25.7956 44.0323 25.1613 43.398 25.1613 42.6169V42.4095C25.1613 41.8696 25.4614 41.3852 25.9435 41.1441L31.7915 38.22C32.7922 37.7189 33.9805 37.6067 35.059 37.917L41.6473 39.7989L43.243 39.8387L62.9032 29.4911V41.2874Z" fill="#7A1129"/>
</g>
<defs>
<clipPath id="clip0_676_2635">
<rect width="65" height="65" fill="white"/>
</clipPath>
</defs>
</svg>
