<svg width="65" height="65" viewBox="0 0 65 65" fill="none" xmlns="http://www.w3.org/2000/svg">
<path d="M54.0546 16.0286C56.353 14.5915 57.8906 12.0453 57.8906 9.14062C57.8906 4.6607 54.2455 1.01562 49.7656 1.01562C45.2857 1.01562 41.6406 4.6607 41.6406 9.14062C41.6406 12.0402 43.1722 14.5823 45.4645 16.0205C42.8341 17.0173 40.628 18.8908 39.2184 21.3251C38.4575 20.8236 37.6425 20.4093 36.789 20.0901C39.0873 18.654 40.625 16.1078 40.625 13.2031C40.625 8.7232 36.9799 5.07812 32.5 5.07812C28.0201 5.07812 24.375 8.7232 24.375 13.2031C24.375 16.1078 25.9127 18.654 28.211 20.0911C27.3518 20.4151 26.5352 20.8254 25.7816 21.3261C24.3724 18.8919 22.1667 17.0183 19.5366 16.0215C21.8278 14.5834 23.3594 12.0402 23.3594 9.14062C23.3594 4.6607 19.7143 1.01562 15.2344 1.01562C10.7545 1.01562 7.10938 4.6607 7.10938 9.14062C7.10938 12.0453 8.64703 14.5915 10.9454 16.0286C6.3375 17.7694 3.04688 22.2127 3.04688 27.4219V35.5469C3.04688 37.7873 4.86891 39.6094 7.10938 39.6094H8.125V55.8594C8.125 58.0998 9.94703 59.9219 12.1875 59.9219C12.7663 59.9201 13.338 59.7938 13.8637 59.5516C14.3894 59.3094 14.8569 58.957 15.2344 58.5183C15.6119 58.957 16.0794 59.3094 16.6051 59.5516C17.1308 59.7938 17.7024 59.9201 18.2812 59.9219C20.5217 59.9219 22.3438 58.0998 22.3438 55.8594V43.1072C22.9586 43.4727 23.6597 43.6677 24.375 43.6719H25.3906V59.9219C25.3906 62.1623 27.2127 63.9844 29.4531 63.9844C30.0319 63.9826 30.6036 63.8563 31.1293 63.6141C31.655 63.3719 32.1225 63.0195 32.5 62.5808C32.8775 63.0195 33.345 63.3719 33.8707 63.6141C34.3964 63.8563 34.9681 63.9826 35.5469 63.9844C37.7873 63.9844 39.6094 62.1623 39.6094 59.9219V43.6719H40.625C41.3684 43.6719 42.056 43.4566 42.6562 43.1072V55.8594C42.6562 58.0998 44.4783 59.9219 46.7188 59.9219C47.2976 59.9201 47.8692 59.7938 48.3949 59.5516C48.9206 59.3094 49.3881 58.957 49.7656 58.5183C50.1431 58.957 50.6106 59.3094 51.1363 59.5516C51.662 59.7938 52.2337 59.9201 52.8125 59.9219C55.053 59.9219 56.875 58.0998 56.875 55.8594V39.6094H57.8906C60.1311 39.6094 61.9531 37.7873 61.9531 35.5469V27.4219C61.9531 22.2127 58.6625 17.7694 54.0546 16.0286ZM47.5759 17.5317C48.2939 17.3631 49.0282 17.2739 49.7656 17.2656C50.5223 17.2656 51.2576 17.355 51.9685 17.5134L49.7656 20.5969L47.5759 17.5317ZM48.4382 22.2341L47.1108 23.5615L45.1567 18.398C45.2888 18.331 45.4137 18.2508 45.5487 18.1888L48.4382 22.2341ZM51.092 22.2341L53.9784 18.1929C54.1135 18.2548 54.2466 18.3188 54.3786 18.3859L52.4184 23.5615L51.092 22.2341ZM43.6719 9.14062C43.6719 5.77992 46.4049 3.04688 49.7656 3.04688C53.1263 3.04688 55.8594 5.77992 55.8594 9.14062C55.8594 12.5013 53.1263 15.2344 49.7656 15.2344C46.4049 15.2344 43.6719 12.5013 43.6719 9.14062ZM33.4933 29.1799L32.5 30.6688L31.5067 29.1799L32.0836 21.3484C32.2227 21.3434 32.3598 21.3281 32.5 21.3281C32.6402 21.3281 32.7773 21.3434 32.9164 21.3495L33.4933 29.1799ZM26.4062 13.2031C26.4062 9.84242 29.1393 7.10938 32.5 7.10938C35.8607 7.10938 38.5938 9.84242 38.5938 13.2031C38.5938 16.5638 35.8607 19.2969 32.5 19.2969C29.1393 19.2969 26.4062 16.5638 26.4062 13.2031ZM15.2344 17.2656C15.8561 17.2721 16.4759 17.336 17.0859 17.4566C16.767 18.5341 16.0459 19.2969 15.2344 19.2969C14.4198 19.2969 13.6957 18.528 13.3788 17.4434C13.9906 17.3273 14.6117 17.2678 15.2344 17.2656ZM9.14062 9.14062C9.14062 5.77992 11.8737 3.04688 15.2344 3.04688C18.5951 3.04688 21.3281 5.77992 21.3281 9.14062C21.3281 12.5013 18.5951 15.2344 15.2344 15.2344C11.8737 15.2344 9.14062 12.5013 9.14062 9.14062ZM20.3125 55.8594C20.3125 56.9796 19.4015 57.8906 18.2812 57.8906C17.161 57.8906 16.25 56.9796 16.25 55.8594V34.5312H14.2188V55.8594C14.2188 56.9796 13.3077 57.8906 12.1875 57.8906C11.0673 57.8906 10.1562 56.9796 10.1562 55.8594V23.3594H8.125V37.5781H7.10938C5.98914 37.5781 5.07812 36.6671 5.07812 35.5469V27.4219C5.07812 23.1654 7.71367 19.5183 11.4359 18.0101C12.0077 19.9631 13.4875 21.3281 15.2344 21.3281C16.9762 21.3281 18.4509 19.9713 19.0277 18.0273C21.2214 18.9145 23.036 20.5405 24.1577 22.6241C21.7963 24.8473 20.3125 27.9927 20.3125 31.4844V39.6094V55.8594ZM40.625 41.6406H39.6094V27.4219H37.5781V59.9219C37.5781 61.0421 36.6671 61.9531 35.5469 61.9531C34.4266 61.9531 33.5156 61.0421 33.5156 59.9219V38.5938H31.4844V59.9219C31.4844 61.0421 30.5734 61.9531 29.4531 61.9531C28.3329 61.9531 27.4219 61.0421 27.4219 59.9219V27.4219H25.3906V41.6406H24.375C23.2548 41.6406 22.3438 40.7296 22.3438 39.6094V31.4844C22.3438 26.7394 25.6202 22.7551 30.0259 21.646L29.4308 29.7263L32.5 34.3312L35.5692 29.7263L34.9741 21.646C39.3798 22.7551 42.6562 26.7394 42.6562 31.4844V39.6094C42.6562 40.7296 41.7452 41.6406 40.625 41.6406ZM59.9219 35.5469C59.9219 36.6671 59.0109 37.5781 57.8906 37.5781H56.875V24.375H54.8438V55.8594C54.8438 56.9796 53.9327 57.8906 52.8125 57.8906C51.6923 57.8906 50.7812 56.9796 50.7812 55.8594V34.5312H48.75V55.8594C48.75 56.9796 47.839 57.8906 46.7188 57.8906C45.5985 57.8906 44.6875 56.9796 44.6875 55.8594V31.4844C44.6875 27.9927 43.2037 24.8473 40.8423 22.6241C41.4826 21.43 42.3564 20.3769 43.4119 19.5274L46.3257 27.2208L49.7656 23.7809L53.2055 27.2208L56.1234 19.5142C58.436 21.3779 59.9219 24.2277 59.9219 27.4219V35.5469Z" fill="#7A1129"/>
</svg>
