<svg width="60" height="60" viewBox="0 0 60 60" fill="none" xmlns="http://www.w3.org/2000/svg">
<g clip-path="url(#clip0_621_7562)">
<path d="M28.1286 4.42047C28.7167 4.15507 29.3547 4.01823 29.9999 4.0191C32.5129 4.0191 34.5501 6.05629 34.5501 8.56926C34.5501 11.0822 32.5129 13.1194 29.9999 13.1194C27.487 13.1194 25.4498 11.0822 25.4498 8.56926C25.4498 8.27324 25.478 7.98391 25.5321 7.70359M14.5889 41.3931L10.822 34.8687C10.2517 33.8811 8.82604 33.8811 8.2558 34.8687L1.07959 47.2984C0.509359 48.2861 1.22221 49.5208 2.36268 49.5208H16.7152C17.8557 49.5208 18.5685 48.2861 17.9983 47.2984L16.6502 44.9634M47.4323 17.8574C46.1425 16.3663 44.6404 15.0189 42.9364 13.8624C42.8716 13.8185 42.7986 13.788 42.7219 13.7727C42.6451 13.7574 42.5661 13.7577 42.4894 13.7734C42.4127 13.7891 42.34 13.82 42.2754 13.8643C42.2108 13.9085 42.1558 13.9653 42.1135 14.0311L40.0738 17.2081C39.9025 17.4749 39.9756 17.8285 40.2371 18.008C42.5913 19.6239 44.4493 21.7048 45.7673 24.0474C45.9234 24.3249 45.7997 24.6769 45.5051 24.7977L44.0112 25.4104C43.614 25.5733 43.5645 26.116 43.9258 26.3479L50.8955 30.8234C51.2055 31.0224 51.619 30.8528 51.6999 30.4935L53.5199 22.413C53.6143 21.9941 53.1981 21.6425 52.8009 21.8054L51.0939 22.5054C50.8416 22.6089 50.5504 22.505 50.4244 22.2631C50.243 21.9149 50.0527 21.5714 49.8537 21.233M29.9999 0.378906C25.4765 0.378906 21.8096 4.04582 21.8096 8.56926C21.8096 13.0927 25.4765 16.7595 29.9999 16.7595C34.5234 16.7595 38.1903 13.0926 38.1903 8.56914C38.1903 4.0457 34.5234 0.378906 29.9999 0.378906ZM11.9616 45.8806H7.11627C6.66522 45.8806 6.38326 45.3923 6.60885 45.0017L9.03147 40.8055C9.25694 40.415 9.82084 40.415 10.0463 40.8055L12.4689 45.0017C12.6945 45.3924 12.4127 45.8806 11.9616 45.8806ZM57.7148 34.9602H45.9667C45.1901 34.9602 44.5605 35.5899 44.5605 36.3665V48.1145C44.5605 48.8911 45.1901 49.5208 45.9667 49.5208H57.7148C58.4914 49.5208 59.121 48.8911 59.121 48.1145V36.3665C59.121 35.5898 58.4914 34.9602 57.7148 34.9602ZM55.481 45.49C55.481 45.5413 55.4709 45.5921 55.4512 45.6395C55.4316 45.6869 55.4028 45.7299 55.3666 45.7662C55.3303 45.8025 55.2872 45.8312 55.2398 45.8509C55.1925 45.8705 55.1417 45.8806 55.0904 45.8806H48.5914C48.5401 45.8806 48.4893 45.8705 48.4419 45.8509C48.3945 45.8312 48.3515 45.8025 48.3152 45.7662C48.2789 45.7299 48.2502 45.6869 48.2305 45.6395C48.2109 45.5921 48.2008 45.5413 48.2008 45.49V38.991C48.2008 38.9397 48.2109 38.8889 48.2305 38.8415C48.2502 38.7942 48.2789 38.7511 48.3152 38.7148C48.3515 38.6786 48.3945 38.6498 48.4419 38.6302C48.4893 38.6105 48.5401 38.6004 48.5914 38.6004H55.0904C55.1417 38.6004 55.1925 38.6105 55.2398 38.6302C55.2872 38.6498 55.3303 38.6786 55.3666 38.7148C55.4028 38.7511 55.4316 38.7942 55.4512 38.8415C55.4709 38.8889 55.481 38.9397 55.481 38.991V45.49ZM12.0657 30.0716C12.5245 27.2109 13.6335 24.6084 15.2205 22.3948C15.406 22.1361 15.7772 22.0994 16.0113 22.3154L17.1979 23.4105C17.5134 23.7017 18.0261 23.5171 18.0837 23.0916L19.1944 14.8834C19.2439 14.5184 18.9154 14.2152 18.5554 14.2939L10.4627 16.0593C10.0433 16.1508 9.90041 16.6766 10.2159 16.9677L11.5719 18.2188C11.7724 18.4037 11.8011 18.7116 11.6351 18.928C9.36287 21.8918 7.78166 25.4478 7.16725 29.3837C7.12659 29.6443 7.30647 29.8879 7.56768 29.9233L11.541 30.4605C11.6619 30.4769 11.7845 30.4455 11.8825 30.3728C11.9805 30.3002 12.0463 30.1921 12.0657 30.0716ZM40.0103 31.7003C40.0103 31.5915 39.98 31.4848 39.9228 31.3923C39.8656 31.2997 39.7838 31.2249 39.6864 31.1762L38.3153 30.4907C38.1751 30.4205 38.071 30.2963 38.0205 30.1478C37.903 29.8026 37.7633 29.4654 37.602 29.1384C37.5326 28.9975 37.5183 28.836 37.5679 28.6871L38.0528 27.2324C38.0872 27.1292 38.0922 27.0184 38.0672 26.9125C38.0422 26.8066 37.9882 26.7097 37.9113 26.6328L36.2455 24.967C36.1685 24.89 36.0716 24.836 35.9657 24.811C35.8598 24.786 35.749 24.791 35.6458 24.8254L34.1912 25.3103C34.0422 25.36 33.8806 25.3457 33.7399 25.2762C33.4128 25.115 33.0756 24.9752 32.7304 24.8576C32.5819 24.8071 32.4577 24.703 32.3875 24.5628L31.702 23.1917C31.6533 23.0944 31.5785 23.0125 31.486 22.9553C31.3934 22.8981 31.2867 22.8678 31.1779 22.8678H28.8221C28.7133 22.8678 28.6066 22.8981 28.5141 22.9553C28.4215 23.0125 28.3467 23.0944 28.298 23.1917L27.6125 24.5628C27.5423 24.703 27.4181 24.8071 27.2696 24.8576C26.9244 24.9751 26.5872 25.1149 26.2601 25.2762C26.1193 25.3456 25.9578 25.3599 25.8088 25.3103L24.3542 24.8254C24.251 24.791 24.1402 24.786 24.0343 24.811C23.9284 24.836 23.8315 24.89 23.7546 24.967L22.0887 26.6328C22.0118 26.7097 21.9578 26.8066 21.9328 26.9125C21.9078 27.0184 21.9128 27.1292 21.9472 27.2324L22.4321 28.6871C22.4818 28.836 22.4675 28.9976 22.398 29.1384C22.2368 29.4654 22.097 29.8026 21.9795 30.1478C21.929 30.2963 21.8249 30.4205 21.6847 30.4907L20.3136 31.1762C20.2163 31.2249 20.1344 31.2997 20.0772 31.3923C20.02 31.4848 19.9897 31.5915 19.9897 31.7003V34.0561C19.9897 34.1649 20.02 34.2716 20.0772 34.3642C20.1344 34.4567 20.2163 34.5315 20.3136 34.5802L21.6847 35.2657C21.8249 35.3359 21.929 35.4602 21.9795 35.6086C22.097 35.9538 22.2367 36.291 22.398 36.6181C22.4674 36.7589 22.4817 36.9204 22.4321 37.0694L21.9472 38.524C21.9128 38.6273 21.9078 38.738 21.9328 38.844C21.9578 38.9499 22.0118 39.0467 22.0887 39.1237L23.7546 40.7895C23.8315 40.8664 23.9284 40.9205 24.0343 40.9455C24.1402 40.9705 24.251 40.9655 24.3542 40.9311L25.8088 40.4461C25.9578 40.3964 26.1193 40.4107 26.2601 40.4802C26.5872 40.6414 26.9244 40.7812 27.2696 40.8987C27.4181 40.9492 27.5423 41.0533 27.6125 41.1936L28.298 42.5646C28.3467 42.662 28.4215 42.7438 28.5141 42.801C28.6066 42.8582 28.7133 42.8886 28.8221 42.8886H31.1779C31.2867 42.8886 31.3934 42.8582 31.486 42.801C31.5785 42.7438 31.6533 42.662 31.702 42.5646L32.3875 41.1936C32.4577 41.0533 32.5819 40.9492 32.7304 40.8987C33.0756 40.7813 33.4128 40.6415 33.7399 40.4802C33.8807 40.4109 34.0422 40.3966 34.1912 40.4461L35.6458 40.9311C35.749 40.9655 35.8598 40.9704 35.9657 40.9454C36.0716 40.9204 36.1685 40.8664 36.2455 40.7895L37.9113 39.1237C37.9882 39.0467 38.0422 38.9499 38.0672 38.844C38.0922 38.738 38.0872 38.6273 38.0528 38.524L37.5679 37.0694C37.5182 36.9204 37.5325 36.7588 37.602 36.6181C37.7632 36.291 37.903 35.9538 38.0205 35.6086C38.071 35.4602 38.1751 35.3359 38.3153 35.2657L39.6864 34.5802C39.7838 34.5315 39.8656 34.4567 39.9228 34.3642C39.98 34.2716 40.0103 34.1649 40.0103 34.0561V31.7003ZM29.9999 36.5185C27.9896 36.5185 26.3599 34.8888 26.3599 32.8784C26.3599 30.868 27.9896 29.2383 29.9999 29.2383C32.0103 29.2383 33.6401 30.868 33.6401 32.8784C33.6401 34.8888 32.0103 36.5185 29.9999 36.5185ZM37.3024 49.4909C34.6532 50.6642 31.8665 51.1514 29.1459 51.0262C28.8278 51.0115 28.5949 50.7201 28.6485 50.4062L28.9206 48.8147C28.9931 48.3916 28.559 48.062 28.1709 48.2455L20.682 51.7846C20.349 51.942 20.2736 52.3826 20.5355 52.6416L26.4237 58.4672C26.7289 58.7692 27.2477 58.6026 27.32 58.1794L27.6308 56.3608C27.6767 56.092 27.9192 55.9001 28.191 55.9214C31.9142 56.213 35.7577 55.6023 39.3933 53.9739C39.6339 53.8661 39.7403 53.5826 39.6277 53.3443L37.9142 49.7193C37.8622 49.6089 37.7691 49.5233 37.6548 49.4806C37.5404 49.4379 37.414 49.4416 37.3024 49.4909Z" stroke="#7A1129" stroke-width="1.5" stroke-miterlimit="10" stroke-linecap="round" stroke-linejoin="round"/>
</g>
<defs>
<clipPath id="clip0_621_7562">
<rect width="60" height="60" fill="white"/>
</clipPath>
</defs>
</svg>
