<svg width="90" height="90" viewBox="0 0 90 90" fill="none" xmlns="http://www.w3.org/2000/svg">
<g clip-path="url(#clip0_676_2373)">
<path d="M25.2955 83.4099C26.08 83.4099 26.7159 82.774 26.7159 81.9895C26.7159 81.2049 26.08 80.569 25.2955 80.569C24.511 80.569 23.875 81.2049 23.875 81.9895C23.875 82.774 24.511 83.4099 25.2955 83.4099Z" fill="#7A1129"/>
<path d="M82.9908 72.7522C83.7753 72.7522 84.4113 72.1163 84.4113 71.3317C84.4113 70.5472 83.7753 69.9113 82.9908 69.9113C82.2063 69.9113 81.5703 70.5472 81.5703 71.3317C81.5703 72.1163 82.2063 72.7522 82.9908 72.7522Z" fill="#7A1129"/>
<path d="M82.9908 78.4345C83.7753 78.4345 84.4113 77.7985 84.4113 77.014C84.4113 76.2295 83.7753 75.5935 82.9908 75.5935C82.2063 75.5935 81.5703 76.2295 81.5703 77.014C81.5703 77.7985 82.2063 78.4345 82.9908 78.4345Z" fill="#7A1129"/>
<path d="M28.3384 33.8496C27.7316 33.8213 27.1426 33.9202 26.5987 34.1371C26.4103 32.0496 24.7465 30.3956 22.6558 30.297C22.0619 30.2674 21.4685 30.3659 20.916 30.5858C20.7279 28.4988 19.064 26.8447 16.9743 26.7462C15.8238 26.6919 14.7357 27.098 13.9052 27.8901C13.1634 28.6006 12.7088 29.5592 12.628 30.5832C12.077 30.3658 11.4861 30.2682 10.8944 30.297C8.67294 30.4016 6.93273 32.2626 6.93273 34.5337V38.8351C6.93273 39.5632 7.52282 40.1534 8.25107 40.1534C8.97933 40.1534 9.56942 39.5632 9.56942 38.8351V34.5337C9.56942 33.6875 10.2193 32.9685 11.0173 32.9309C11.2238 32.9201 11.4303 32.9518 11.6241 33.024C11.8178 33.0962 11.9948 33.2073 12.1439 33.3505C12.2933 33.4921 12.4122 33.6628 12.4932 33.852C12.5743 34.0413 12.6159 34.2451 12.6153 34.4509V47.2706C12.6153 47.9987 13.2054 48.589 13.9337 48.589C14.6619 48.589 15.252 47.9987 15.252 47.2706L15.2522 30.9019C15.2522 30.4807 15.4201 30.0887 15.7247 29.798C15.8737 29.6552 16.0503 29.5445 16.2437 29.4726C16.4372 29.4007 16.6432 29.3692 16.8493 29.38C17.6474 29.4176 18.2965 30.1358 18.2965 30.981L18.2972 47.2706C18.2972 47.9987 18.8873 48.589 19.6155 48.589C20.3438 48.589 20.9339 47.9987 20.9339 47.2706V34.4525L20.9335 34.4458C20.9337 34.241 20.9756 34.0383 21.0566 33.8501C21.1376 33.662 21.2561 33.4923 21.4048 33.3514C21.5541 33.2081 21.7312 33.0969 21.9251 33.0246C22.1189 32.9523 22.3256 32.9204 22.5323 32.9309C23.3303 32.9685 23.9794 33.6875 23.9794 34.5337L23.9793 47.2708C23.9793 47.9989 24.5694 48.5892 25.2976 48.5892C26.0259 48.5892 26.616 47.9989 26.616 47.2708V38.0071L26.6161 38.0038C26.6161 37.5835 26.7838 37.1922 27.0883 36.9018C27.2374 36.7591 27.4141 36.6483 27.6076 36.5764C27.8011 36.5045 28.0073 36.4729 28.2134 36.4836C29.0115 36.5213 29.6606 37.2395 29.6606 38.0847V68.6477H12.2131V68.5282C12.2131 67.4934 11.9254 66.4789 11.3821 65.5981L2.86485 51.7975C2.71632 51.5577 2.63727 51.2814 2.63651 50.9993C2.63651 50.4551 2.91495 49.9647 3.38023 49.6876C4.09073 49.2658 5.02201 49.4936 5.45531 50.1955L8.36287 54.9076C8.86591 55.7271 9.61909 56.3632 10.5112 56.7219L13.6431 57.9892C14.9091 58.5016 15.8692 59.5968 16.2114 60.9188C16.2992 61.2573 16.5177 61.547 16.819 61.7244C17.1203 61.9017 17.4797 61.9522 17.8182 61.8647C18.1567 61.777 18.4465 61.5585 18.6239 61.2572C18.8013 60.9558 18.8517 60.5964 18.7641 60.2579C18.2134 58.1311 16.6688 56.3692 14.6322 55.5452L11.5004 54.2776C11.1293 54.1284 10.816 53.864 10.6067 53.5232L9.56942 51.8424V44.9874C9.56942 44.2593 8.97933 43.6691 8.25107 43.6691C7.52282 43.6691 6.93273 44.2593 6.93273 44.9874V47.8973C5.61263 46.724 3.62123 46.4768 2.03271 47.4211C0.779053 48.1673 0 49.5384 0 50.9991C0 51.7666 0.214099 52.5203 0.619973 53.1804L9.13788 66.982C9.42452 67.4468 9.57636 67.982 9.57645 68.528V76.0495C8.52898 76.5458 7.80073 77.6103 7.80073 78.8445V88.6814C7.80073 89.4094 8.39082 89.9997 9.11907 89.9997C9.84732 89.9997 10.4374 89.4094 10.4374 88.6814V78.8445C10.4376 78.7232 10.4858 78.6069 10.5715 78.5212C10.6573 78.4354 10.7735 78.3872 10.8948 78.3871H29.6617V88.6814C29.6617 89.4094 30.2518 89.9997 30.98 89.9997C31.7083 89.9997 32.2984 89.4094 32.2984 88.6814L32.2977 38.0845C32.2977 35.8144 30.5585 33.9543 28.3384 33.8496ZM29.6617 75.7504H12.2131V71.2841H29.6617V75.7504Z" fill="#7A1129"/>
<path d="M88.6818 42.1805C89.0314 42.1805 89.3668 42.0416 89.614 41.7943C89.8612 41.5471 90.0001 41.2118 90.0001 40.8621V27.4307C90.0001 25.1606 88.2608 23.3005 86.0409 23.1959C85.4465 23.1661 84.8526 23.2644 84.2994 23.484C84.1112 21.3961 82.4474 19.7418 80.3565 19.6434C79.7631 19.6141 79.1702 19.7125 78.6181 19.9319C78.4298 17.845 76.7662 16.1914 74.6766 16.0928C73.5265 16.0395 72.437 16.4449 71.6057 17.2375C70.864 17.9477 70.4094 18.906 70.3285 19.9297C69.7776 19.7119 69.1865 19.6143 68.5948 19.6436C66.3744 19.7483 64.6352 21.6092 64.6352 23.8803V37.2453C63.4777 36.2152 61.8043 35.8986 60.339 36.4725V11.3425C60.339 9.07227 58.5995 7.21197 56.379 7.10738C55.7735 7.07908 55.183 7.1784 54.6392 7.39531C54.4509 5.30826 52.787 3.65451 50.6968 3.55608C50.103 3.52662 49.5097 3.6248 48.9571 3.84401C48.7687 1.75678 47.1047 0.103031 45.0145 0.00459381C43.866 -0.0483163 42.7751 0.357211 41.9444 1.14946C41.2029 1.85969 40.7487 2.81793 40.6682 3.84155C40.126 3.62621 39.5381 3.5276 38.9338 3.5559C36.7132 3.66049 34.9739 5.52061 34.9739 7.79082V21.1563C33.6536 19.9818 31.6615 19.7346 30.0744 20.6789C29.1083 21.2534 28.4289 22.1708 28.1608 23.2622C27.893 24.3538 28.0703 25.4818 28.6606 26.4384L37.1785 40.2409C37.4652 40.7055 37.6171 41.2408 37.6171 41.7867V49.3066C36.5691 49.8031 35.8408 50.8683 35.8408 52.1033V62.6836C35.8408 63.4117 36.4309 64.002 37.1592 64.002C37.8874 64.002 38.4775 63.4117 38.4775 62.6836V52.1033C38.4775 51.9829 38.5249 51.8673 38.6094 51.7816C38.6939 51.6958 38.8088 51.6468 38.9292 51.6451L38.9354 51.6454C38.9412 51.6454 38.9466 51.6447 38.9524 51.6445H57.7025V88.6816C57.7025 89.4097 58.2926 90 59.0208 90C59.7491 90 60.3392 89.4097 60.3392 88.6816L60.339 45.7945L66.8398 56.3303C67.127 56.7941 67.2791 57.3289 67.2789 57.8744L67.2782 65.3959C66.2307 65.8921 65.5025 66.9567 65.5025 68.1908V88.6816C65.5025 89.4097 66.0926 90 66.8208 90C67.5491 90 68.1392 89.4097 68.1392 88.6816V68.1906C68.1393 68.0694 68.1875 67.9531 68.2733 67.8674C68.359 67.7816 68.4753 67.7334 68.5965 67.7333H87.3634V88.6816C87.3634 89.4097 87.9535 90 88.6818 90C89.41 90 90.0001 89.4097 90.0001 88.6816V47.0145C90.0001 46.2864 89.41 45.6961 88.6818 45.6961C87.9535 45.6961 87.3634 46.2864 87.3634 47.0145V57.9938H69.9156V57.8742C69.9156 56.8378 69.6273 55.8239 69.0829 54.9441L60.5656 41.1406C60.4176 40.9017 60.3392 40.6263 60.3392 40.3453C60.3392 39.8013 60.6176 39.3107 61.0836 39.0331C61.7927 38.6112 62.7227 38.8392 63.1565 39.5418L66.0648 44.254C66.5679 45.0732 67.321 45.709 68.213 46.0677L71.345 47.3351C72.6108 47.8475 73.5709 48.9426 73.9132 50.2647C74.0009 50.6031 74.2195 50.8928 74.5208 51.0702C74.8221 51.2476 75.1815 51.2981 75.52 51.2105C75.8585 51.1229 76.1483 50.9043 76.3256 50.603C76.503 50.3017 76.5534 49.9422 76.4658 49.6037C75.9151 47.4768 74.3705 45.7149 72.3341 44.8909L69.2021 43.6235C68.8311 43.4742 68.5179 43.2097 68.3086 42.869L67.2721 41.1891V23.8799C67.2721 23.0337 67.9212 22.3147 68.7184 22.2771C68.9249 22.2663 69.1314 22.2979 69.3252 22.3701C69.5189 22.4423 69.6958 22.5534 69.8449 22.6967C69.9946 22.8385 70.1137 23.0095 70.1948 23.1991C70.2759 23.3887 70.3173 23.5928 70.3166 23.799C70.3166 23.8048 70.3173 23.8103 70.3174 23.8161V36.617C70.3174 37.3451 70.9075 37.9354 71.6358 37.9354C72.364 37.9354 72.9541 37.3451 72.9541 36.617L72.9532 20.2483C72.9532 19.8276 73.1211 19.4358 73.4257 19.1452C73.5746 19.0017 73.7515 18.8905 73.9453 18.8184C74.1391 18.7464 74.3457 18.715 74.5521 18.7263C75.3502 18.764 75.9993 19.4822 75.9993 20.3274V36.617C75.9993 37.3451 76.5894 37.9354 77.3177 37.9354C78.0459 37.9354 78.636 37.3451 78.636 36.617V23.799C78.636 23.3786 78.8035 22.9871 79.1076 22.6967C79.2568 22.5538 79.4336 22.4428 79.6272 22.3707C79.8208 22.2985 80.0271 22.2666 80.2335 22.277C81.0313 22.3146 81.6805 23.0335 81.6805 23.8797L81.6814 36.6168C81.6814 37.3449 82.2715 37.9352 82.9997 37.9352C83.728 37.9352 84.3181 37.3449 84.3181 36.6168V27.35L84.3177 27.3412C84.3181 27.1366 84.3601 26.9342 84.4412 26.7463C84.5223 26.5584 84.6408 26.389 84.7895 26.2484C84.9389 26.1056 85.1159 25.9947 85.3097 25.9227C85.5034 25.8506 85.7098 25.8189 85.9162 25.8293C86.7143 25.8669 87.3634 26.5852 87.3634 27.4303V40.8618C87.3634 41.0349 87.3975 41.2064 87.4637 41.3664C87.5299 41.5264 87.627 41.6718 87.7494 41.7942C87.8719 41.9167 88.0172 42.0138 88.1772 42.0801C88.3372 42.1464 88.5086 42.1805 88.6818 42.1805ZM57.7023 49.0076H40.2537V44.5426H57.7023V49.0076ZM57.7023 41.9059H40.2537V41.7871C40.2538 40.7521 39.966 39.7374 39.4225 38.8566L30.9046 25.0539C30.7978 24.8822 30.7267 24.6908 30.6952 24.4911C30.6638 24.2914 30.6728 24.0874 30.7216 23.8912C30.7692 23.6947 30.8557 23.5097 30.976 23.3473C31.0963 23.1849 31.248 23.0482 31.4221 22.9454C32.1313 22.5234 33.0623 22.7514 33.4961 23.4545L36.4037 28.166C36.9068 28.9852 37.6599 29.621 38.5518 29.9797L41.6839 31.2471C42.9497 31.7595 43.9098 32.8546 44.252 34.1766C44.3398 34.5151 44.5583 34.8048 44.8596 34.9822C45.1609 35.1596 45.5203 35.21 45.8588 35.1225C46.1973 35.0348 46.4871 34.8163 46.6645 34.515C46.8419 34.2137 46.8923 33.8542 46.8047 33.5157C46.254 31.3889 44.7094 29.6271 42.673 28.8028L39.541 27.5354C39.17 27.3862 38.8568 27.1217 38.6475 26.781L37.6107 25.1009V7.791C37.6107 6.94567 38.2599 6.22742 39.0579 6.18981C39.2643 6.17876 39.4708 6.21024 39.6645 6.28229C39.8583 6.35435 40.0351 6.46545 40.1841 6.60869C40.3339 6.75044 40.453 6.92136 40.5342 7.11092C40.6154 7.30047 40.6569 7.50464 40.6561 7.71084V20.529C40.6561 21.2571 41.2462 21.8473 41.9744 21.8473C42.7027 21.8473 43.2928 21.2571 43.2928 20.529V4.15936C43.2928 3.73907 43.4603 3.3476 43.7648 3.05721C43.9138 2.91409 44.0907 2.80307 44.2843 2.73102C44.478 2.65897 44.6844 2.62742 44.8908 2.63832C45.6888 2.67594 46.3382 3.39418 46.3382 4.23951V20.5288C46.3382 21.2569 46.9283 21.8472 47.6565 21.8472C48.3848 21.8472 48.9749 21.2569 48.9749 20.5288V7.71067C48.9749 7.29037 49.1424 6.89891 49.4468 6.60852C49.5958 6.4653 49.7727 6.35422 49.9664 6.28217C50.16 6.21011 50.3665 6.17862 50.5729 6.18963C51.3709 6.22725 52.0202 6.94549 52.0202 7.79082V20.5288C52.0202 21.2569 52.6103 21.8472 53.3386 21.8472C54.0668 21.8472 54.6569 21.2569 54.6569 20.5288V11.262C54.6569 10.8417 54.8244 10.4502 55.1289 10.1598C55.278 10.0168 55.4548 9.90592 55.6485 9.83388C55.8421 9.76184 56.0484 9.73021 56.2547 9.74094C57.053 9.77856 57.7023 10.4968 57.7023 11.3421V41.9059ZM69.9149 60.6305H87.3634V65.0967H69.9149V60.6305ZM37.1592 67.5176C36.8095 67.5176 36.4742 67.6565 36.2269 67.9037C35.9797 68.151 35.8408 68.4863 35.8408 68.8359V88.6816C35.8408 89.4097 36.4309 90 37.1592 90C37.8874 90 38.4775 89.4097 38.4775 88.6816V68.8359C38.4775 68.4863 38.3386 68.151 38.0914 67.9037C37.8441 67.6565 37.5088 67.5176 37.1592 67.5176Z" fill="#7A1129"/>
<path d="M53.3267 57.5204C54.1112 57.5204 54.7472 56.8844 54.7472 56.0999C54.7472 55.3154 54.1112 54.6794 53.3267 54.6794C52.5422 54.6794 51.9062 55.3154 51.9062 56.0999C51.9062 56.8844 52.5422 57.5204 53.3267 57.5204Z" fill="#7A1129"/>
<path d="M53.3267 63.2027C54.1112 63.2027 54.7472 62.5668 54.7472 61.7822C54.7472 60.9977 54.1112 60.3618 53.3267 60.3618C52.5422 60.3618 51.9062 60.9977 51.9062 61.7822C51.9062 62.5668 52.5422 63.2027 53.3267 63.2027Z" fill="#7A1129"/>
</g>
<defs>
<clipPath id="clip0_676_2373">
<rect width="90" height="90" fill="white"/>
</clipPath>
</defs>
</svg>
