<svg width="17" height="21" viewBox="0 0 17 21" fill="none" xmlns="http://www.w3.org/2000/svg">
<path fill-rule="evenodd" clip-rule="evenodd" d="M3.47703 3.32322C4.7429 2.11335 6.45979 1.43365 8.25 1.43365C10.0402 1.43365 11.7571 2.11335 13.023 3.32322C14.2888 4.53309 15 6.17403 15 7.88505C15 10.8527 13.2661 13.5549 11.434 15.5686C10.5272 16.5653 9.61837 17.369 8.93614 17.9232C8.66633 18.1424 8.43282 18.3219 8.25 18.4582C8.06718 18.3219 7.83367 18.1424 7.56386 17.9232C6.88163 17.369 5.97283 16.5653 5.06595 15.5686C3.23389 13.5549 1.5 10.8527 1.5 7.88505C1.5 6.17403 2.21116 4.53309 3.47703 3.32322ZM8.24603 20.071H1.5C1.08579 20.071 0.75 19.7501 0.75 19.3542C0.75 18.9583 1.08579 18.6374 1.5 18.6374H6.13809C5.48758 18.0827 4.71143 17.3637 3.93405 16.5093C2.01611 14.4012 0 11.3689 0 7.88505C0 5.79381 0.869194 3.78821 2.41637 2.30948C3.96354 0.830744 6.06196 0 8.25 0C10.438 0 12.5365 0.830744 14.0836 2.30948C15.6308 3.78821 16.5 5.79381 16.5 7.88505C16.5 11.3689 14.4839 14.4012 12.566 16.5093C11.7886 17.3637 11.0124 18.0827 10.3619 18.6374H15C15.4142 18.6374 15.75 18.9583 15.75 19.3542C15.75 19.7501 15.4142 20.071 15 20.071H8.25397C8.25132 20.071 8.24868 20.071 8.24603 20.071ZM8.25 5.73461C7.00736 5.73461 6 6.69741 6 7.88508C6 9.07275 7.00736 10.0355 8.25 10.0355C9.49264 10.0355 10.5 9.07275 10.5 7.88508C10.5 6.69741 9.49264 5.73461 8.25 5.73461ZM4.5 7.88508C4.5 5.90563 6.17893 4.30096 8.25 4.30096C10.3211 4.30096 12 5.90563 12 7.88508C12 9.86453 10.3211 11.4692 8.25 11.4692C6.17893 11.4692 4.5 9.86453 4.5 7.88508Z" fill="#173760"/>
</svg>
